<?xml version="1.0" encoding="utf-8"?>
<!-- Generator: Adobe Illustrator 25.0.0, SVG Export Plug-In . SVG Version: 6.00 Build 0)  -->
<svg version="1.1" id="Capa_1" xmlns="http://www.w3.org/2000/svg" xmlns:xlink="http://www.w3.org/1999/xlink" x="0px" y="0px"
	 viewBox="0 0 612 792" style="enable-background:new 0 0 612 792;" xml:space="preserve">
<style type="text/css">
	.st0{fill:#EEE6E0;}
	.st1{fill:#FFFFFF;}
	.st2{clip-path:url(#SVGID_2_);}
	.st3{fill:#FFCF17;}
</style>
<g>
	<circle class="st0" cx="298.72" cy="340.31" r="192.44"/>
	<g>
		<g>
			<path d="M472.75,346.97c-5.51,1.9-9.48,14.82-12.06,19.82c-0.06,0.11-0.12,0.22-0.17,0.33c-0.72,1.35-2.71,1.08-3.04-0.41
				c-1.37-6.13-1.95-12.29,3.73-17.15c9.48-8.1,11.2-15.51,10.68-24.13c-0.33-5.51,1.75-9.91,3.3-12.37
				c1.69-2.69,3.14-5.54,4.38-8.46c22.8-53.69-13.73-38.45-16.99-25.53c-2.33,9.22,1.21,14.82-6.83,21.26
				c-10.2,8.16-11.03,16.89-10.8,20.91c0.23,4.02,3.79,10-4.14,17.81c-7.93,7.81-8.16,16.78-5.17,25.85
				c2.99,9.08-2.64,16.2-5.74,19.88c-0.01,0.01-0.01,0.01-0.02,0.02c-0.59,0.71-1.7,0.53-2.01-0.33c-1.39-3.82-4.32-5.46-6.36-6.35
				c-2.64-1.15-5.51-6.32-7.7-13.56s-16.54-13.79-22.17-10.69c-5.63,3.1-8.96,16.55-4.36,23.33c4.59,6.78,27.68,13.1,26.53,22.98
				c-1.15,9.88,15.85,15.74,15.85,15.74s1.41-0.19,2.84-1.43c4.47,2.67,11.14,5.29,14.91,0.23c0.56-0.75,1.12-1.6,1.68-2.52
				c1.56-0.09,3.92-0.96,7.45-3.17c13.27-8.27,9.82-15.17,11.89-21.03c2.07-5.86,11.03-14.82,11.03-14.82
				C491.19,354.72,478.26,345.07,472.75,346.97z"/>
			<g>
				<path class="st1" d="M440.53,408.86c-0.27,0-0.49-0.21-0.49-0.48c-0.56-34.71,8.71-67.34,16.58-88.6
					c8.53-23.03,17.31-38.06,17.4-38.21c0.14-0.23,0.44-0.31,0.67-0.17c0.23,0.14,0.31,0.44,0.17,0.67
					c-0.09,0.15-8.83,15.12-17.33,38.08c-7.84,21.18-17.07,53.67-16.52,88.22C441.03,408.63,440.81,408.86,440.53,408.86
					C440.54,408.86,440.54,408.86,440.53,408.86z"/>
				<path class="st1" d="M427.08,409.94c-0.23,0-0.44-0.17-0.48-0.41c-5.02-28.79-34.47-47.68-34.77-47.87
					c-0.23-0.14-0.3-0.45-0.15-0.68c0.15-0.23,0.45-0.3,0.68-0.15c0.3,0.19,30.12,19.3,35.21,48.53c0.05,0.27-0.13,0.52-0.4,0.57
					C427.13,409.94,427.1,409.94,427.08,409.94z"/>
				<path class="st1" d="M447.8,408.05c-0.04,0-0.09-0.01-0.13-0.02c-0.26-0.07-0.42-0.34-0.34-0.6
					c5.61-20.31,21.45-42.21,21.61-42.43c0.16-0.22,0.47-0.27,0.69-0.11c0.22,0.16,0.27,0.47,0.11,0.69
					c-0.16,0.22-15.89,21.98-21.46,42.12C448.22,407.91,448.02,408.05,447.8,408.05z"/>
				<path class="st1" d="M444.09,367.84c-0.12,0-0.24-0.04-0.34-0.13c-0.2-0.19-0.21-0.5-0.02-0.69c4.97-5.26,8.06-13.2,8.09-13.28
					c0.1-0.25,0.38-0.38,0.64-0.28c0.25,0.1,0.38,0.38,0.28,0.63c-0.13,0.33-3.19,8.2-8.29,13.6
					C444.35,367.79,444.22,367.84,444.09,367.84z"/>
				<path class="st1" d="M443.02,376.46c-0.16,0-0.32-0.08-0.41-0.22c-0.15-0.23-0.08-0.53,0.15-0.68
					c6.12-3.96,8.58-10.9,8.61-10.97c0.09-0.26,0.37-0.39,0.63-0.3c0.26,0.09,0.39,0.37,0.3,0.63c-0.1,0.3-2.61,7.33-9,11.47
					C443.2,376.43,443.11,376.46,443.02,376.46z"/>
				<path class="st1" d="M451.99,396.68c-0.2,0-0.39-0.12-0.46-0.32c-0.09-0.25,0.04-0.54,0.29-0.63
					c4.71-1.72,12.22-12.27,12.29-12.38c0.16-0.22,0.46-0.27,0.68-0.12c0.22,0.16,0.27,0.46,0.12,0.69
					c-0.31,0.44-7.77,10.91-12.76,12.73C452.1,396.67,452.05,396.68,451.99,396.68z"/>
				<path class="st1" d="M405.54,372.51c-0.02,0-0.04,0-0.06,0c-0.27-0.03-0.46-0.28-0.43-0.55c0.89-7.28-3.7-12.56-3.75-12.61
					c-0.18-0.2-0.16-0.51,0.04-0.69c0.2-0.18,0.51-0.16,0.69,0.04c0.2,0.23,4.93,5.67,3.99,13.38
					C406,372.33,405.79,372.51,405.54,372.51z"/>
				<path class="st1" d="M419.99,391.27c-0.06,0-0.13-0.01-0.19-0.04c-8.23-3.41-16.96-10.7-17.05-10.78
					c-0.21-0.17-0.23-0.48-0.06-0.69c0.18-0.21,0.48-0.23,0.69-0.06c0.09,0.07,8.71,7.27,16.79,10.62c0.25,0.1,0.37,0.39,0.27,0.64
					C420.36,391.15,420.18,391.27,419.99,391.27z"/>
				<path class="st1" d="M454.6,326.89c-0.19,0-0.37-0.11-0.45-0.3c-2.96-7.08-1.03-16.06-0.95-16.44c0.06-0.26,0.32-0.43,0.59-0.37
					c0.26,0.06,0.43,0.32,0.37,0.59c-0.02,0.09-1.94,9.07,0.9,15.85c0.1,0.25-0.01,0.54-0.26,0.64
					C454.73,326.88,454.67,326.89,454.6,326.89z"/>
			</g>
		</g>
		<g>
			<path class="st1" d="M439.02,451.76L439.02,451.76c-15.34,0-27.78-12.44-27.78-27.78v-15.22h55.57v15.22
				C466.81,439.32,454.37,451.76,439.02,451.76z"/>
			<path d="M446.78,452.25h-15.51c-11.32,0-20.52-9.21-20.52-20.52v-22.97c0-0.27,0.22-0.49,0.49-0.49h55.57
				c0.27,0,0.49,0.22,0.49,0.49v22.97C467.3,443.05,458.09,452.25,446.78,452.25z M411.73,409.25v22.48
				c0,10.77,8.76,19.54,19.54,19.54h15.51c10.77,0,19.54-8.76,19.54-19.54v-22.48H411.73z"/>
		</g>
	</g>
	<g>
		<path d="M290.84,215.18c-0.1,0-0.2-0.03-0.29-0.09c-0.15-0.11-0.23-0.3-0.2-0.48l3.6-21.37l-3.81-0.64
			c-3.17-0.53-5.94-2.27-7.8-4.89c-1.86-2.62-2.6-5.8-2.06-8.97l9.08-53.95c0.53-3.17,2.27-5.94,4.89-7.8
			c2.62-1.86,5.8-2.59,8.97-2.06l130.35,21.95c3.17,0.53,5.94,2.27,7.8,4.89c1.86,2.62,2.6,5.8,2.06,8.97l-9.08,53.95
			c-0.53,3.17-2.27,5.94-4.89,7.8c-2.62,1.86-5.8,2.6-8.97,2.06l-15.69-2.64c-0.27-0.05-0.45-0.3-0.4-0.57
			c0.05-0.27,0.3-0.45,0.57-0.4l15.69,2.64c2.91,0.49,5.84-0.18,8.24-1.89c2.4-1.71,4-4.26,4.49-7.17l9.08-53.95
			c0.49-2.91-0.18-5.84-1.89-8.24c-1.71-2.4-4.26-4-7.17-4.49l-130.35-21.95c-2.91-0.49-5.84,0.18-8.24,1.89
			c-2.4,1.71-4,4.26-4.49,7.17l-9.08,53.95c-0.49,2.91,0.18,5.84,1.89,8.24c1.71,2.4,4.26,4,7.17,4.49l4.3,0.72
			c0.27,0.05,0.45,0.3,0.4,0.57l-3.51,20.87l31.25-16.59c0.1-0.05,0.21-0.07,0.31-0.05l39.54,6.66c0.27,0.05,0.45,0.3,0.4,0.57
			c-0.05,0.27-0.3,0.44-0.57,0.4l-39.38-6.63l-31.98,16.98C291,215.16,290.92,215.18,290.84,215.18z"/>
	</g>
	<g>
		<g>
			<path d="M354.96,395.24c5.61-0.72,9.82-5.49,9.82-11.15l0.73-154.52l-2.76-5.96c0,0-5-3.34-7.63-4.83
				c-1.58-0.9-3.45-1.32-5.42-1.07l-222.93,28.43c-5.61,0.72-9.82,5.49-9.82,11.15v153.18c0.26,9.39,12.89,15.06,12.89,15.06
				L354.96,395.24z"/>
			<g>
				<path class="st1" d="M134.8,426.49l224.27-28.6c5.65-0.72,9.88-5.53,9.88-11.22V232.57c0-5.3-4.65-9.39-9.9-8.72l-224.27,28.6
					c-5.65,0.72-9.88,5.53-9.88,11.22v154.1C124.9,423.07,129.54,427.16,134.8,426.49z"/>
				<path d="M133.69,427.05c-2.24,0-4.43-0.81-6.13-2.32c-2-1.76-3.15-4.3-3.15-6.97v-154.1c0-5.92,4.43-10.96,10.31-11.71
					l224.27-28.6c2.64-0.34,5.31,0.48,7.31,2.24c2,1.76,3.15,4.3,3.15,6.97v154.1c0,5.92-4.43,10.96-10.31,11.71l-224.27,28.6
					C134.47,427.03,134.08,427.05,133.69,427.05z M134.8,426.49L134.8,426.49L134.8,426.49z M360.16,224.27
					c-0.35,0-0.7,0.02-1.05,0.07l-224.27,28.6c-5.39,0.69-9.45,5.3-9.45,10.73v154.1c0,2.38,1.03,4.65,2.81,6.23
					c1.79,1.57,4.17,2.3,6.53,2l224.27-28.6c5.39-0.69,9.45-5.3,9.45-10.73v-154.1c0-2.38-1.03-4.65-2.81-6.23
					C364.12,225,362.17,224.27,360.16,224.27z"/>
			</g>
			<g>
				<path class="st1" d="M143.46,420.49l208.21-26.55c5.24-0.67,9.17-5.13,9.17-10.42V240.45c0-4.92-4.32-8.72-9.19-8.09
					l-208.21,26.55c-5.24,0.67-9.17,5.13-9.17,10.42V412.4C134.26,417.31,138.58,421.11,143.46,420.49z"/>
				<path d="M141.8,419.79c-2.09,0-4.13-0.76-5.72-2.16c-1.86-1.64-2.93-4.01-2.93-6.49V268.07c0-5.52,4.13-10.21,9.6-10.9
					l208.21-26.55c2.46-0.32,4.95,0.45,6.81,2.09c1.86,1.64,2.93,4.01,2.93,6.49v143.07c0,5.52-4.13,10.21-9.6,10.9l-208.21,26.55
					C142.52,419.77,142.16,419.79,141.8,419.79z M352.05,231.53c-0.32,0-0.65,0.02-0.97,0.06l-208.21,26.55
					c-4.98,0.64-8.74,4.9-8.74,9.93v143.07c0,2.2,0.95,4.3,2.6,5.76c1.65,1.46,3.85,2.13,6.04,1.85l208.21-26.55
					c4.98-0.64,8.74-4.9,8.74-9.93V239.2c0-2.2-0.95-4.3-2.6-5.76C355.71,232.2,353.9,231.53,352.05,231.53z"/>
			</g>
		</g>
		<g>
			<g>
				<path d="M265.53,513.16l229.27-29.57c1.79-0.23,2.81-1.73,2.78-3.23c-0.02-1.04-0.1-8.33-0.1-8.33l-121.23-69.3
					c-6.07-3.47-13.93-4.81-20.87-3.92L129.01,428c-1.36,0.18-2.53,1.06-3.07,2.32l-0.36,0.85c0,0,0.19,6.09,0.12,7.51
					c-0.06,1.11,0.44,2.26,1.6,2.92l118.18,67.57C251.55,512.65,258.59,514.05,265.53,513.16z"/>
				<g>
					<path class="st1" d="M265.53,505.04l228.45-29.51c3.03-0.39,3.83-4.41,1.18-5.93L377.6,402.46
						c-6.07-3.47-13.11-4.86-20.05-3.98L129.1,428c-3.03,0.39-3.83,4.41-1.18,5.93l117.55,67.14
						C251.55,504.53,258.59,505.93,265.53,505.04z"/>
					<path d="M261.49,505.79c-5.67,0-11.32-1.48-16.26-4.3l-117.55-67.14c-1.4-0.8-2.1-2.33-1.78-3.91
						c0.31-1.58,1.55-2.73,3.14-2.93L357.49,398c7-0.89,14.23,0.54,20.36,4.04l117.55,67.14c1.4,0.8,2.1,2.33,1.78,3.91
						c-0.31,1.58-1.55,2.73-3.14,2.93l-228.45,29.51c0,0,0,0,0,0C264.23,505.7,262.86,505.79,261.49,505.79z M265.53,505.04
						L265.53,505.04L265.53,505.04z M361.59,398.72c-1.33,0-2.66,0.08-3.98,0.25l-228.45,29.51c-1.42,0.18-2.12,1.23-2.3,2.15
						c-0.18,0.92,0.07,2.15,1.31,2.86l117.55,67.14c5.94,3.39,12.95,4.79,19.74,3.92l228.45-29.51c1.42-0.18,2.12-1.23,2.3-2.15
						c0.18-0.92-0.07-2.15-1.31-2.86l-117.55-67.14C372.57,400.15,367.09,398.72,361.59,398.72z"/>
				</g>
				<path d="M217.15,468.49c-5.13,0-10.24-1.34-14.71-3.89l-46.58-26.33c-1.28-0.73-1.92-2.14-1.64-3.58
					c0.29-1.44,1.42-2.5,2.88-2.69l198.1-25.78c6.33-0.81,12.87,0.49,18.42,3.65l46.58,26.33c1.28,0.73,1.92,2.14,1.64,3.58
					c-0.29,1.44-1.42,2.5-2.88,2.69l-198.1,25.78c0,0,0,0,0,0C219.63,468.42,218.39,468.49,217.15,468.49z M220.8,467.77
					L220.8,467.77L220.8,467.77z M358.91,406.97c-1.2,0-2.4,0.08-3.59,0.23l-198.1,25.78c-1.26,0.16-1.88,1.09-2.04,1.9
					c-0.16,0.81,0.06,1.91,1.16,2.54l46.58,26.33c5.36,3.06,11.68,4.31,17.8,3.53l198.1-25.78c1.26-0.16,1.88-1.09,2.04-1.9
					s-0.06-1.91-1.16-2.54l-46.58-26.33C368.82,408.27,363.87,406.97,358.91,406.97z"/>
				<path d="M336.07,483.45c-1.43,0-2.86-0.37-4.11-1.09l-26.63-14.57c-0.49-0.28-0.73-0.8-0.62-1.34c0.11-0.54,0.53-0.94,1.08-1.01
					l55.13-7.12c1.77-0.22,3.6,0.14,5.15,1.02l26.63,14.56c0.49,0.28,0.73,0.8,0.62,1.34c-0.11,0.54-0.53,0.93-1.08,1l-55.13,7.12
					c0,0,0,0,0,0C336.77,483.43,336.42,483.45,336.07,483.45z M337.05,482.9L337.05,482.9L337.05,482.9z M361.96,459.25
					c-0.3,0-0.61,0.02-0.91,0.06l-55.13,7.12c-0.18,0.02-0.23,0.16-0.24,0.22c-0.01,0.06-0.02,0.21,0.13,0.29l26.63,14.57
					c1.37,0.78,2.98,1.1,4.54,0.9l55.13-7.12c0.18-0.02,0.23-0.16,0.24-0.22c0.01-0.06,0.02-0.21-0.13-0.3l-26.63-14.56
					C364.48,459.58,363.22,459.25,361.96,459.25z"/>
			</g>
			<g>
				<path d="M207.66,434.31c-0.24,0-0.46-0.18-0.49-0.43c-0.03-0.27,0.16-0.51,0.43-0.55l82.87-10.07c0.27-0.03,0.51,0.16,0.55,0.43
					c0.03,0.27-0.16,0.51-0.43,0.55l-82.87,10.07C207.7,434.31,207.68,434.31,207.66,434.31z"/>
				<path d="M243.89,442.44c-0.24,0-0.46-0.18-0.49-0.43c-0.03-0.27,0.16-0.51,0.43-0.55l24.06-2.92c0.27-0.03,0.51,0.16,0.55,0.43
					c0.03,0.27-0.16,0.51-0.43,0.55l-24.06,2.92C243.93,442.44,243.91,442.44,243.89,442.44z"/>
				<path d="M329.69,443.9c-0.24,0-0.46-0.18-0.49-0.43c-0.03-0.27,0.16-0.51,0.43-0.55l24.06-2.92c0.27-0.03,0.51,0.16,0.55,0.43
					c0.03,0.27-0.16,0.51-0.43,0.55l-24.06,2.92C329.73,443.9,329.71,443.9,329.69,443.9z"/>
			</g>
		</g>
	</g>
	<g>
		<path class="st1" d="M404.96,210.93l15.69,2.64c2.91,0.49,5.84-0.18,8.24-1.89c2.4-1.71,4-4.26,4.49-7.17l9.08-53.95
			c0.49-2.91-0.18-5.84-1.89-8.24c-1.71-2.4-4.26-4-7.17-4.49l-130.35-21.95c-2.91-0.49-5.84,0.18-8.24,1.89
			c-2.4,1.71-4,4.26-4.49,7.17l-9.08,53.95c-0.49,2.91,0.18,5.84,1.89,8.24c1.71,2.4,4.26,4,7.17,4.49l4.3,0.72
			c0.27,0.05,0.45,0.3,0.4,0.57l-3.51,20.87l31.25-16.59c0.1-0.05,0.21-0.07,0.31-0.05l39.54,6.66
			C362.86,203.84,404.69,210.89,404.96,210.93z"/>
	</g>
	<g>
		<defs>
			<path id="SVGID_1_" d="M142.83,419.23l208.21-26.55c5.24-0.67,9.17-5.13,9.17-10.42l108.72-178.97
				c0-4.92-113.04-51.32-117.91-50.69l-208.21,26.55c-5.24,0.67-9.17,5.13-9.17,10.42v221.57
				C133.64,416.06,137.95,419.86,142.83,419.23z"/>
		</defs>
		<clipPath id="SVGID_2_">
			<use xlink:href="#SVGID_1_"  style="overflow:visible;"/>
		</clipPath>
		<g class="st2">
			<g>
				<path d="M247.55,532.48l1.13-52.83c0,0,8.01,18.83,13.28,52.83h59.91c-5.3-48.98-22.47-93.42-27.36-105.35
					c-0.84-2.05-2.53-3.62-4.65-4.28c-11.7-3.67-52.51-13.35-94.51,13.59c-1.98,1.27-3.25,3.4-3.42,5.75
					c-0.76,10.62-2.54,43.58,0.21,90.29H247.55z"/>
				<path class="st1" d="M250.75,500.85c-0.26,0-0.48-0.21-0.49-0.48l-0.84-28.26c-0.01-0.17,0.07-0.32,0.21-0.42l14.82-10.42
					c0.22-0.16,0.53-0.1,0.68,0.12c0.16,0.22,0.1,0.53-0.12,0.68l-14.61,10.27l0.83,27.99c0.01,0.27-0.21,0.5-0.48,0.51
					C250.76,500.85,250.76,500.85,250.75,500.85z"/>
			</g>
			<g>
				<g>
					<g>
						<path class="st1" d="M385,229.83c0,0,0.24-21.8,0.63-27.7c0.44-6.71-8.73,0.91-9.08,21.48L385,229.83z"/>
						<path d="M385,230.33c-0.1,0-0.21-0.03-0.29-0.1l-8.45-6.22c-0.13-0.09-0.2-0.25-0.2-0.4c0.24-13.95,4.56-22.47,7.55-24.06
							c0.81-0.43,1.37-0.27,1.69-0.06c0.63,0.41,0.91,1.31,0.82,2.69c-0.39,5.82-0.63,27.45-0.63,27.67c0,0.18-0.11,0.35-0.27,0.43
							C385.15,230.31,385.07,230.33,385,230.33z M377.04,223.37l7.48,5.5c0.05-4.28,0.28-21.63,0.62-26.77
							c0.07-1.1-0.14-1.65-0.37-1.8c-0.2-0.13-0.52,0.01-0.7,0.1C381.99,201.52,377.34,208.84,377.04,223.37z"/>
					</g>
					<g>
						<path class="st1" d="M381.34,251.88c2.12-4.55,6.55-14.3,6.86-17.11c0.32-2.89-1.95-5.34-2.98-6.29
							c-0.61-0.56-1.18-1.15-1.75-1.75l-5.3-5.58c-1.33-1.33-1.84-3.35-3.85-3.25c-3.84,0.19-5.59,6.57-5.59,6.57
							s-3.38-3.26-5.52-2.07c-2.13,1.19-6.49,10.95-2.76,21.78c3.31,9.6,5.14,7.07,5.04,13.88c-1.53,16.34-8.66,52.41-20.94,51.03
							c-12.28-1.38-18.28-10.57-18.28-10.57l-28.3,27.56c0,0,17.22,26.25,50.92,23.39c48.33-4.09,31.29-91.66,31.28-91.68
							c-0.01-0.41-0.02-0.74-0.01-0.96C380.21,255.12,380.61,253.44,381.34,251.88z"/>
						<path d="M343.88,350.18c-15.02,0-26.31-5.79-33.38-10.93c-8.49-6.19-12.9-12.83-12.94-12.89c-0.13-0.2-0.1-0.46,0.07-0.62
							l28.3-27.56c0.11-0.1,0.25-0.15,0.4-0.14c0.15,0.02,0.28,0.1,0.36,0.22c0.06,0.09,6.02,9.01,17.92,10.35
							c1.65,0.19,3.3-0.37,4.89-1.67c8.62-7.01,14.09-33.73,15.51-48.92c0.05-3.64-0.43-4.42-1.5-6.13
							c-0.86-1.38-2.04-3.28-3.52-7.55c-3.87-11.22,0.75-21.12,2.98-22.36c1.87-1.04,4.39,0.71,5.52,1.64
							c0.61-1.76,2.44-6.04,5.81-6.2c1.67-0.09,2.47,1.05,3.23,2.14c0.3,0.43,0.62,0.88,0.99,1.26l5.31,5.59
							c0.54,0.56,1.12,1.16,1.73,1.73c1.06,0.98,3.47,3.58,3.13,6.7c-0.31,2.82-4.46,12.02-6.9,17.26c-0.7,1.51-1.08,3.11-1.13,4.76
							c-0.01,0.21,0,0.51,0.01,0.9c0.18,0.96,2.65,14.07,2.9,30.32c0.23,15.28-1.56,36.24-11.45,49.32
							c-5.69,7.53-13.49,11.76-23.18,12.58C347.2,350.11,345.52,350.18,343.88,350.18z M298.61,326.15c1,1.41,5.22,7.03,12.5,12.33
							c6.94,5.05,18.02,10.72,32.77,10.72c1.61,0,3.27-0.07,4.97-0.21c9.4-0.8,16.97-4.9,22.48-12.2
							c18.63-24.65,8.47-78.36,8.36-78.9c-0.01-0.03-0.01-0.05-0.01-0.08c-0.01-0.43-0.02-0.76-0.01-1
							c0.05-1.78,0.46-3.52,1.22-5.15c1.95-4.17,6.51-14.18,6.82-16.95c0.29-2.67-1.88-5-2.82-5.87c-0.63-0.59-1.23-1.2-1.77-1.77
							l-5.3-5.58c-0.42-0.42-0.76-0.91-1.09-1.38c-0.77-1.1-1.31-1.77-2.38-1.72c-3.45,0.17-5.12,6.15-5.14,6.21
							c-0.05,0.17-0.18,0.3-0.34,0.34c-0.17,0.05-0.35,0-0.47-0.12c-0.87-0.84-3.45-2.82-4.94-2c-1.99,1.11-6.16,10.66-2.53,21.19
							c1.44,4.17,2.58,6.01,3.42,7.35c1.1,1.76,1.7,2.74,1.64,6.7c-1.44,15.39-7.02,42.43-15.87,49.63
							c-1.8,1.46-3.69,2.09-5.62,1.88c-10.73-1.21-16.82-8.37-18.29-10.31L298.61,326.15z"/>
					</g>
					<path d="M375.77,244.26c-1.68,0-3.88-0.95-6.08-3.65c-4.44-5.44-1.46-16.21-1.33-16.67c0.07-0.26,0.35-0.41,0.61-0.34
						c0.26,0.07,0.41,0.35,0.34,0.61c-0.03,0.11-2.97,10.74,1.14,15.78c2.56,3.14,5.03,3.63,6.37,3.1c1.02-0.4,1.58-1.43,1.49-2.74
						c-0.24-3.63-2.46-5.85-2.48-5.87c-0.19-0.19-0.2-0.5-0.01-0.69c0.19-0.19,0.5-0.2,0.69-0.01c0.1,0.1,2.51,2.49,2.78,6.51
						c0.12,1.76-0.67,3.15-2.11,3.72C376.78,244.16,376.3,244.26,375.77,244.26z"/>
				</g>
				<g>
					<g>
						<path class="st3" d="M312.07,347.24l28-54.11l-27.63-23.94c0,0-40.31-21.8-66.25-17.81c-13.1,2.02-34.42,4.23-46.32,9.64
							c-12.62,5.73-31.82,15.22-38.53,27.34l-6.73,27.43c-0.2,0.82,0.07,1.68,0.72,2.23c11.83,9.92,40.93,17.83,40.93,17.83
							l-22.39,91.59c24.28,24.57,109.63,13.08,135.03,9.46l-8.25-94.61L312.07,347.24z"/>
						<path d="M237.92,443.24c-32.37,0-54.24-5.18-64.39-15.46c-0.12-0.12-0.17-0.3-0.13-0.46l22.27-91.12
							c-4.04-1.13-30.64-8.43-41.05-18.17c-0.13-0.12-1.26-0.63-0.63-2.51l6.86-27.26c0.02-0.04,0.03-0.08,0.05-0.12
							c6.52-11.77,24.14-20.91,38.76-27.55c9.88-4.49,25.96-6.76,38.89-8.58c2.71-0.38,5.27-0.74,7.56-1.1
							c25.81-3.97,66.16,17.64,66.56,17.86c0.03,0.02,0.06,0.04,0.09,0.06l26.45,22.2c0.86,0.86,1.13,1.13,1.22,1.83
							c0.09,0.76-0.08,1.54-0.44,2.22l-27.48,52.4c-0.12,0.23-0.4,0.33-0.63,0.22l-10.66-4.62l8.18,93.78
							c0.02,0.26-0.16,0.49-0.42,0.53C281.53,441.29,257.75,443.24,237.92,443.24z M174.42,427.28
							c16.29,16.14,62.59,19.32,133.96,9.19l-8.21-94.14c-0.02-0.17,0.06-0.34,0.2-0.44c0.14-0.1,0.32-0.12,0.48-0.05l11,4.77
							l27.01-52.19c0.35-0.68,0.19-1.52-0.39-2.03l-26.31-22.79c-1.59-0.85-40.81-21.59-65.9-17.73c-2.3,0.35-4.86,0.72-7.58,1.1
							c-12.86,1.81-28.87,4.07-38.62,8.5c-13.33,6.06-31.79,15.45-38.27,27.08l-6.68,27.24c-0.18,0.72,0.07,1.47,0.64,1.95
							c11.69,9.7,40.34,17.56,40.64,17.64c0.26,0.07,0.41,0.33,0.35,0.59L174.42,427.28z"/>
					</g>
				</g>
				<g>
					<path class="st1" d="M238.09,443.24c-10.56,0-20.03-0.55-28.34-1.64c-0.27-0.04-0.46-0.28-0.42-0.55
						c0.04-0.27,0.29-0.46,0.55-0.42c16.87,2.22,38.54,2.18,64.41-0.13c0.27-0.02,0.51,0.18,0.53,0.45
						c0.02,0.27-0.18,0.51-0.45,0.53C261.16,442.65,249.04,443.24,238.09,443.24z"/>
				</g>
				<g>
					<g>
						<path class="st1" d="M292.78,323.16l-71.18-21.98c-1.81-0.56-3.74,0.46-4.29,2.27l-28.74,93.05c-0.56,1.81,0.46,3.74,2.27,4.3
							l71.18,21.98c1.81,0.56,3.74-0.46,4.3-2.27l28.74-93.05C295.61,325.65,294.6,323.72,292.78,323.16z"/>
						<path d="M263.03,423.42c-0.38,0-0.77-0.06-1.16-0.18l-71.18-21.98c-1-0.31-1.82-0.99-2.31-1.92
							c-0.49-0.93-0.59-1.99-0.28-2.99l28.74-93.05c0.31-1,0.99-1.82,1.92-2.31c0.93-0.49,1.99-0.59,2.99-0.28l71.18,21.98
							c2.07,0.64,3.23,2.84,2.59,4.91l-28.74,93.05C266.26,422.34,264.71,423.42,263.03,423.42z M220.59,301.52
							c-0.47,0-0.94,0.12-1.37,0.34c-0.7,0.37-1.21,0.98-1.44,1.73l-28.74,93.05c-0.23,0.75-0.16,1.55,0.21,2.24
							c0.37,0.7,0.98,1.21,1.73,1.44l71.18,21.98c1.55,0.48,3.2-0.39,3.68-1.94l28.74-93.05c0.48-1.55-0.39-3.2-1.94-3.68
							l-71.18-21.98C221.17,301.56,220.88,301.52,220.59,301.52z"/>
					</g>
					<g>
						
							<rect x="211.56" y="314.71" transform="matrix(0.9555 0.2951 -0.2951 0.9555 117.2514 -55.3959)" class="st1" width="61.23" height="92.19"/>
						<path d="M257.82,414.37c-0.05,0-0.1-0.01-0.15-0.02l-58.51-18.07c-0.26-0.08-0.4-0.36-0.32-0.61l27.2-88.09
							c0.04-0.12,0.12-0.23,0.24-0.29c0.11-0.06,0.25-0.07,0.37-0.04l58.51,18.07c0.26,0.08,0.4,0.36,0.32,0.61l-27.2,88.09
							C258.23,414.24,258.03,414.37,257.82,414.37z M199.93,395.49l57.57,17.78l26.91-87.15l-57.57-17.78L199.93,395.49z"/>
					</g>
					<g>
						<g>
							<path class="st1" d="M274.44,313.16l-32.04-9.89c-2.22-0.68-4.57,0.56-5.25,2.77l-2.26,7.33l40.06,12.37l2.26-7.33
								C277.89,316.19,276.65,313.84,274.44,313.16z"/>
							<path d="M274.94,326.23c-0.05,0-0.1-0.01-0.15-0.02l-40.06-12.37c-0.26-0.08-0.4-0.36-0.32-0.61l2.26-7.33
								c0.37-1.2,1.18-2.18,2.29-2.76c1.11-0.58,2.38-0.7,3.57-0.33l32.04,9.89c1.2,0.37,2.18,1.18,2.76,2.29
								c0.59,1.11,0.7,2.38,0.33,3.57l-2.26,7.33C275.35,326.09,275.15,326.23,274.94,326.23z M235.5,313.04l39.12,12.08l2.12-6.86
								c0.29-0.95,0.2-1.95-0.26-2.82c-0.46-0.88-1.24-1.52-2.18-1.81l-32.04-9.89c-1.95-0.6-4.03,0.5-4.64,2.45L235.5,313.04z"/>
						</g>
						<g>
							<path class="st1" d="M262.51,294.95c-4.76-1.47-9.8,1.2-11.27,5.95l-2.66,8.61l17.22,5.32l2.66-8.61
								C269.93,301.47,267.27,296.42,262.51,294.95z M260.2,302.43c-0.94-0.29-1.47-1.29-1.18-2.23c0.29-0.94,1.29-1.47,2.23-1.18
								c0.94,0.29,1.47,1.29,1.18,2.23C262.14,302.19,261.14,302.72,260.2,302.43z"/>
							<path d="M265.8,315.32c-0.05,0-0.1-0.01-0.15-0.02l-17.22-5.32c-0.26-0.08-0.4-0.36-0.32-0.61l2.66-8.61
								c0.75-2.43,2.4-4.41,4.64-5.6c2.24-1.19,4.82-1.43,7.24-0.68c5.01,1.55,7.82,6.88,6.27,11.88l-2.66,8.61
								C266.21,315.19,266.01,315.32,265.8,315.32z M249.2,309.19l16.28,5.03l2.51-8.14c1.39-4.49-1.14-9.27-5.63-10.65
								c-2.17-0.67-4.48-0.46-6.49,0.61c-2.01,1.06-3.49,2.84-4.16,5.02L249.2,309.19z M260.73,303c-0.22,0-0.45-0.03-0.67-0.1
								c-0.58-0.18-1.06-0.57-1.34-1.11c-0.28-0.54-0.34-1.15-0.16-1.73c0.18-0.58,0.57-1.06,1.11-1.34
								c0.54-0.28,1.15-0.34,1.73-0.16c0.58,0.18,1.06,0.57,1.34,1.11c0.28,0.54,0.34,1.15,0.16,1.73
								C262.6,302.37,261.7,303,260.73,303z M260.35,301.96c0.68,0.21,1.4-0.17,1.61-0.85c0.1-0.33,0.07-0.68-0.09-0.98
								c-0.16-0.3-0.43-0.53-0.76-0.63c-0.33-0.1-0.68-0.07-0.98,0.09c-0.3,0.16-0.53,0.43-0.63,0.76c-0.1,0.33-0.07,0.68,0.09,0.98
								C259.75,301.63,260.02,301.86,260.35,301.96z"/>
						</g>
					</g>
					<path d="M272.32,340.36l-43.5-13.44c-1.09-0.34-1.69-1.49-1.36-2.57l0,0c0.34-1.09,1.49-1.69,2.57-1.36l43.5,13.44
						c1.09,0.34,1.69,1.49,1.36,2.57l0,0C274.55,340.09,273.4,340.69,272.32,340.36z"/>
					<path d="M269.82,348.42l-43.5-13.44c-1.09-0.34-1.69-1.49-1.36-2.57l0,0c0.34-1.09,1.49-1.69,2.57-1.36l43.5,13.44
						c1.09,0.34,1.69,1.49,1.36,2.57l0,0C272.06,348.15,270.91,348.76,269.82,348.42z"/>
					<path d="M267.33,356.49l-43.5-13.44c-1.09-0.34-1.69-1.49-1.36-2.57l0,0c0.34-1.09,1.49-1.69,2.57-1.36l43.5,13.44
						c1.09,0.34,1.69,1.49,1.36,2.57l0,0C269.57,356.21,268.42,356.82,267.33,356.49z"/>
				</g>
				<g>
					<path class="st1" d="M158.63,320.09l34.92,15.42c0,0-9.7,17.79,23.45,30.12c33.15,12.32,40.07,6.59,40.07,6.59l11.38-18.55
						c0,0,3.96,0.77,1.5,7.16c-2.46,6.39-3.85,9.04,2.7,8.44c6.54-0.6,12.88-9.15,12.88-9.15s0.9,6.43-2.4,11.2c0,0,3,1.83-1.2,7.64
						c0,0,1.4,2.68-4.49,7.64c0,0,3.9,3.29-7.49,5.69c-6.29,1.32-14.38-0.9-14.38-0.9s-48.28,12.61-77.02-4.79
						C149.81,369.2,158.63,320.09,158.63,320.09z"/>
					<path d="M219.08,396.3c-13.11,0-28.68-1.94-40.79-9.27c-11.89-7.2-19.14-21.09-20.97-40.16c-1.38-14.35,0.8-26.74,0.83-26.86
						c0.03-0.15,0.12-0.28,0.25-0.35c0.13-0.07,0.29-0.08,0.43-0.02l34.92,15.42c0.13,0.06,0.22,0.16,0.27,0.29
						c0.04,0.13,0.03,0.27-0.03,0.39c-0.03,0.05-2.63,4.98-0.26,11.3c2.73,7.26,10.61,13.35,23.45,18.12
						c30.77,11.44,38.8,7.17,39.53,6.71l11.33-18.46c0.11-0.17,0.31-0.27,0.51-0.23c0.06,0.01,1.39,0.29,2.17,1.69
						c0.8,1.45,0.7,3.52-0.31,6.13l-0.38,0.99c-1.2,3.09-2.07,5.32-1.4,6.21c0.45,0.59,1.75,0.78,3.98,0.57
						c6.25-0.57,12.47-8.87,12.53-8.96c0.12-0.16,0.32-0.23,0.52-0.18c0.19,0.05,0.34,0.21,0.37,0.41
						c0.04,0.26,0.84,6.36-2.24,11.18c0.28,0.3,0.64,0.81,0.8,1.59c0.34,1.67-0.37,3.76-2.1,6.21c0.22,0.87,0.35,3.52-4.34,7.61
						c0.28,0.39,0.57,1.02,0.38,1.8c-0.45,1.78-3.29,3.23-8.46,4.32c-5.98,1.26-13.39-0.58-14.49-0.87
						c-1.34,0.34-13.02,3.2-27.7,4.11C225.12,396.19,222.17,396.3,219.08,396.3z M159.01,320.8c-0.41,2.67-1.9,13.59-0.71,26
						c1.26,13.07,5.83,30.5,20.5,39.39c11.59,7.02,26.5,9.1,40.08,9.1c19.51,0,36.28-4.28,36.56-4.36c0.08-0.02,0.17-0.02,0.25,0
						c0.08,0.02,8.05,2.17,14.15,0.89c6.25-1.32,7.52-2.82,7.71-3.6c0.17-0.69-0.43-1.23-0.44-1.23c-0.11-0.09-0.17-0.23-0.17-0.38
						c0-0.14,0.06-0.28,0.17-0.38c5.43-4.58,4.38-7.02,4.37-7.05c-0.07-0.16-0.06-0.36,0.04-0.5c2.06-2.86,2.27-4.63,2.09-5.61
						c-0.18-0.94-0.73-1.31-0.75-1.32c-0.11-0.07-0.19-0.19-0.22-0.32c-0.03-0.13,0-0.27,0.08-0.38c2.3-3.33,2.48-7.57,2.4-9.63
						c-1.92,2.32-7.05,7.86-12.44,8.35c-2.71,0.25-4.16-0.04-4.85-0.96c-1-1.32-0.15-3.52,1.27-7.16l0.38-0.99
						c0.88-2.29,1.01-4.11,0.37-5.29c-0.36-0.65-0.87-0.97-1.2-1.11l-11.18,18.22c-0.03,0.05-0.06,0.09-0.11,0.12
						c-0.29,0.24-7.51,5.77-40.55-6.51c-13.13-4.88-21.21-11.18-24.03-18.73c-2.11-5.64-0.54-10.16,0.09-11.61L159.01,320.8z"/>
				</g>
				<path d="M300.69,340.23c-0.25,0-0.46-0.18-0.49-0.43l-3-25.33c-0.03-0.27,0.16-0.51,0.43-0.55c0.27-0.03,0.51,0.16,0.55,0.43
					l3,25.33c0.03,0.27-0.16,0.51-0.43,0.55C300.73,340.23,300.71,340.23,300.69,340.23z"/>
				<path d="M198.15,334.91c-0.11,0-0.22-0.04-0.31-0.11c-0.21-0.17-0.24-0.48-0.07-0.69l6.06-7.35c0.17-0.21,0.48-0.24,0.69-0.07
					c0.21,0.17,0.24,0.48,0.07,0.69l-6.06,7.35C198.44,334.85,198.3,334.91,198.15,334.91z"/>
			</g>
			<g>
				<path d="M226.54,209.14c0,0-6.05-12.3-8.18-14.46c-2.13-2.16-3.78-4.45,2.49-8.65c6.27-4.2,22.66-15.4,32.71-15.33
					c10.04,0.07,17.08,6.41,13.99,10.99c-3.09,4.57-4.51,6.5-2.13,6.8c2.38,0.3,3.7,2.95-3.05,6.86
					C255.61,199.26,232.08,216.24,226.54,209.14z"/>
				<g>
					<path class="st1" d="M260.7,245.26l-3.61-12.9c7.82-1.73,10.16-12.35,8.3-20.64c-1.35-6.01-4.89-19.7-4.89-19.7
						c-8.16,4.79-30.24,5.3-30.24,5.3s2.29,3.65,0.98,5.46c-1.32,1.8-0.5,8.72-0.5,8.72s-2.86-2.69-5.91-0.63
						c-1.72,1.16,0.24,6.09,1.65,8.86c1.41,2.77,4.44,3.31,4.44,3.31s0.5-0.3,1.52,2.14l-3.28,17.27c-1.34,7.08-6.16,13-12.81,15.76
						l39.79,13.07l17.05-14.97C267.22,255.4,262.33,251.07,260.7,245.26z"/>
					<path d="M256.14,271.13c-0.05,0-0.1-0.01-0.15-0.02l-39.79-13.07c-0.2-0.06-0.33-0.24-0.34-0.45c-0.01-0.21,0.11-0.39,0.3-0.47
						c6.52-2.71,11.2-8.46,12.52-15.4l3.25-17.12c-0.55-1.28-0.89-1.62-1-1.7c-0.03,0-0.07,0-0.1-0.01
						c-0.13-0.02-3.29-0.62-4.79-3.57c-0.93-1.83-3.8-7.94-1.49-9.49c2.25-1.51,4.41-0.7,5.59,0.01c-0.18-2.1-0.41-6.47,0.7-7.98
						c0.92-1.26-0.41-3.97-1-4.91c-0.09-0.15-0.1-0.34-0.02-0.49c0.08-0.16,0.24-0.25,0.42-0.26c0.22,0,22.04-0.56,30-5.23
						c0.13-0.08,0.29-0.09,0.44-0.03c0.14,0.06,0.25,0.18,0.29,0.33c0.04,0.14,3.56,13.77,4.89,19.72
						c1.32,5.87,0.47,12.33-2.15,16.45c-1.53,2.41-3.55,3.97-6.02,4.65l3.48,12.42c1.57,5.62,6.32,9.82,12.1,10.69
						c0.19,0.03,0.34,0.16,0.4,0.35c0.05,0.18,0,0.38-0.15,0.51l-17.05,14.97C256.37,271.09,256.26,271.13,256.14,271.13z
						 M217.71,257.5l38.32,12.59l16.08-14.12c-5.69-1.24-10.3-5.55-11.88-11.21l-3.61-12.9c-0.04-0.13-0.02-0.27,0.05-0.38
						c0.07-0.12,0.18-0.2,0.32-0.23c2.44-0.54,4.42-2,5.91-4.34c2.49-3.91,3.28-10.08,2.02-15.71c-1.17-5.21-4.02-16.34-4.73-19.07
						c-7.7,4.07-25.08,4.89-29.1,5.03c0.63,1.24,1.67,3.75,0.55,5.28c-0.99,1.35-0.63,6.5-0.41,8.37c0.02,0.21-0.08,0.4-0.27,0.5
						c-0.18,0.09-0.41,0.06-0.56-0.08c-0.1-0.1-2.62-2.39-5.3-0.58c-1.16,0.78,0.04,4.73,1.82,8.23c1.16,2.28,3.54,2.93,4.01,3.03
						c0.08-0.01,0.18,0,0.29,0.04c0.33,0.11,0.87,0.48,1.68,2.41c0.04,0.09,0.05,0.19,0.03,0.28l-3.28,17.27
						C228.35,248.74,223.92,254.49,217.71,257.5z M231.16,222.83C231.16,222.83,231.16,222.83,231.16,222.83
						C231.16,222.83,231.16,222.83,231.16,222.83z M231.17,222.82C231.17,222.82,231.17,222.82,231.17,222.82
						C231.17,222.82,231.17,222.82,231.17,222.82z M231.17,222.82C231.17,222.82,231.17,222.82,231.17,222.82
						C231.17,222.82,231.17,222.82,231.17,222.82z"/>
				</g>
				<path d="M250.43,233.12c-3.1,0-5.79-0.68-8.05-2.04c-4.31-2.6-5.36-6.72-5.41-6.89c-0.06-0.26,0.1-0.53,0.36-0.59
					c0.26-0.07,0.53,0.1,0.59,0.36c0.01,0.04,1.01,3.92,4.98,6.3c3.52,2.12,8.25,2.45,14.06,1c0.26-0.07,0.53,0.09,0.6,0.36
					c0.07,0.26-0.09,0.53-0.36,0.6C254.77,232.81,252.5,233.12,250.43,233.12z"/>
			</g>
		</g>
		<path class="st2" d="M174.24,415.72c-0.24,0-0.46-0.18-0.49-0.43c-0.03-0.27,0.16-0.52,0.43-0.55l135.55-17.29
			c0.27-0.03,0.52,0.16,0.55,0.43c0.03,0.27-0.16,0.52-0.43,0.55L174.3,415.72C174.28,415.72,174.26,415.72,174.24,415.72z"/>
	</g>
	<g>
		<g>
			<g>
				
					<ellipse transform="matrix(0.6298 -0.7768 0.7768 0.6298 -1.7057 312.5349)" class="st1" cx="327.03" cy="158.06" rx="22.36" ry="22.36"/>
				<path d="M327.05,180.91c-1.18,0-2.38-0.09-3.59-0.28c-6.03-0.95-11.33-4.2-14.91-9.14c-3.59-4.94-5.04-10.98-4.08-17.01
					c0.95-6.03,4.2-11.33,9.14-14.91c4.94-3.59,10.98-5.04,17.01-4.08c6.03,0.95,11.33,4.2,14.91,9.14
					c3.59,4.94,5.04,10.98,4.08,17.01C347.82,172.87,338.08,180.91,327.05,180.91z M326.99,136.18c-4.58,0-9.03,1.44-12.81,4.18
					c-4.73,3.43-7.83,8.5-8.75,14.27c-0.91,5.77,0.47,11.55,3.91,16.28c3.43,4.73,8.5,7.83,14.27,8.75
					c11.91,1.88,23.14-6.27,25.02-18.18c0.91-5.77-0.47-11.55-3.91-16.28c-3.43-4.73-8.5-7.83-14.27-8.75
					C329.29,136.27,328.14,136.18,326.99,136.18z"/>
			</g>
		</g>
		<g>
			<g>
				
					<rect x="358.5" y="160.44" transform="matrix(0.9877 0.1564 -0.1564 0.9877 30.246 -58.8289)" class="st1" width="60.93" height="4.69"/>
				<path d="M418.69,170.36c-0.03,0-0.05,0-0.08-0.01l-60.18-9.53c-0.27-0.04-0.45-0.29-0.41-0.56l0.73-4.64
					c0.02-0.13,0.09-0.24,0.2-0.32c0.11-0.08,0.24-0.11,0.37-0.09l60.18,9.53c0.13,0.02,0.24,0.09,0.32,0.2
					c0.08,0.11,0.11,0.24,0.09,0.37l-0.73,4.63C419.13,170.19,418.92,170.36,418.69,170.36z M359.07,159.94l59.21,9.37l0.58-3.66
					l-59.21-9.37L359.07,159.94z"/>
			</g>
			<g>
				
					<rect x="356.93" y="170.34" transform="matrix(0.9877 0.1564 -0.1564 0.9877 31.7747 -58.4618)" class="st1" width="60.93" height="4.69"/>
				<path d="M417.12,180.26c-0.03,0-0.05,0-0.08-0.01l-60.18-9.53c-0.13-0.02-0.24-0.09-0.32-0.2c-0.08-0.11-0.11-0.24-0.09-0.37
					l0.73-4.63c0.04-0.27,0.3-0.45,0.56-0.41l60.18,9.53c0.13,0.02,0.24,0.09,0.32,0.2c0.08,0.11,0.11,0.24,0.09,0.37l-0.73,4.63
					C417.56,180.09,417.36,180.26,417.12,180.26z M357.5,169.83l59.21,9.37l0.58-3.66l-59.21-9.37L357.5,169.83z"/>
			</g>
		</g>
	</g>
	<g>
		<path d="M151.72,206.01c-0.03,0-0.06,0-0.09-0.01c-0.27-0.05-0.45-0.3-0.4-0.57c0.02-0.14,2.67-14.56,15.74-31.18
			c7.67-9.75,17.38-18.34,28.86-25.55c14.34-9,31.49-15.85,50.99-20.35c0.26-0.06,0.53,0.1,0.59,0.37c0.06,0.26-0.1,0.53-0.37,0.59
			c-43.89,10.14-67.34,30.37-79.29,45.56c-12.92,16.42-15.52,30.6-15.54,30.74C152.16,205.85,151.95,206.01,151.72,206.01z"/>
		<path d="M157.65,229.87c-0.01,0-0.02,0-0.04,0c-0.27-0.02-0.47-0.25-0.46-0.52c0.01-0.1,0.79-10.6,5.28-23.48
			c4.14-11.9,12.38-28.34,28.1-39.09c0.22-0.15,0.53-0.1,0.68,0.13c0.15,0.22,0.1,0.53-0.13,0.68
			c-29.68,20.29-32.92,61.42-32.95,61.83C158.12,229.67,157.9,229.87,157.65,229.87z"/>
		<path d="M474.45,424.24c-0.1,0-0.21-0.03-0.3-0.1c-0.22-0.17-0.26-0.47-0.09-0.69c0.22-0.29,22.12-29.1,32.29-61.48
			c0.08-0.26,0.36-0.4,0.62-0.32c0.26,0.08,0.4,0.36,0.32,0.62c-10.23,32.54-32.23,61.49-32.45,61.78
			C474.74,424.17,474.6,424.24,474.45,424.24z"/>
		<path d="M466.81,449.17c-0.12,0-0.24-0.04-0.34-0.13c-0.2-0.19-0.21-0.5-0.02-0.69c15.04-15.99,29.74-40.78,29.89-41.03
			c0.14-0.23,0.44-0.31,0.67-0.17c0.23,0.14,0.31,0.44,0.17,0.67c-0.15,0.25-14.9,25.13-30.02,41.2
			C467.07,449.12,466.94,449.17,466.81,449.17z"/>
		<path d="M260.58,132c-2.84,0-5.15-2.31-5.15-5.15c0-2.84,2.31-5.15,5.15-5.15c2.84,0,5.15,2.31,5.15,5.15
			C265.73,129.69,263.42,132,260.58,132z M260.58,122.69c-2.3,0-4.17,1.87-4.17,4.17c0,2.3,1.87,4.17,4.17,4.17
			c2.3,0,4.17-1.87,4.17-4.17C264.75,124.56,262.88,122.69,260.58,122.69z"/>
		<path d="M143.53,471.35c-2.73,0-4.95-2.22-4.95-4.95c0-2.73,2.22-4.95,4.95-4.95s4.95,2.22,4.95,4.95
			C148.48,469.13,146.26,471.35,143.53,471.35z M143.53,462.43c-2.19,0-3.97,1.78-3.97,3.97c0,2.19,1.78,3.97,3.97,3.97
			c2.19,0,3.97-1.78,3.97-3.97C147.5,464.21,145.72,462.43,143.53,462.43z"/>
		<path d="M478.82,210.93h-12.01c-0.15,0-0.28-0.06-0.38-0.18c-0.09-0.11-0.13-0.26-0.11-0.4l2.12-12.16
			c0.03-0.19,0.17-0.34,0.36-0.39c0.19-0.05,0.38,0.02,0.51,0.17l9.89,12.16c0.12,0.15,0.14,0.35,0.06,0.52
			C479.18,210.82,479.01,210.93,478.82,210.93z M467.39,209.95h10.39l-8.55-10.53L467.39,209.95z"/>
	</g>
	<g>
		<g>
			<path d="M238.02,208.26c1.7-2.07,4.56-3.31,7.12-2.06c0.36,0.18,0.81,0.1,1.03-0.27c0.19-0.33,0.1-0.85-0.27-1.03
				c-3.15-1.54-6.79-0.34-8.94,2.29c-0.26,0.31-0.31,0.75,0,1.06C237.23,208.52,237.76,208.57,238.02,208.26L238.02,208.26z"/>
		</g>
	</g>
	<g>
		<g>
			<path d="M259.39,203.01c-2.99-1.79-6.7-0.9-9.02,1.57c-0.66,0.7,0.4,1.77,1.06,1.06c1.86-1.98,4.77-2.79,7.2-1.33
				C259.46,204.8,260.22,203.5,259.39,203.01L259.39,203.01z"/>
		</g>
	</g>
	<g>
		<g>
			<path d="M242.82,217.11c2.71,0.37,5.46,0.1,8.15-0.3c2.75-0.41,5.49-1.01,8.16-1.79c-0.31-0.31-0.62-0.62-0.92-0.92
				c-0.66,2.32-1.31,4.65-1.99,6.97c-0.3,1.03-0.68,1.96-1.88,2.07c-0.91,0.08-1.88-0.18-2.74-0.43c-3.59-1.03-6.64-3.53-8.41-6.8
				c-0.46-0.85-1.75-0.09-1.3,0.76c2.06,3.82,5.77,6.69,10.01,7.67c2.15,0.5,4.43,0.48,5.4-1.84c0.49-1.16,0.76-2.43,1.1-3.64
				c0.41-1.45,0.83-2.91,1.24-4.36c0.16-0.54-0.37-1.08-0.92-0.92c-2.51,0.73-5.07,1.3-7.65,1.71c-2.56,0.4-5.28,0.73-7.86,0.38
				C242.28,215.54,241.87,216.99,242.82,217.11L242.82,217.11z"/>
		</g>
	</g>
</g>
</svg>
