<?xml version="1.0" encoding="utf-8"?>
<!-- Generator: Adobe Illustrator 25.0.0, SVG Export Plug-In . SVG Version: 6.00 Build 0)  -->
<svg version="1.1" id="Capa_1" xmlns="http://www.w3.org/2000/svg" xmlns:xlink="http://www.w3.org/1999/xlink" x="0px" y="0px"
	 viewBox="0 0 612 792" style="enable-background:new 0 0 612 792;" xml:space="preserve">
<style type="text/css">
	.st0{fill:#EEE6E0;}
	.st1{fill:#FFFFFF;}
	.st2{fill:#2B2625;}
	.st3{fill:#424040;}
	.st4{fill:#1A1A1A;}
	.st5{fill:#666161;}
	.st6{fill:#4C4747;}
	.st7{fill:#EDD3CE;}
	.st8{fill:#E8DCDA;}
	.st9{fill:#333333;}
	.st10{clip-path:url(#SVGID_2_);}
	.st11{clip-path:url(#SVGID_6_);}
	.st12{clip-path:url(#SVGID_7_);}
	.st13{clip-path:url(#SVGID_8_);}
	.st14{fill:#FF92C9;}
</style>
<g>
	<g>
		<circle class="st0" cx="301.57" cy="383.53" r="217.01"/>
	</g>
	<g>
		<g>
			<g>
				<path class="st1" d="M341.31,509.65l-138.69-93.12c-5.25-3.53-12.34-2.36-16.19,2.66l-44.45,57.99
					c-4.19,5.47-2.92,13.33,2.78,17.2l146.04,99.2c5.75,3.91,13.61,2.11,17.1-3.91L345,525.6
					C348.16,520.14,346.55,513.16,341.31,509.65z"/>
			</g>
			<g>
				<path class="st2" d="M297.55,598.43c-2.94,0-5.85-0.88-8.32-2.55l-146.03-99.2c-3.4-2.31-5.63-5.81-6.28-9.86
					c-0.65-4.05,0.36-8.08,2.86-11.34l44.45-57.99c4.73-6.17,13.5-7.61,19.96-3.28l138.69,93.12c6.43,4.32,8.43,12.96,4.55,19.66
					l-37.1,64.07c-2.05,3.54-5.51,6.09-9.49,7C299.74,598.31,298.64,598.43,297.55,598.43z M195.95,417.29
					c-2.77,0-5.51,1.25-7.31,3.6l-44.45,57.99c-1.55,2.03-2.19,4.53-1.78,7.06c0.41,2.52,1.8,4.7,3.91,6.14l146.03,99.2
					c2.14,1.45,4.7,1.93,7.21,1.36c2.52-0.57,4.61-2.12,5.91-4.35l37.1-64.07c2.42-4.17,1.17-9.55-2.83-12.24l0,0l-138.69-93.12
					C199.5,417.8,197.72,417.29,195.95,417.29z"/>
			</g>
		</g>
		<g>
			<path class="st3" d="M328.92,533.33l-3.74,6.15l-7.27,11.96l-6.81,11.19L300.53,580c-1.31,2.16-3.89,3.06-6.18,2.35
				c-0.49-0.15-0.97-0.37-1.42-0.68l-139.29-93.59c-2.57-1.74-3.15-5.28-1.27-7.74l4.53-5.92l7.79-10.19l1.05-1.38l6.21-8.12
				l9.21-12.05l2.9-5.95c1.69-2.2,4.77-2.77,7.12-1.3l136,90.53C329.68,527.52,330.46,530.81,328.92,533.33z"/>
		</g>
		<g>
			<g>
				<path class="st2" d="M303.05,575.17c-0.35,0-0.7-0.1-1.02-0.31l-146.66-99.04c-0.83-0.56-1.05-1.69-0.49-2.52
					c0.56-0.83,1.69-1.05,2.52-0.49l146.66,99.04c0.83,0.56,1.05,1.69,0.49,2.52C304.21,574.89,303.63,575.17,303.05,575.17z"/>
			</g>
			<g>
				<path class="st2" d="M309.84,565.44c-0.35,0-0.7-0.1-1.02-0.31L163.4,466.92c-0.83-0.56-1.05-1.69-0.49-2.52
					c0.56-0.83,1.69-1.05,2.52-0.49l145.42,98.21c0.83,0.56,1.05,1.69,0.49,2.52C310.99,565.16,310.42,565.44,309.84,565.44z"/>
			</g>
			<g>
				<path class="st2" d="M316.71,553.42c-0.36,0-0.72-0.1-1.03-0.32l-143.19-98.95c-0.83-0.57-1.03-1.7-0.46-2.53
					c0.57-0.83,1.7-1.03,2.53-0.46l143.19,98.95c0.83,0.57,1.03,1.7,0.46,2.53C317.85,553.15,317.28,553.42,316.71,553.42z"/>
			</g>
			<g>
				<path class="st2" d="M325.18,541.3c-0.35,0-0.7-0.1-1.01-0.31L180.14,444.2c-0.83-0.56-1.05-1.69-0.49-2.52
					c0.56-0.83,1.69-1.05,2.52-0.49l144.03,96.79c0.83,0.56,1.05,1.69,0.49,2.52C326.34,541.01,325.76,541.3,325.18,541.3z"/>
			</g>
			<g>
				<path class="st2" d="M288.13,550.78c-0.34,0-0.69-0.1-0.99-0.3c-0.84-0.55-1.08-1.67-0.53-2.51l7.7-11.78
					c0.55-0.84,1.67-1.07,2.51-0.53c0.84,0.55,1.08,1.67,0.53,2.51l-7.7,11.78C289.31,550.49,288.73,550.78,288.13,550.78z"/>
			</g>
			<g>
				<path class="st2" d="M289.05,564.88c-0.34,0-0.69-0.1-0.99-0.3c-0.84-0.55-1.08-1.67-0.53-2.51l6.11-9.35
					c0.55-0.84,1.68-1.07,2.51-0.53c0.84,0.55,1.08,1.67,0.53,2.51l-6.12,9.35C290.22,564.59,289.64,564.88,289.05,564.88z"/>
			</g>
			<g>
				<path class="st2" d="M301.45,541.41c-0.34,0-0.69-0.1-0.99-0.3c-0.84-0.55-1.08-1.67-0.53-2.51l6.12-9.35
					c0.55-0.84,1.68-1.07,2.51-0.53c0.84,0.55,1.08,1.67,0.53,2.51l-6.11,9.35C302.62,541.12,302.04,541.41,301.45,541.41z"/>
			</g>
			<g>
				<path class="st2" d="M313.65,532.96c-0.34,0-0.69-0.1-0.99-0.3c-0.84-0.55-1.08-1.67-0.53-2.51l6.11-9.35
					c0.55-0.84,1.67-1.08,2.51-0.53c0.84,0.55,1.08,1.67,0.53,2.51l-6.12,9.35C314.82,532.67,314.24,532.96,313.65,532.96z"/>
			</g>
			<g>
				<path class="st2" d="M287.85,532.06c-0.34,0-0.69-0.1-0.99-0.3c-0.84-0.55-1.08-1.67-0.53-2.51l6.11-9.35
					c0.55-0.84,1.68-1.08,2.51-0.53c0.84,0.55,1.08,1.67,0.53,2.51l-6.11,9.35C289.03,531.77,288.45,532.06,287.85,532.06z"/>
			</g>
			<g>
				<path class="st2" d="M274.26,522.71c-0.34,0-0.69-0.1-0.99-0.3c-0.84-0.55-1.08-1.67-0.53-2.51l6.11-9.35
					c0.55-0.84,1.68-1.07,2.51-0.53c0.84,0.55,1.08,1.67,0.53,2.51l-6.12,9.35C275.43,522.42,274.85,522.71,274.26,522.71z"/>
			</g>
			<g>
				<path class="st2" d="M260.67,513.36c-0.34,0-0.69-0.1-0.99-0.3c-0.84-0.55-1.08-1.67-0.53-2.51l6.12-9.35
					c0.55-0.84,1.67-1.07,2.51-0.53c0.84,0.55,1.08,1.67,0.53,2.51l-6.12,9.35C261.84,513.07,261.26,513.36,260.67,513.36z"/>
			</g>
			<g>
				<path class="st2" d="M247.07,504.01c-0.34,0-0.69-0.1-0.99-0.3c-0.84-0.55-1.08-1.67-0.53-2.51l6.11-9.35
					c0.55-0.84,1.68-1.07,2.51-0.53c0.84,0.55,1.08,1.67,0.53,2.51l-6.11,9.35C248.24,503.73,247.66,504.01,247.07,504.01z"/>
			</g>
			<g>
				<path class="st2" d="M233.48,494.67c-0.34,0-0.69-0.1-0.99-0.3c-0.84-0.55-1.08-1.67-0.53-2.51l6.11-9.35
					c0.55-0.84,1.68-1.07,2.51-0.53c0.84,0.55,1.08,1.67,0.53,2.51l-6.12,9.35C234.65,494.38,234.07,494.67,233.48,494.67z"/>
			</g>
			<g>
				<path class="st2" d="M218.53,485.48c-0.34,0-0.69-0.1-0.99-0.3c-0.84-0.55-1.08-1.67-0.53-2.51l6.11-9.35
					c0.55-0.84,1.67-1.07,2.51-0.53c0.84,0.55,1.08,1.67,0.53,2.51l-6.11,9.35C219.71,485.19,219.12,485.48,218.53,485.48z"/>
			</g>
			<g>
				<path class="st2" d="M206.06,476.13c-0.34,0-0.69-0.1-0.99-0.3c-0.84-0.55-1.08-1.67-0.53-2.51l6.11-9.35
					c0.55-0.84,1.67-1.08,2.51-0.53c0.84,0.55,1.08,1.67,0.53,2.51l-6.11,9.35C207.24,475.84,206.66,476.13,206.06,476.13z"/>
			</g>
			<g>
				<path class="st2" d="M194.4,453.76c-0.34,0-0.69-0.1-0.99-0.3c-0.84-0.55-1.08-1.67-0.53-2.51l6.12-9.35
					c0.55-0.84,1.68-1.07,2.51-0.53c0.84,0.55,1.08,1.67,0.53,2.51l-6.11,9.35C195.57,453.47,194.99,453.76,194.4,453.76z"/>
			</g>
			<g>
				<path class="st2" d="M206.06,461.38c-0.34,0-0.69-0.1-0.99-0.3c-0.84-0.55-1.08-1.67-0.53-2.51l6.11-9.35
					c0.55-0.84,1.67-1.07,2.51-0.53c0.84,0.55,1.08,1.67,0.53,2.51l-6.11,9.35C207.24,461.09,206.66,461.38,206.06,461.38z"/>
			</g>
			<g>
				<path class="st2" d="M217.73,468.99c-0.34,0-0.69-0.1-0.99-0.3c-0.84-0.55-1.08-1.67-0.53-2.51l6.12-9.35
					c0.55-0.84,1.68-1.07,2.51-0.53c0.84,0.55,1.08,1.67,0.53,2.51l-6.11,9.35C218.9,468.7,218.32,468.99,217.73,468.99z"/>
			</g>
			<g>
				<path class="st2" d="M301.45,524.48c-0.34,0-0.69-0.1-0.99-0.3c-0.84-0.55-1.08-1.67-0.53-2.51l6.12-9.35
					c0.55-0.84,1.68-1.07,2.51-0.53c0.84,0.55,1.08,1.67,0.53,2.51l-6.11,9.35C302.62,524.2,302.04,524.48,301.45,524.48z"/>
			</g>
			<g>
				<path class="st2" d="M192.31,465.33c-0.34,0-0.69-0.1-0.99-0.3c-0.84-0.55-1.08-1.67-0.53-2.51l6.12-9.35
					c0.55-0.84,1.67-1.07,2.51-0.53s1.08,1.67,0.53,2.51l-6.12,9.35C193.48,465.04,192.9,465.33,192.31,465.33z"/>
			</g>
			<g>
				<path class="st2" d="M285.99,578.98c-0.34,0-0.69-0.1-0.99-0.3c-0.84-0.55-1.08-1.67-0.53-2.51l6.11-9.35
					c0.55-0.84,1.68-1.07,2.51-0.53c0.84,0.55,1.08,1.67,0.53,2.51l-6.11,9.35C287.16,578.69,286.58,578.98,285.99,578.98z"/>
			</g>
			<g>
				<path class="st2" d="M270.62,568.42c-0.34,0-0.69-0.1-0.99-0.3c-0.84-0.55-1.08-1.67-0.53-2.51l6.11-9.35
					c0.55-0.84,1.68-1.07,2.51-0.53c0.84,0.55,1.08,1.67,0.53,2.51l-6.11,9.35C271.79,568.13,271.21,568.42,270.62,568.42z"/>
			</g>
			<g>
				<path class="st2" d="M255.24,557.86c-0.34,0-0.69-0.1-0.99-0.3c-0.84-0.55-1.08-1.67-0.53-2.51l6.11-9.35
					c0.55-0.84,1.67-1.08,2.51-0.53c0.84,0.55,1.08,1.67,0.53,2.51l-6.12,9.35C256.42,557.57,255.83,557.86,255.24,557.86z"/>
			</g>
			<g>
				<path class="st2" d="M239.87,547.3c-0.34,0-0.69-0.1-0.99-0.3c-0.84-0.55-1.08-1.67-0.53-2.51l6.11-9.35
					c0.55-0.84,1.67-1.07,2.51-0.53c0.84,0.55,1.08,1.67,0.53,2.51l-6.11,9.35C241.04,547.01,240.46,547.3,239.87,547.3z"/>
			</g>
			<g>
				<path class="st2" d="M224.49,536.74c-0.34,0-0.69-0.1-0.99-0.3c-0.84-0.55-1.08-1.67-0.53-2.51l6.11-9.35
					c0.55-0.84,1.68-1.07,2.51-0.53c0.84,0.55,1.08,1.67,0.53,2.51l-6.11,9.35C225.67,536.45,225.09,536.74,224.49,536.74z"/>
			</g>
			<g>
				<path class="st2" d="M209.12,526.17c-0.34,0-0.69-0.1-0.99-0.3c-0.84-0.55-1.08-1.67-0.53-2.51l6.11-9.35
					c0.55-0.84,1.67-1.07,2.51-0.53c0.84,0.55,1.08,1.67,0.53,2.51l-6.11,9.35C210.29,525.89,209.71,526.17,209.12,526.17z"/>
			</g>
			<g>
				<path class="st2" d="M193.75,515.61c-0.34,0-0.69-0.1-0.99-0.3c-0.84-0.55-1.08-1.67-0.53-2.51l6.11-9.35
					c0.55-0.84,1.68-1.07,2.51-0.53c0.84,0.55,1.08,1.67,0.53,2.51l-6.11,9.35C194.92,515.33,194.34,515.61,193.75,515.61z"/>
			</g>
			<g>
				<path class="st2" d="M178.37,505.05c-0.34,0-0.69-0.1-0.99-0.3c-0.84-0.55-1.08-1.67-0.53-2.51l6.11-9.35
					c0.55-0.84,1.67-1.07,2.51-0.53c0.84,0.55,1.08,1.67,0.53,2.51l-6.11,9.35C179.54,504.76,178.96,505.05,178.37,505.05z"/>
			</g>
			<g>
				<path class="st2" d="M163,494.49c-0.34,0-0.69-0.1-0.99-0.3c-0.84-0.55-1.08-1.67-0.53-2.51l6.11-9.35
					c0.55-0.84,1.68-1.08,2.51-0.53c0.84,0.55,1.08,1.67,0.53,2.51l-6.11,9.35C164.17,494.2,163.59,494.49,163,494.49z"/>
			</g>
			<g>
				<path class="st2" d="M273.47,554.24c-0.34,0-0.69-0.1-0.99-0.3c-0.84-0.55-1.08-1.67-0.53-2.51l6.11-9.35
					c0.55-0.84,1.67-1.07,2.51-0.53s1.08,1.67,0.53,2.51l-6.11,9.35C274.64,553.95,274.06,554.24,273.47,554.24z"/>
			</g>
			<g>
				<path class="st2" d="M258.59,544.74c-0.34,0-0.69-0.1-0.99-0.3c-0.84-0.55-1.08-1.67-0.53-2.51l6.11-9.35
					c0.55-0.84,1.68-1.07,2.51-0.53c0.84,0.55,1.08,1.67,0.53,2.51l-6.11,9.35C259.77,544.45,259.19,544.74,258.59,544.74z"/>
			</g>
			<g>
				<path class="st2" d="M242.54,534.02c-0.34,0-0.69-0.1-0.99-0.3c-0.84-0.55-1.08-1.67-0.53-2.51l6.11-9.35
					c0.55-0.84,1.68-1.08,2.51-0.53c0.84,0.55,1.08,1.67,0.53,2.51l-6.11,9.35C243.72,533.73,243.14,534.02,242.54,534.02z"/>
			</g>
			<g>
				<path class="st2" d="M226.5,523.3c-0.34,0-0.69-0.1-0.99-0.3c-0.84-0.55-1.08-1.67-0.53-2.51l6.12-9.35
					c0.55-0.84,1.68-1.07,2.51-0.53c0.84,0.55,1.08,1.67,0.53,2.51l-6.12,9.35C227.67,523.01,227.09,523.3,226.5,523.3z"/>
			</g>
			<g>
				<path class="st2" d="M210.45,512.58c-0.34,0-0.69-0.1-0.99-0.3c-0.84-0.55-1.08-1.67-0.53-2.51l6.11-9.35
					c0.55-0.84,1.67-1.07,2.51-0.53c0.84,0.55,1.08,1.67,0.53,2.51l-6.11,9.35C211.62,512.29,211.04,512.58,210.45,512.58z"/>
			</g>
			<g>
				<path class="st2" d="M194.4,501.86c-0.34,0-0.69-0.1-0.99-0.3c-0.84-0.55-1.08-1.67-0.53-2.51l6.12-9.35
					c0.55-0.84,1.68-1.07,2.51-0.53c0.84,0.55,1.08,1.67,0.53,2.51l-6.11,9.35C195.57,501.57,194.99,501.86,194.4,501.86z"/>
			</g>
			<g>
				<path class="st2" d="M178.35,491.14c-0.34,0-0.69-0.1-0.99-0.3c-0.84-0.55-1.08-1.67-0.53-2.51l6.11-9.35
					c0.55-0.84,1.67-1.07,2.51-0.53s1.08,1.67,0.53,2.51l-6.11,9.35C179.52,490.86,178.94,491.14,178.35,491.14z"/>
			</g>
			<g>
				<path class="st2" d="M164.41,480.8c-0.34,0-0.69-0.1-0.99-0.3c-0.84-0.55-1.08-1.67-0.53-2.51l6.12-9.35
					c0.55-0.84,1.67-1.07,2.51-0.53c0.84,0.55,1.08,1.67,0.53,2.51l-6.11,9.35C165.59,480.51,165.01,480.8,164.41,480.8z"/>
			</g>
			<g>
				<path class="st2" d="M272.67,540.06c-0.34,0-0.69-0.1-0.99-0.3c-0.84-0.55-1.08-1.67-0.53-2.51l7.7-11.78
					c0.55-0.84,1.67-1.07,2.51-0.53s1.08,1.67,0.53,2.51l-7.7,11.78C273.84,539.77,273.26,540.06,272.67,540.06z"/>
			</g>
			<g>
				<path class="st2" d="M257.21,529.34c-0.34,0-0.69-0.1-0.99-0.3c-0.84-0.55-1.08-1.67-0.53-2.51l7.7-11.78
					c0.55-0.84,1.67-1.07,2.51-0.53c0.84,0.55,1.08,1.67,0.53,2.51l-7.7,11.78C258.38,529.05,257.8,529.34,257.21,529.34z"/>
			</g>
			<g>
				<path class="st2" d="M241.75,518.63c-0.34,0-0.69-0.1-0.99-0.3c-0.84-0.55-1.08-1.67-0.53-2.51l7.7-11.78
					c0.55-0.84,1.68-1.07,2.51-0.53c0.84,0.55,1.08,1.67,0.53,2.51l-7.7,11.78C242.92,518.34,242.34,518.63,241.75,518.63z"/>
			</g>
			<g>
				<path class="st2" d="M226.29,507.91c-0.34,0-0.69-0.1-0.99-0.3c-0.84-0.55-1.08-1.67-0.53-2.51l7.7-11.78
					c0.55-0.84,1.67-1.07,2.51-0.53c0.84,0.55,1.08,1.67,0.53,2.51l-7.7,11.78C227.46,507.62,226.88,507.91,226.29,507.91z"/>
			</g>
			<g>
				<path class="st2" d="M210.83,497.19c-0.34,0-0.69-0.1-0.99-0.3c-0.84-0.55-1.08-1.67-0.53-2.51l7.7-11.78
					c0.55-0.84,1.67-1.07,2.51-0.53c0.84,0.55,1.08,1.67,0.53,2.51l-7.7,11.78C212,496.9,211.42,497.19,210.83,497.19z"/>
			</g>
			<g>
				<path class="st2" d="M195.37,486.47c-0.34,0-0.69-0.1-0.99-0.3c-0.84-0.55-1.08-1.67-0.53-2.51l7.7-11.78
					c0.55-0.84,1.68-1.07,2.51-0.53c0.84,0.55,1.08,1.67,0.53,2.51l-7.7,11.78C196.54,486.18,195.96,486.47,195.37,486.47z"/>
			</g>
			<g>
				<path class="st2" d="M179.91,475.75c-0.34,0-0.69-0.1-0.99-0.3c-0.84-0.55-1.08-1.67-0.53-2.51l7.7-11.78
					c0.55-0.84,1.68-1.07,2.51-0.53c0.84,0.55,1.08,1.67,0.53,2.51l-7.7,11.78C181.08,475.46,180.5,475.75,179.91,475.75z"/>
			</g>
			<g>
				<path class="st2" d="M295.91,585.14c-1.55,0-3.07-0.46-4.4-1.35l-139.28-93.6c-1.81-1.21-3.05-3.14-3.4-5.29
					c-0.35-2.14,0.2-4.35,1.5-6.07l31.66-43.58c2.53-3.31,7.04-4.14,10.53-1.96l136.06,90.57c3.61,2.25,4.76,7.11,2.52,10.81
					l-28.4,46.67c-1.14,1.87-2.94,3.15-5.07,3.62C297.06,585.07,296.48,585.14,295.91,585.14z M188.34,437.15
					c-0.85,0-1.71,0.39-2.27,1.13l-31.64,43.55c-0.01,0.02-0.02,0.03-0.04,0.05c-0.48,0.63-0.67,1.41-0.55,2.19
					c0.13,0.78,0.56,1.46,1.22,1.9l139.28,93.6c0.65,0.44,1.43,0.58,2.19,0.42c0.77-0.17,1.41-0.63,1.82-1.3l28.4-46.67
					c0.81-1.32,0.39-3.07-0.93-3.89l-136.06-90.57C189.33,437.28,188.84,437.15,188.34,437.15z M152.37,480.34L152.37,480.34
					L152.37,480.34z"/>
			</g>
		</g>
	</g>
	<g>
		<g>
			<path class="st1" d="M302.24,602.66l-19.31,45.52c-0.1,0.24-0.22,0.47-0.36,0.68c-0.68,1.11-1.77,1.93-3.04,2.27l-1.09,0.29
				c-1.5,0.4-3.1,0.1-4.35-0.81L78.66,508.24c-1.87-1.37-2.59-3.83-1.76-5.99c0.01-0.02,0.01-0.04,0.02-0.07l0.59-1.49
				c0.66-1.65,2.12-2.83,3.87-3.15l54.71-9.72c1.31-0.23,2.66,0.05,3.76,0.79L300.37,596.4C302.42,597.77,303.2,600.4,302.24,602.66
				z"/>
		</g>
		<g>
			<path class="st1" d="M282.57,648.87c-0.68,1.11-1.77,1.93-3.04,2.27l-1.09,0.29c-1.5,0.4-3.1,0.1-4.35-0.81L78.66,508.24
				c-1.87-1.37-2.59-3.83-1.76-5.99c1.09-1.44,1.87-2.44,1.87-2.44L282.57,648.87z"/>
		</g>
		<g>
			<path class="st2" d="M277.1,654.45c-1.67,0-3.3-0.52-4.69-1.53L76.98,510.54c-2.95-2.15-4.06-6.02-2.71-9.41l0.6-1.49
				c1.03-2.58,3.28-4.4,6.01-4.89l54.72-9.72c2.04-0.36,4.12,0.07,5.84,1.23l0,0l160.52,107.77c3.17,2.13,4.39,6.22,2.9,9.74
				l-19.31,45.52c-0.97,2.28-2.89,3.95-5.29,4.59l-1.09,0.29C278.49,654.36,277.79,654.45,277.1,654.45z M137,490.6
				c-0.13,0-0.27,0.01-0.4,0.04l-54.72,9.72c-0.78,0.14-1.43,0.66-1.72,1.4l-0.6,1.49c-0.39,0.97-0.07,2.08,0.78,2.69l195.43,142.38
				c0.56,0.41,1.27,0.54,1.93,0.36l1.09-0.29c0.69-0.18,1.24-0.66,1.51-1.31l19.31-45.52c0.43-1.01,0.08-2.18-0.83-2.79
				L138.27,490.99C137.89,490.73,137.45,490.6,137,490.6z"/>
		</g>
		<g>
			<path class="st4" d="M292.52,602.7l-15.38,30.76c-0.56,1.12-1.98,1.47-2.99,0.73l-21.57-15.75l-28.02-20.47l-21.59-15.77
				l-46.14-33.7l-58.74-42.91c-0.86-0.63-0.56-1.98,0.49-2.17l38.36-7.17c0.52-0.09,1.06,0.01,1.5,0.31l16.11,10.88l45.99,31.04
				l21.52,14.53l27.93,18.85l41.86,28.26C292.69,600.69,292.98,601.79,292.52,602.7z"/>
		</g>
		<g>
			<path class="st2" d="M275.33,636.76c-0.88,0-1.75-0.28-2.48-0.81L96.8,507.35c-1.09-0.8-1.61-2.17-1.31-3.49
				c0.3-1.32,1.35-2.34,2.69-2.59l38.35-7.17c1.1-0.2,2.2,0.03,3.12,0.65l153.42,103.56c1.74,1.17,2.35,3.48,1.41,5.36l-15.38,30.76
				c-0.55,1.11-1.56,1.91-2.77,2.2C276,636.72,275.66,636.76,275.33,636.76z M275.43,632.43L275.43,632.43L275.43,632.43z
				 M101.17,505.15l174.1,127.17l15.23-30.47L137.26,498.4L101.17,505.15z M99.37,503.83L99.37,503.83L99.37,503.83z"/>
		</g>
	</g>
	<g>
		<g>
			<g>
				<path class="st5" d="M515.68,507.24c-0.25,1.82-0.53,3.62-0.85,5.4c-0.54,2.99-1.21,5.93-1.98,8.79
					c-14.1,52.51-67.01,47.02-69.38,17.26c-0.79-9.96,4.48-18.31,11.33-26.67c6.44-7.85,14.26-15.7,19.77-24.91
					c6.14-10.27,9.39-22.23,4.57-37.76c-4.58-14.76-11.91-24.78-19.63-31.56c-15.43-13.55-32.48-14.22-32.48-14.22l5.09-13.71
					c11.91,0.47,22.47,2.96,31.74,7.03C505.62,415.22,521.32,465.49,515.68,507.24z"/>
			</g>
			<g>
				<path class="st6" d="M459.52,417.79c-15.43-13.55-32.48-14.22-32.48-14.22l5.09-13.71c11.91,0.47,22.47,2.96,31.74,7.03
					C458.43,404.07,458.44,412.09,459.52,417.79z"/>
			</g>
			<g>
				<path class="st1" d="M515.68,507.24c-0.65,4.87-1.6,9.62-2.83,14.19c-14.1,52.51-67.01,47.02-69.38,17.26
					c-1.54-19.32,19.74-32.56,31.11-51.58c6.28-2.03,13.01-2.48,19.86-0.16C505.26,490.6,511.77,498.63,515.68,507.24z"/>
			</g>
			<g>
				<path class="st7" d="M514.83,512.64c-0.54,2.99-1.21,5.93-1.98,8.79c-14.1,52.51-67.01,47.02-69.38,17.26
					c-0.79-9.96,4.48-18.31,11.33-26.67c-3.36,6.39-9.46,22.52,7.5,33.31C477.93,555.29,503.67,537.61,514.83,512.64z"/>
			</g>
			<g>
				<path class="st2" d="M470.41,563.98c-1.1,0-2.18-0.05-3.26-0.15c-14.82-1.36-25.5-11.37-26.58-24.91
					c-1.1-13.83,8.06-24.36,17.76-35.5c12.52-14.38,25.46-29.26,18.03-53.21c-12.97-41.82-49.08-43.71-49.44-43.72
					c-1.6-0.06-2.85-1.41-2.79-3.02c0.06-1.6,1.42-2.85,3.02-2.79c0.42,0.02,10.38,0.47,22.14,6.61
					c10.81,5.65,25.24,17.38,32.63,41.2c8.39,27.05-6.27,43.89-19.2,58.75c-9.26,10.64-17.26,19.83-16.35,31.23
					c0.85,10.62,9.41,18.49,21.32,19.58c15.72,1.45,34.89-9.56,42.36-37.36c8.69-32.36,2.18-70.89-16.2-95.87
					c-14.67-19.94-36.05-31.02-61.83-32.04c-1.6-0.06-2.85-1.42-2.79-3.02c0.06-1.6,1.38-2.85,3.02-2.79
					c27.61,1.09,50.52,12.99,66.28,34.4c19.68,26.74,26.41,66.32,17.14,100.83C507.81,551.42,487.85,563.98,470.41,563.98z"/>
			</g>
		</g>
		<g>
			<g>
				<path class="st5" d="M442.99,431.6c-2.46,20.61-13.74,35.06-19.23,40.99c-1.82,1.97-3,3-3,3s0.01,0.07,0.05,0.21
					c0.01,0.06,0.03,0.13,0.05,0.23c0.01,0.04,0.02,0.09,0.03,0.15c0.02,0.08,0.04,0.17,0.06,0.26c0,0.01,0.01,0.01,0.01,0.02
					c0.02,0.09,0.04,0.2,0.07,0.31c0.01,0.07,0.03,0.14,0.04,0.22c0.01,0.07,0.03,0.13,0.04,0.2c0,0.02,0.01,0.05,0.01,0.07
					c0.01,0.09,0.04,0.19,0.06,0.28c0.04,0.25,0.09,0.52,0.15,0.82c0.01,0.09,0.04,0.17,0.05,0.27c0.02,0.09,0.04,0.18,0.05,0.28
					c0.06,0.29,0.12,0.61,0.17,0.94c0.06,0.33,0.12,0.68,0.17,1.04c0.07,0.44,0.15,0.91,0.23,1.4c0.02,0.17,0.05,0.34,0.07,0.52
					c0.02,0.17,0.05,0.34,0.07,0.52c0.05,0.33,0.09,0.67,0.15,1.01c0,0.02,0,0.04,0.01,0.07c0.07,0.54,0.14,1.12,0.21,1.71v0.01
					c2.07,17.73,1.85,51.68-29.96,52.55c-35.51,0.97-35.12-36.09-33.87-49.18c0.26-2.8,0.57-4.5,0.57-4.5
					c-0.92-0.01-1.82-0.02-2.72-0.04c-4.79-0.11-9.41-0.36-13.88-0.73c-16.31-1.38-30.56-4.52-43-8.95
					c-7.62-2.71-14.56-5.91-20.89-9.48c-8.86-5-16.5-10.75-23.11-16.94c-21.6-20.26-32.04-45.34-37.09-65.04
					c-4.83-18.88-4.71-32.83-4.71-32.83c120.69-29,217.87,31.74,217.87,31.74C442.34,401.3,444.64,417.82,442.99,431.6z"/>
			</g>
			<g>
				<path class="st1" d="M422.52,486.12c2.07,17.73,1.85,51.68-29.96,52.55c-35.51,0.97-35.12-36.09-33.87-49.18
					c0.26-2.8,0.57-4.5,0.57-4.5c-0.92-0.01-1.82-0.02-2.72-0.04c0.44-0.76,0.72-1.23,0.76-1.33c0.15-0.44-7.47-0.51-20.97-2.61
					c-8.64-1.34-19.69-3.52-32.65-7.14c-7.67-2.14-16-4.8-24.9-8.09c-0.08-0.03-0.16-0.06-0.24-0.09
					c-9.85-3.65-17.28-9.64-22.87-16.86c-10.2-13.14-14.31-30.35-15.8-44.79c-1.66-15.98-0.13-28.58-0.13-28.58
					s99.63,17.34,94.64,29.68c-4.26,10.51-10.85,24.43-12.72,28.33c-0.33,0.68-0.51,1.06-0.51,1.06l52.31,46.73
					c30.86,10.58,49.08-9.41,49.08-9.41s0.45,0.25,1.24,0.73c-1.82,1.97-3,3-3,3s0.01,0.07,0.05,0.21c0.01,0.06,0.03,0.13,0.05,0.23
					c0.01,0.04,0.02,0.09,0.03,0.15c0.02,0.08,0.04,0.17,0.06,0.26c0,0.01,0.01,0.01,0.01,0.02c0.02,0.09,0.04,0.2,0.07,0.31
					c0.01,0.07,0.03,0.14,0.04,0.22c0.01,0.07,0.03,0.13,0.04,0.2c0,0.02,0.01,0.05,0.01,0.07c0.01,0.09,0.04,0.19,0.06,0.28
					c0.04,0.25,0.09,0.52,0.15,0.82c0.01,0.09,0.04,0.17,0.05,0.27c0.02,0.09,0.04,0.18,0.05,0.28c0.05,0.3,0.11,0.6,0.17,0.94
					c0.06,0.33,0.12,0.68,0.17,1.04c0.08,0.44,0.15,0.92,0.23,1.4c0.02,0.17,0.05,0.34,0.07,0.52c0.02,0.17,0.05,0.34,0.07,0.52
					c0.05,0.33,0.09,0.67,0.15,1.01c0,0.02,0,0.04,0.01,0.07C422.38,484.95,422.45,485.53,422.52,486.12L422.52,486.12z"/>
			</g>
			<g>
				<path class="st7" d="M360.22,513.89c0,0,9.26,17.34,32.18,16.46c22.92-0.88,29.98-17.93,29.98-17.93s-2.65,26.6-31.01,26.16
					S360.22,513.89,360.22,513.89z"/>
			</g>
			<g>
				<path class="st6" d="M442.99,431.6c-2.46,20.61-13.74,35.06-19.23,40.99c-0.78-0.47-1.24-0.73-1.24-0.73
					s-18.22,19.99-49.08,9.41l-52.31-46.73c0,0,0.18-0.38,0.51-1.06c2.3-0.76,3.6-1.29,3.6-1.29s21.46,27.04,64.37,29.39
					C420.9,463.29,436.72,442.82,442.99,431.6z"/>
			</g>
			<g>
				<path class="st6" d="M255.66,448.83c-21.6-20.26-32.04-45.34-37.09-65.04l14.39-9.51c0,0,0,14.41,6.89,29.75
					C241.35,418.48,245.46,435.69,255.66,448.83z"/>
			</g>
			<g>
				<path class="st7" d="M422.31,484.41c0.07,0.54,0.14,1.12,0.21,1.71v0.01c-8.65,6.3-20.42,9.85-36.43,8.07
					c-10.98-1.22-20-2.85-27.41-4.7c0.26-2.8,0.57-4.5,0.57-4.5c-0.92-0.01-1.82-0.02-2.72-0.04c-4.79-0.11-9.41-0.36-13.88-0.73
					c-2.42-1.06-4.52-2.14-6.34-3.2c-12.37-7.3-11.65-14.44-11.65-14.44l-21,7.29l-4.01,1.4c-7.62-2.71-14.56-5.91-20.89-9.48
					c-8.86-5-16.5-10.75-23.11-16.94c-10.2-13.14-14.31-30.35-15.8-44.79c3.97,8.86,10.25,18.03,20.15,24.91
					c22.04,15.32,51.5,7.82,61.64,4.52c-0.33,0.68-0.51,1.06-0.51,1.06l52.31,46.73c30.86,10.58,49.08-9.41,49.08-9.41
					s0.45,0.25,1.24,0.73c-1.82,1.97-3,3-3,3s0.01,0.07,0.05,0.21c0.01,0.06,0.03,0.13,0.05,0.23c0.01,0.04,0.02,0.09,0.03,0.15
					c0.02,0.08,0.04,0.17,0.06,0.26c0,0.01,0.01,0.01,0.01,0.02c0.02,0.09,0.04,0.2,0.07,0.31c0.01,0.07,0.03,0.14,0.04,0.22
					c0.01,0.07,0.03,0.13,0.04,0.2c0,0.02,0.01,0.05,0.01,0.07c0.01,0.09,0.04,0.19,0.06,0.28c0.04,0.25,0.09,0.52,0.15,0.82
					c0.01,0.09,0.04,0.17,0.05,0.27c0.02,0.09,0.04,0.18,0.05,0.28c0.05,0.3,0.11,0.6,0.17,0.94c0.06,0.33,0.12,0.68,0.17,1.04
					c0.07,0.44,0.15,0.91,0.23,1.4c0.02,0.17,0.05,0.34,0.07,0.52c0.02,0.17,0.05,0.34,0.07,0.52c0.05,0.33,0.09,0.67,0.15,1.01
					C422.3,484.36,422.3,484.38,422.31,484.41z"/>
			</g>
			<g>
				<path class="st2" d="M429.32,470.72c-10,11.43-25.74,17.12-40.74,15.98c-2.6-0.15-2.71-3.91-0.12-4.2
					c7.7-0.36,15.42-1.78,22.39-5.15c5.15-2.58,10.09-5.9,13.9-10.24C427.21,464.15,431.65,467.64,429.32,470.72L429.32,470.72z"/>
			</g>
			<g>
				<path class="st2" d="M380.65,517.52c0.15,5.97,0.44,12.81,3.49,18.04c2.11,3.36-2.8,6.46-4.92,3.09
					c-2.78-5.04-3.16-10.54-3.36-16.07c-0.03-1.76-0.02-3.46,0.09-5.27c0.08-1.3,1.19-2.29,2.49-2.21
					C379.71,515.17,380.69,516.26,380.65,517.52L380.65,517.52z"/>
			</g>
			<g>
				<path class="st2" d="M404.87,517.02c0.21,7.28,0.26,14.69-3.27,21.34c-2.01,3.26-6.87,0.44-5.03-2.92
					c1.59-2.4,2.36-5.63,2.85-8.58c0.51-3.14,0.74-6.51,0.74-9.69C400.22,514.14,404.62,514,404.87,517.02L404.87,517.02z"/>
			</g>
			<g>
				<path class="st2" d="M349.46,482.23c3.05,0.06,6.14,0.21,9.2,0.4c3.07,0.18,6.14,0.38,9.22,0.79c1.66,0.22,1.72,2.64,0.08,2.94
					c-4.66,0.86-9.34,0.99-14.04,0.96c-1.56-0.01-3.11-0.05-4.69-0.17c-1.36-0.1-2.38-1.28-2.28-2.64
					C347.05,483.2,348.16,482.2,349.46,482.23L349.46,482.23z"/>
			</g>
			<g>
				<path class="st2" d="M216.77,351c0.43,18.02,4.54,36.05,11.34,52.72c22.03,54.92,74.4,78.96,131.16,79.02
					c1.37,0.01,2.44,1.3,2.2,2.65c-1.9,14.27-1.39,32.58,9.2,43.41c6.46,6.41,15.9,7.98,24.8,7.08
					c21.19-1.97,25.77-23.09,24.89-41.1c-0.13-3.12-0.4-6.24-0.81-9.34c-0.41-3.08-0.93-6.25-1.61-9.17
					c-0.25-1.08,0.13-2.15,0.89-2.85c2.89-2.67,5.58-5.85,7.92-9.05c18.19-24.73,17.6-54.11,2.46-80.21
					c-0.8-1.39-0.31-3.17,1.09-3.97c1.39-0.79,3.17-0.31,3.96,1.09c4.28,7.52,7.7,15.62,9.83,24.11c2.13,8.51,2.82,17.42,1.81,26.14
					c-1.82,16.39-9.5,31.9-20.77,43.85c-0.78,0.82-1.52,1.55-2.45,2.4c0,0,0.92-2.88,0.92-2.87c5.8,27.22,3.89,66.85-32.68,66.3
					c-8.62,0.04-17.54-2.7-23.71-8.93c-11.82-12.2-12.44-31.84-10.17-47.69c0,0,2.21,2.66,2.19,2.65
					c-58.76,0.28-113-24.7-136.17-81.41c-7.2-17.41-11.56-36.01-12.09-54.88C211.1,347.1,216.69,347.03,216.77,351L216.77,351z"/>
			</g>
		</g>
		<g>
			<g>
				<path class="st5" d="M158.02,374.87c0,0,2.94-65.54,59.07-60.54c56.14,5,3.23,75.53,3.23,75.53L158.02,374.87z"/>
			</g>
			<g>
				<path class="st2" d="M220.33,392.77c-0.23,0-0.45-0.03-0.68-0.08l-62.31-14.99c-1.35-0.33-2.29-1.57-2.22-2.96
					c0.06-1.36,1.73-33.52,22.51-51.69c10.43-9.13,23.8-13.04,39.73-11.62c13.57,1.21,22.42,6.23,26.3,14.94
					c10.29,23.09-19.71,63.52-21,65.23C222.1,392.35,221.23,392.77,220.33,392.77z M161.13,372.63l57.98,13.95
					c5.26-7.45,27.13-40.12,19.23-57.84c-2.96-6.63-10.19-10.51-21.5-11.52c-14.28-1.27-26.17,2.16-35.36,10.18
					C165.65,341.23,161.93,365.07,161.13,372.63z"/>
			</g>
		</g>
		<g>
			<g>
				<path class="st5" d="M401.96,445.02c-17.77,29.46-39.99,48.84-61.31,59.73c-30.87,15.76-59.86,13.72-70.75-1.34
					c-16.12-22.28,7.06-30.18,7.06-30.18c6.89-2.22,12.92-5.13,18.17-8.38c22.57-13.97,30.81-34.34,30.81-34.34
					s13.91,5.88,33.5,11.17C379.03,446.98,401.96,445.02,401.96,445.02z"/>
			</g>
			<g>
				<path class="st1" d="M339.67,504.75c-30.87,15.76-59.86,13.72-70.75-1.34c-16.12-22.28,7.06-30.18,7.06-30.18
					c6.89-2.22,12.92-5.13,18.17-8.38C295.63,474.77,303.07,496.77,339.67,504.75z"/>
			</g>
			<g>
				<path class="st7" d="M272.74,476.56c0,0-6.56,12.25,4.6,22.34s40.85,13.03,52.71,9.31c0,0-16.95,10.29-37.72,6.56
					C271.56,511.05,255.4,490.18,272.74,476.56z"/>
			</g>
			<g>
				<path class="st2" d="M328.29,431.47c-4.36,10.73-11.64,20.23-20.24,27.92c-1.46,1.37-3.46,2.88-5.04,4.13
					c-1.57,1.27-4.58,3.18-6.26,4.32c-1.36,0.77-3.36,1.91-4.73,2.68c-0.46,0.28-1.43,0.78-1.93,1c-2.27,1.09-5.59,2.66-7.95,3.46
					c-0.28,0.13-4.52,1.64-4.76,1.78c-3.81,1.65-7.7,4.66-9.1,8.55c-2.23,6.53,2.35,14.15,6.91,18.79c0.7,0.75,1.95,1.68,2.79,2.29
					c0.39,0.34,1.11,0.69,1.56,0.97c0.54,0.29,1.03,0.67,1.61,0.9c9.25,4.48,20.35,4.55,30.49,2.81c15.9-2.83,30.91-10.1,43.96-19.5
					c17.87-12.72,31.92-29.77,44.33-47.77c0.74-1.08,2.22-1.35,3.3-0.61c1,0.69,1.31,2.01,0.75,3.06
					c-7.91,15-18.73,28.49-31.19,40.02c-16.86,15.35-37.29,27.58-59.93,31.76c-14.33,2.55-31.3,1.7-42.53-8.85
					c-11.24-11.45-14.6-27.9,1.18-37.13c3.56-2.18,8.16-3.19,11.92-4.96c0.71-0.36,3.91-1.79,4.54-2.1
					c0.54-0.29,2.05-1.16,2.61-1.47c9.34-5.19,17.53-12.34,24.26-20.64c3.33-4.19,6.39-8.66,8.81-13.44
					C325.12,426.65,329.35,428.47,328.29,431.47L328.29,431.47z"/>
			</g>
			<g>
				<path class="st2" d="M279.75,486.28c-3.49,0.53-7.3,2.3-9.05,5.47c-0.64,1-0.89,2.21-1.17,3.37c-0.98,3.72-6.44,2.46-5.68-1.32
					c1.37-5.18,5.82-9.23,10.96-10.44c1.63-0.42,3.1-0.64,4.83-0.65c0.99,0,1.79,0.79,1.79,1.78
					C281.44,485.46,280.68,486.22,279.75,486.28L279.75,486.28z"/>
			</g>
			<g>
				<path class="st2" d="M290.33,499.71c-3.49,0.53-7.3,2.3-9.05,5.47c-0.64,1-0.9,2.21-1.16,3.37c-0.98,3.72-6.44,2.46-5.68-1.32
					c1.37-5.18,5.82-9.23,10.96-10.44c1.63-0.42,3.1-0.64,4.83-0.65c0.98,0,1.79,0.79,1.79,1.78
					C292.02,498.88,291.26,499.64,290.33,499.71L290.33,499.71z"/>
			</g>
		</g>
		<g>
			<g>
				<path class="st1" d="M230.04,397.92c-3.17,20.29-21.01,37.84-42.87,42.44c-23.17,4.88-42.87-19-42.87-42.44
					c0-23.44,19.2-42.44,42.87-42.44S233.65,374.76,230.04,397.92z"/>
			</g>
			<g>
				<path class="st7" d="M187.16,355.48c-1.79,0-3.55,0.12-5.28,0.33c20.79,3.46,38.75,21.08,35.51,41.82
					c-3.17,20.29-21.01,37.84-42.87,42.44c-0.14,0.03-0.27,0.05-0.41,0.08c4.14,1.02,8.52,1.17,13.04,0.22
					c21.87-4.6,39.71-22.16,42.87-42.44C233.65,374.76,210.84,355.48,187.16,355.48z"/>
			</g>
			<g>
				<path class="st2" d="M181.14,443.84c-7.7,0-15.3-2.8-21.91-8.16c-10.97-8.9-17.79-23.37-17.79-37.76
					c0-24.97,20.51-45.29,45.72-45.29c13.92,0,28.08,6.43,36.94,16.78c7.23,8.45,10.34,18.73,8.75,28.95l0,0
					c-3.35,21.49-21.9,39.9-45.1,44.79C185.55,443.61,183.34,443.84,181.14,443.84z M187.16,358.32c-22.07,0-40.03,17.76-40.03,39.6
					c0,12.52,6.16,25.61,15.68,33.34c5.06,4.1,13.28,8.53,23.76,6.32c20.94-4.41,37.65-20.9,40.65-40.1
					c1.33-8.55-1.31-17.2-7.45-24.37C211.97,363.99,199.47,358.32,187.16,358.32z M230.04,397.92L230.04,397.92L230.04,397.92z"/>
			</g>
		</g>
	</g>
	<g>
		<g>
			<g>
				
					<ellipse transform="matrix(0.7497 -0.6617 0.6617 0.7497 -218.1347 236.1512)" class="st1" cx="203.14" cy="406.47" rx="8.71" ry="14.55"/>
				<path class="st2" d="M208.6,421.7c-1.32,0-2.71-0.22-4.14-0.68c-3.54-1.13-7.1-3.57-10.02-6.87
					c-6.48-7.34-7.73-16.46-2.84-20.77c4.88-4.31,13.78-1.94,20.26,5.4c6.48,7.34,7.72,16.46,2.84,20.77l0,0
					C213.08,420.97,210.97,421.7,208.6,421.7z M197.67,397.04c-0.93,0-1.7,0.23-2.23,0.7c-2.05,1.81-1.05,7.57,3.36,12.57
					c2.2,2.49,4.9,4.38,7.42,5.18c2.01,0.64,3.69,0.53,4.63-0.29c0,0,0,0,0,0c2.05-1.81,1.05-7.57-3.36-12.57
					C204.23,398.93,200.32,397.04,197.67,397.04z"/>
			</g>
			<g>
				<circle class="st8" cx="237.74" cy="443.74" r="41.54"/>
				<path class="st2" d="M237.74,488.18c-24.51,0-44.44-19.94-44.44-44.44c0-24.51,19.94-44.44,44.44-44.44
					c24.51,0,44.44,19.94,44.44,44.44C282.19,468.24,262.25,488.18,237.74,488.18z M237.74,405.1c-21.3,0-38.63,17.33-38.63,38.63
					c0,21.3,17.33,38.63,38.63,38.63c21.3,0,38.63-17.33,38.63-38.63C276.37,422.43,259.04,405.1,237.74,405.1z"/>
			</g>
		</g>
		<g>
			<g>
				<circle class="st1" cx="231.2" cy="438.65" r="41.54"/>
			</g>
			<g>
				
					<ellipse transform="matrix(0.2298 -0.9732 0.9732 0.2298 -248.8325 562.8864)" class="st9" cx="231.2" cy="438.65" rx="35.07" ry="35.07"/>
			</g>
			<g>
				<circle class="st4" cx="231.2" cy="438.65" r="26.74"/>
			</g>
			<g>
				<path class="st2" d="M274.7,438.65c0.07,17.22-10.88,33.71-26.87,40.17c-28.65,11.98-60.65-9.08-60.93-40.17
					c-0.26-31.66,32.09-53.02,61.15-40.67C264.08,404.6,275.06,421.33,274.7,438.65L274.7,438.65z M270.78,438.65
					c-0.02-15.58-10.12-30.44-24.63-36.07c-25.37-10.3-53.55,8.76-53.72,36.07c-0.39,27.86,28.13,47.26,53.93,36.58
					C260.91,469.43,271.04,454.33,270.78,438.65L270.78,438.65z"/>
			</g>
			<g>
				<path class="st1" d="M267.25,438.65c0.18,14.29-8.96,28.04-22.22,33.4c-23.68,9.92-50.2-7.67-50.07-33.4
					c0.11-25.53,26.4-43.02,49.95-33.1C258.04,410.94,267.28,424.4,267.25,438.65L267.25,438.65z M265.3,438.65
					c0.34-24.36-24.78-41.08-47.17-31.58c-8.26,3.43-15,10.28-18.33,18.57c-9.07,22.18,7.38,46.99,31.41,46.97
					C249.78,472.79,265.39,457.23,265.3,438.65L265.3,438.65z"/>
			</g>
		</g>
	</g>
	<g>
		<g>
			<g>
				<path class="st5" d="M233.55,203.43c0,0,5.29-34.09,23.51-71.42s47.91-58.49,58.78-47.32c10.87,11.17,21.75,77.88,21.75,77.88
					L233.55,203.43z"/>
			</g>
			<g>
				<path class="st2" d="M233.56,206.03c-0.13,0-0.27-0.01-0.4-0.03c-1.42-0.22-2.39-1.55-2.17-2.97
					c0.05-0.34,5.56-34.91,23.74-72.16c13.32-27.29,34.59-48.95,50.56-51.51c5.09-0.81,9.38,0.4,12.42,3.52
					c11.13,11.43,21.33,72.37,22.45,79.28c0.23,1.42-0.73,2.75-2.15,2.98c-1.41,0.23-2.75-0.73-2.98-2.15
					c-2.99-18.33-12.6-67.81-21.05-76.49c-1.83-1.88-4.48-2.56-7.87-2.01c-12.07,1.94-32.55,19.65-46.71,48.66
					c-17.82,36.51-23.23,70.34-23.28,70.68C235.92,205.11,234.82,206.03,233.56,206.03z"/>
			</g>
		</g>
		<g>
			<path class="st1" d="M299.88,157.39c0,0,6.22-38.17-5.58-57.38c-1.34-2.18-4.33-2.59-6.17-0.81
				c-8.78,8.48-30.4,35.18-42.92,88.56C245.21,187.76,276.86,168.07,299.88,157.39z"/>
		</g>
		<g>
			<path class="st5" d="M263.53,172.87c-5.29-14.55,8.08-11.9,8.08-11.9c-1.67-3.13-2.56-6.91-3.02-9.93
				c-0.47-3.03,1.95-5.75,5.02-5.58c5.58,0.32,9.46,2.13,9.46,2.13c-3.15-5.95-4.39-11.41-4.82-15.44
				c-0.38-3.57,3.12-6.32,6.47-5.04c11.68,4.45,16.42,12.84,16.42,12.84l-1.27,17.44L263.53,172.87z"/>
		</g>
		<g>
			<path class="st2" d="M299.35,140.96c-3.02-4.55-7.54-8.09-12.45-10.43c-1.04-0.49-2.43-1.14-3.48-1.39
				c-1.25-0.22-2.55,0.77-2.74,2.01c-0.11,0.69,0.09,1.43,0.17,2.13c0.73,4.58,2.3,9.01,4.52,13.09c0.68,1.25,0.22,2.82-1.03,3.5
				c-1.03,0.57-2.02,0.26-3.01-0.2c-1.77-0.7-3.64-1.18-5.52-1.49c-0.93-0.13-1.92-0.31-2.84-0.26c-1.56,0.2-2.39,1.79-2.01,3.27
				c0.45,2.99,1.22,6.14,2.55,8.76c0.81,1.52-0.61,3.43-2.28,3.13c-3.7-0.46-7.26,0.34-6.45,4.92c0.18,1.3,0.6,2.68,1.12,4.04
				c0.49,1.29-0.16,2.73-1.45,3.22c-1.32,0.51-2.81-0.2-3.26-1.54c-0.55-1.63-1.01-3.32-1.21-5.19c-0.9-7.55,5.1-11.07,12.05-9.68
				c0,0-2.31,3.12-2.31,3.12l0,0c-1.9-3.55-2.9-7.23-3.47-11.11c-0.51-4.33,3.5-8.32,7.84-7.82c3.46,0.21,6.86,0.86,10.09,2.2
				c0,0-3.4,3.57-3.4,3.57c-2.39-4.62-4.04-9.65-4.74-14.82c-0.54-2.66-0.06-5.67,2.04-7.55c2-2.01,5.5-2.53,7.97-1.28
				c6.8,2.81,12.99,7.46,16.9,13.77C304.25,141.36,300.75,143.33,299.35,140.96L299.35,140.96z"/>
		</g>
		<g>
			<path class="st2" d="M294.96,99.73c3.44,4.03,4.58,9.09,6,13.99c3.76,14.67,4,30.08,2.34,45.07c-0.46,3.59-5.72,3.11-5.48-0.54
				c0,0,0.01-0.11,0.01-0.12c0,0,0.75-7.27,0.75-7.27c0.94-12.05,0.91-24.37-1.44-36.27c-0.89-4.77-2.59-9.3-3.7-13.99
				C293.12,99.72,294.31,98.99,294.96,99.73L294.96,99.73z"/>
		</g>
	</g>
	<g>
		<g>
			<g>
				<path class="st5" d="M502.65,245.61c-19.15,36.86-43.41,61.4-43.41,61.4l-29.08-107.93c0,0,2.55-1.32,6.74-3.39
					c16.13-7.97,56.53-27.15,68.79-25.48c3.2,0.44,5.76,2.34,7.64,5.41C520.57,187.41,517.84,216.38,502.65,245.61z"/>
			</g>
			<g>
				<path class="st2" d="M459.24,309.6c-0.66,0-1.32-0.25-1.83-0.75c-1.02-1.01-1.03-2.65-0.02-3.68
					c0.24-0.24,24.21-24.72,42.95-60.77c14.89-28.65,16.94-55.64,11.31-66.5c-1.58-3.05-3.7-4.78-6.3-5.13
					c-12.03-1.63-57.48,20.1-74,28.6c-1.28,0.66-2.84,0.16-3.5-1.12c-0.66-1.28-0.16-2.84,1.12-3.5
					c6.23-3.21,61.25-31.27,77.08-29.13c4.31,0.58,7.85,3.31,10.22,7.89c7.45,14.36,2.69,44.34-11.31,71.29
					c-19.12,36.78-43.62,61.78-43.86,62.02C460.58,309.34,459.91,309.6,459.24,309.6z"/>
			</g>
		</g>
		<g>
			<path class="st1" d="M456.78,226.3c0,0,26.98-27.71,49.43-29.66c2.55-0.22,4.66,1.94,4.32,4.48
				c-1.59,12.1-10.18,45.36-45.63,87.19C464.9,288.31,461.9,251.16,456.78,226.3z"/>
		</g>
		<g>
			<path class="st5" d="M465.97,264.72c14.84-4.41,4.76-13.58,4.76-13.58c3.51-0.52,7.07-2.06,9.77-3.48
				c2.72-1.43,3.46-4.99,1.49-7.35c-3.58-4.29-7.34-6.34-7.34-6.34c6.66-1.01,11.78-3.27,15.28-5.32c3.09-1.81,3.22-6.27,0.2-8.2
				c-10.53-6.74-20.09-5.55-20.09-5.55l-13.26,11.4L465.97,264.72z"/>
		</g>
		<g>
			<path class="st2" d="M469.78,212.85c6.35-0.54,12.73,1.05,18.38,3.87c2.1,1.11,4.48,2.15,5.67,4.43
				c2.17,4.03-0.02,8.66-4.06,10.38c-4.57,2.51-9.6,4.18-14.73,5.01l0.85-4.86c2.85,1.71,5.3,3.92,7.46,6.43
				c3.27,3.25,2.69,8.97-1.31,11.32c-3.46,1.86-7.02,3.24-10.99,3.83c0,0,0,0,0,0l1.13-3.71c0.42,0.38,0.69,0.68,1.01,1.03
				c6.73,7.63,1.92,14.13-6.5,16.53c-3.16,0.93-4.65-3.65-1.54-4.76c5.96-1.64,9.16-4.28,4.14-9.63c-1.27-1.17-0.56-3.45,1.13-3.71
				c2.9-0.49,5.89-1.74,8.56-3.16c1.42-0.58,2.2-2.19,1.43-3.56c-0.51-0.77-1.25-1.46-1.9-2.13c-1.59-1.59-3.45-2.96-5.37-4.1
				c-1.91-1.28-1.13-4.4,1.13-4.66c3.68-0.52,7.3-1.49,10.7-2.97c1.28-0.55,2.52-1.17,3.73-1.85c0.67-0.39,1.12-1,1.24-1.78
				c0.34-2.26-2.15-3.01-3.85-4.05c-4.8-2.55-10.34-4.08-15.79-3.8C467.56,217.24,467.06,213.23,469.78,212.85L469.78,212.85z"/>
		</g>
		<g>
			<path class="st2" d="M506.24,197.7c-4.43,1.89-9.08,3.22-13.44,5.35c-5.45,2.53-10.69,5.8-15.69,9.16
				c-6.86,4.75-13.68,10.55-19.79,16.26c-2.72,2.37-6.34-1.54-3.71-4.06c6.43-5.98,13.42-11.52,20.82-16.25
				c5.32-3.33,10.97-6.35,16.8-8.7c4.79-1.78,9.53-3.87,14.82-3.5C507,196.03,507.16,197.41,506.24,197.7L506.24,197.7z"/>
		</g>
	</g>
	<g>
		<g>
			<path class="st5" d="M468.97,288.86c0,34.48-7.84,48.59-7.84,48.59c-0.57,23.06-9.89,42.12-24.45,56.01
				c-15.61,14.9-37.26,23.88-60.58,25.5c-45.06,3.14-124.22-10.97-166.93-65.83c-14.48-18.6-19.64-36.3-20.13-51.57
				c-0.97-29.78,15.81-50.32,15.81-50.32c9.8-42.71,39.19-65.05,39.19-65.05l8.33-6.46c0,0,22.92-19.4,52.31-24.4
				c0,0,14.27-2.11,20.99-2.09c0,0,72.51-0.4,114.17,46.69c0,0,6.4,7.22,13.46,22.5c10.94,23.71,14.99,54.86,14.99,54.86
				S468.97,284.16,468.97,288.86z"/>
		</g>
		<g>
			<path class="st1" d="M436.64,392.21c0.03,0.79-0.29,1.57-0.87,2.11c-15.54,14.39-36.8,23.05-59.67,24.64
				c-45.06,3.14-124.22-10.97-166.93-65.83c-14.48-18.6-19.64-36.3-20.13-51.57c0.61-2.22,1.09-3.92,1.36-4.87
				c0.17-0.59,0.52-1.1,1.02-1.47c5.01-3.68,34.48-22.22,86.16,7.02c2.86,1.62,6.47,0.8,8.33-1.9c6.63-9.66,22.41-31.45,38.4-44.85
				c3.93-3.29,9.96-1.21,11.01,3.81c2.22,10.7,4.66,30.43,2.42,60.9c-0.22,3.03,1.75,5.79,4.69,6.56
				C360.71,331.53,422.41,350.53,436.64,392.21C436.64,392.21,436.64,392.21,436.64,392.21z"/>
		</g>
		<g>
			<path class="st7" d="M445.08,382.64c-16.09,15.36-38.4,24.61-62.44,26.28c-46.45,3.24-128.04-11.31-172.06-67.85
				c-14.93-19.17-20.24-37.41-20.74-53.16c0-0.04,0-0.08,0-0.12c-0.63,4.31-0.95,8.91-0.8,13.76c0.49,15.27,5.65,32.97,20.13,51.57
				c42.71,54.86,121.87,68.97,166.93,65.83c23.32-1.62,44.97-10.59,60.58-25.5c4.53-4.32,8.56-9.15,11.97-14.44
				C447.49,380.26,446.31,381.47,445.08,382.64z"/>
		</g>
		<g>
			<g>
				<path class="st2" d="M244.91,187.34c-8.57,9.16-16.89,18.81-23.14,29.75c-5.54,9.44-9.94,19.71-12.83,30.27
					c0,0-1.26,4.54-1.26,4.54c-0.1,0.44-0.32,0.86-0.58,1.19c-12.65,17.13-17.98,39.72-13.73,60.63
					c2.59,12.63,8.38,24.52,16.04,34.85c33.01,44.4,89.92,64.39,143.59,67.62c24.28,1.38,47.72-1.39,68.64-14.69
					c22.27-13.73,36.22-37.91,36.58-64.1c0.03-0.96,0.51-1.53,0.85-2.47c0.88-2.26,1.68-4.63,2.31-6.98
					c2.91-10.66,4.23-21.93,4.94-32.98c0.1-2.04,0.28-4.07,0.88-6.11c0.25-0.99,1.29-1.59,2.27-1.3c0.65,0.19,1.12,0.72,1.26,1.34
					c0.96,4.18,0.44,8.35,0.35,12.52c-0.43,8.4-1.33,16.76-3.25,24.99c-1.05,4.25-2.19,8.44-4.14,12.41c0,0,0.33-1.28,0.33-1.28
					c-0.15,4.58-0.6,9.15-1.39,13.68c-6.18,35.36-35.22,60.6-69.43,68.16c-11.07,2.52-22.48,3.1-33.78,2.85
					c-40.32-1.16-80.96-11.63-115.16-33.49c-29.83-19.44-57.12-50.31-58.17-87.58c-0.38-16.13,4.15-32.18,12.51-45.93
					c1.27-2.04,2.44-3.88,3.98-5.82c0,0-0.58,1.19-0.58,1.19c4.29-19.3,13.45-37.49,26.41-52.42c4.3-4.98,9.01-9.59,14.74-13.13
					C244.7,184.18,246.14,186.12,244.91,187.34L244.91,187.34z"/>
			</g>
			<g>
				<path class="st2" d="M325.67,152.04c10.7-1.19,21.46-0.07,32.01,1.78c21.16,3.73,41.98,10.91,59.94,22.87
					c6.76,4.46,13.25,9.51,18.59,15.65c0.72,0.82,1.95,2.23,2.57,3.14c0.82,1.08,1.61,2.18,2.36,3.3c0.54,0.8,0.33,1.88-0.47,2.42
					c-0.67,0.45-1.54,0.37-2.12-0.13c-4.12-3.28-7.94-6.71-12.02-9.86c-15.99-13.11-35.08-22-54.87-27.77
					c-15-4.49-30.47-6.68-45.97-9.01c-0.68-0.08-1.16-0.71-1.06-1.38C324.7,152.52,325.14,152.11,325.67,152.04L325.67,152.04z"/>
			</g>
			<g>
				<path class="st2" d="M251.42,178.6c11.32-12.26,32.87-22,49.29-24.45c1.23-0.18,2.46-0.33,3.69-0.5
					c0.93-0.12,1.78,0.53,1.9,1.45c0.11,0.85-0.42,1.63-1.23,1.85c-1.69,0.48-3.57,0.99-5.28,1.43c-7.37,2.22-14.66,4.99-21.55,8.42
					c-7.49,3.56-17.64,9.83-24.92,14.02C251.89,181.74,250.28,179.87,251.42,178.6L251.42,178.6z"/>
			</g>
			<g>
				<path class="st2" d="M466.44,277.49c-3.42-18.46-8.18-36.65-14.71-54.26c-0.74-1.95,2-3.34,3.13-1.58
					c5.23,8.22,8.48,17.51,10.85,26.89c2.33,9.4,3.96,18.87,4.41,28.57C470.18,279.41,466.85,279.76,466.44,277.49L466.44,277.49z"
					/>
			</g>
		</g>
	</g>
	<g>
		<path class="st1" d="M280.87,292.88c-0.39-0.2-0.78-0.38-1.18-0.54c-7.16-2.95-16.06-0.24-24.68-8.87
			c-4.94-4.94-8.84-14.8-11.39-22.79c-2.14-6.76-3.31-12.18-3.31-12.18c24.1-14.7,44.89-5.55,46.15,16.17
			C287.34,279.94,280.87,292.88,280.87,292.88z"/>
	</g>
	<g>
		<defs>
			<path id="SVGID_1_" d="M280.87,292.88c0,0,6.47-12.93,5.58-28.21c-1.25-21.71-22.04-30.86-46.14-16.16c0,0,5.58,25.86,14.7,34.97
				C264.12,292.58,273.52,289.05,280.87,292.88z"/>
		</defs>
		<clipPath id="SVGID_2_">
			<use xlink:href="#SVGID_1_"  style="overflow:visible;"/>
		</clipPath>
		<g class="st10">
			<g>
				
					<ellipse transform="matrix(0.3819 -0.9242 0.9242 0.3819 -78.4607 417.3516)" class="st2" cx="272.78" cy="267.33" rx="21.81" ry="18.54"/>
			</g>
			<g>
				
					<ellipse transform="matrix(0.3819 -0.9242 0.9242 0.3819 -73.3797 408.7286)" class="st1" cx="268.87" cy="259.22" rx="6.95" ry="5.91"/>
			</g>
		</g>
	</g>
	<g>
		<path class="st2" d="M280.1,290.49c-0.54,0.12-1.19,0.65-1.38,1.16c0.09-0.14,0.21-0.25,0.3-0.39c3.87-5.92,4.89-13.29,5.44-20.2
			c1.86-28.02-21.94-33.49-42.33-19.6c0,0,1.59-3.7,1.59-3.7c0.55,3.94,1.42,8.03,2.43,11.93c3.07,10.77,7.02,24.51,19.13,27.82
			c3.82,1.12,8.15,1.03,12.23,1.81c0.83,0.13,2.02,0.47,2.83,0.7c0.04,0.01,0,0.01-0.03,0.04
			C280.24,290.1,280.13,290.26,280.1,290.49L280.1,290.49z M281.65,295.26c-1.46-0.06-2.97-0.74-4.31-1.32
			c-1.52-0.52-3.05-0.87-4.72-1.15c-18.32-2.06-23.63-11.76-30.07-27.54c-2.09-5.27-3.93-10.52-5.62-16.03
			c-0.47-1.5,0.3-2.98,1.59-3.7c15.93-9.32,38.91-11.54,47.65,8.23c3.79,9.18,2.54,19.59,0.17,28.96c-0.75,2.69-1.67,5.64-2.42,8.34
			c-0.18,0.63-0.52,1.89-0.68,2.53C283.07,294.3,282.31,295,281.65,295.26L281.65,295.26z"/>
	</g>
	<g>
		<path class="st1" d="M418.22,319.61c0,0-5.53,5.27-14.68,9.07c-7.19,2.98-16.6,5.06-27.34,2.98c-18.22-3.52-24.1-14.99-31.45-19.4
			c0,0,0,0,0.01-0.01c0.24-0.39,8.17-12.73,23.8-19.09C384.42,286.69,404.7,289.04,418.22,319.61z"/>
	</g>
	<g>
		<path class="st2" d="M342.52,312.79c-0.14-0.69,0.08-1.54,0.52-2.12c0,0,0.21-0.34,0.21-0.34c2.1-3.26,4.63-6.22,7.41-8.93
			c6-5.78,13.17-10.28,21.2-12.79c23.54-7.3,41.09,9.25,49.53,29.59c0.63,1.36,0.28,2.95-0.78,3.92c-1.52,1.34-2.9,2.35-4.51,3.44
			c-6.06,4.06-12.87,7.1-20.02,8.57c-12.44,2.66-26.11,0.4-36.65-6.83c-5.23-3.39-9.01-8.23-13.87-11.9
			C344.54,314.73,343.23,313.78,342.52,312.79L342.52,312.79z M346.97,311.72c0.27-0.13,0.31-0.34,0.4-0.31
			c2.3,1.9,4.47,4.06,6.64,6.03c4.9,4.55,10.36,8.21,16.7,10.23c9.32,2.95,19.53,2.66,28.69-0.72c5.97-2.25,11.73-5.55,16.42-9.87
			c0,0-0.78,3.92-0.78,3.92c-5.87-13.06-15.6-26.32-30.81-27.38c-14.27-0.64-28.35,8.37-37.17,19.34c0,0-0.2,0.26-0.2,0.26
			l-0.1,0.13C347.06,312.97,347.15,312.2,346.97,311.72L346.97,311.72z"/>
	</g>
	<g>
		<g>
			
				<ellipse transform="matrix(0.3514 -0.9362 0.9362 0.3514 -42.4596 558.3619)" class="st2" cx="381.77" cy="309.83" rx="20.5" ry="19.23"/>
		</g>
		<g>
			
				<ellipse transform="matrix(0.3514 -0.9362 0.9362 0.3514 -40.6003 547.4222)" class="st1" cx="374.81" cy="303.01" rx="7.12" ry="6.13"/>
		</g>
	</g>
	<g>
		<defs>
			<path id="SVGID_3_" d="M284.4,325.11c0,0-12.15,44.48,15.28,48.2c27.43,3.72,36.84-35.07,36.84-35.07S308.5,323.54,284.4,325.11z
				"/>
		</defs>
		<defs>
			<path id="SVGID_4_" d="M303.33,375.37c-1.26,0-2.55-0.09-3.89-0.27c-6.36-0.86-11.27-3.84-14.58-8.84
				c-9.51-14.36-2.52-40.53-2.21-41.63c0.2-0.75,0.86-1.28,1.63-1.33c24.33-1.58,51.92,12.72,53.08,13.33
				c0.74,0.39,1.12,1.23,0.92,2.04C338.19,339.05,329.07,375.37,303.33,375.37z"/>
		</defs>
		<defs>
			<path id="SVGID_5_" d="M285.84,326.85c-1.25,5.32-5.44,26.09,2.05,37.41c2.75,4.15,6.68,6.52,12.03,7.25
				c1.14,0.16,2.25,0.23,3.33,0.23c20.27,0,29.23-26.17,31.11-32.54C328.74,336.45,305.96,326.06,285.84,326.85z"/>
		</defs>
		<use xlink:href="#SVGID_3_"  style="overflow:visible;fill:#2B2625;"/>
		<use xlink:href="#SVGID_4_"  style="overflow:visible;fill:#2B2625;"/>
		<use xlink:href="#SVGID_5_"  style="overflow:visible;fill:#2B2625;"/>
		<clipPath id="SVGID_6_">
			<use xlink:href="#SVGID_3_"  style="overflow:visible;"/>
		</clipPath>
		<clipPath id="SVGID_7_" class="st11">
			<use xlink:href="#SVGID_4_"  style="overflow:visible;"/>
		</clipPath>
		<clipPath id="SVGID_8_" class="st12">
			<use xlink:href="#SVGID_5_"  style="overflow:visible;"/>
		</clipPath>
		<g class="st13">
			<path class="st2" d="M313.55,379.02c-11.21,0-23.27-3.49-26.13-9.61c-1.35-1.84-10.16-15.27,7.02-31.64
				c6.54-6.23,16.5-7.65,26-3.71c11.16,4.63,18.55,15.18,18.83,26.88c0.21,8.7-5.54,14.78-16.19,17.12
				C320.15,378.71,316.89,379.02,313.55,379.02z M309.77,335.22c-4.98,0-9.59,1.7-13.04,4.99c-16.07,15.31-6.98,26.81-6.59,27.29
				c0.1,0.12,0.18,0.26,0.25,0.4c2.31,5.32,18.84,9.79,31.97,6.91c6.3-1.39,13.77-4.9,13.56-13.78
				c-0.25-10.38-6.83-19.75-16.77-23.87C316.01,335.85,312.82,335.22,309.77,335.22z"/>
		</g>
	</g>
	<g>
		<g>
			<path class="st1" d="M282.37,340.77c-0.23,0-0.44-0.04-0.65-0.12c-2.04-0.78-2.06-6.81-1.28-11.94l9.78,5.45
				C287.97,337.29,284.62,340.77,282.37,340.77L282.37,340.77z"/>
		</g>
		<g>
			<path class="st2" d="M281.92,331.62l5.58,3.11c-1.92,2.33-4,4.13-5.04,4.23C281.8,338.02,281.62,335.03,281.92,331.62
				 M279.11,325.89c0,0-3.13,14.5,1.96,16.46c0.42,0.16,0.86,0.24,1.3,0.24c4.86,0,10.45-9.06,10.45-9.06L279.11,325.89
				L279.11,325.89z"/>
		</g>
	</g>
	<g>
		<g>
			<path class="st1" d="M324.61,354.62c-2.18-0.12-4.04-5.86-4.86-10.98l10.98,2.21c-1.3,4.05-3.72,8.78-6.01,8.78L324.61,354.62z"
				/>
		</g>
		<g>
			<path class="st2" d="M322.04,345.96l6.27,1.26c-1.18,2.98-2.65,5.27-3.51,5.57C323.89,352.11,322.8,349.31,322.04,345.96
				 M317.62,341.36c0,0,1.44,14.76,6.89,15.08c0.07,0,0.14,0.01,0.2,0.01c5.32,0,8.3-11.99,8.3-11.99L317.62,341.36L317.62,341.36z"
				/>
		</g>
	</g>
	<g>
		<g>
			<path class="st1" d="M277.49,312.38c0,0-1.04,11.68,6.12,17.8s20.56,1.52,20.56,1.52s19.42,23.58,40.97,7.13"/>
		</g>
		<g>
			<path class="st2" d="M279.09,312.52c1.86,16.17,8.43,20.67,24.25,16.77c2.15-0.6,3.23,1.41,4.71,2.59
				c2.02,1.79,4.2,3.47,6.48,4.89c9.73,6.32,19.47,6.34,29.55,0.66c0.87-0.48,1.96-0.15,2.42,0.73c0.37,0.69,0.22,1.52-0.29,2.06
				c-2.84,2.93-6.51,5.26-10.66,6.49c-10.42,3.14-21.59-1.66-29.12-8.79c-1.56-1.45-2.88-2.86-4.21-4.6l2.79,0.79
				c-7.13,2.41-15.63,3.44-22.21-1.07c-6.47-4.98-8.33-13.23-6.9-20.8C276.3,310.37,279.01,310.63,279.09,312.52L279.09,312.52z"/>
		</g>
	</g>
	<g>
		<g>
			<path class="st1" d="M304.17,331.7c0,0,0.34-6.69,3.16-12.35"/>
		</g>
		<g>
			<path class="st2" d="M301.63,331.57c0.66-4.57,1.98-8.93,4.26-12.94c0.44-0.78,1.42-1.05,2.2-0.61c0.7,0.4,0.99,1.25,0.71,1.98
				c-1.46,3.71-2.1,7.89-2.09,11.84C306.64,335.46,301.31,335.18,301.63,331.57L301.63,331.57z"/>
		</g>
	</g>
	<g>
		<g>
			<path class="st14" d="M304.09,321.54c-0.87-1.34-1.94-3.61-2.74-7.28c-0.53-2.43,1.4-4.7,3.88-4.58
				c3.13,0.15,7.46,1.17,11.6,4.88c1.76,1.58,1.63,4.43-0.3,5.81c-1.76,1.26-4.58,2.49-9.06,2.84
				C306.13,323.32,304.82,322.67,304.09,321.54z"/>
			<path class="st2" d="M307.18,325.04c-1.86,0-3.6-0.94-4.62-2.51l0,0c-1.27-1.97-2.28-4.62-2.99-7.88
				c-0.37-1.71,0.07-3.46,1.2-4.8c1.13-1.34,2.8-2.06,4.54-1.98c3.26,0.16,8.11,1.21,12.72,5.34c1.26,1.12,1.93,2.74,1.84,4.44
				c-0.09,1.69-0.92,3.22-2.28,4.2c-2.48,1.79-5.84,2.86-9.98,3.18C307.47,325.04,307.33,325.04,307.18,325.04z M305.05,311.49
				c-0.58,0-1.12,0.25-1.5,0.7c-0.4,0.47-0.55,1.08-0.42,1.68c0.77,3.53,1.78,5.58,2.49,6.68c0,0,0,0,0,0
				c0.36,0.57,1.04,0.9,1.71,0.84c3.47-0.27,6.21-1.11,8.14-2.5c0.46-0.33,0.75-0.86,0.78-1.44c0.03-0.59-0.2-1.15-0.63-1.54
				c-3.82-3.42-7.81-4.29-10.48-4.42C305.11,311.49,305.08,311.49,305.05,311.49z"/>
		</g>
	</g>
</g>
</svg>
