<?xml version="1.0" encoding="utf-8"?>
<!-- Generator: Adobe Illustrator 25.0.0, SVG Export Plug-In . SVG Version: 6.00 Build 0)  -->
<svg version="1.1" id="Capa_1" xmlns="http://www.w3.org/2000/svg" xmlns:xlink="http://www.w3.org/1999/xlink" x="0px" y="0px"
	 viewBox="0 0 612 792" style="enable-background:new 0 0 612 792;" xml:space="preserve">
<style type="text/css">
	.st0{fill:#FFFFFF;}
	.st1{fill:#FBCE1A;}
	.st2{fill:#022D50;}
</style>
<g>
	<g>
		<path class="st0" d="M485.95,508.86H98.32c-14.07,0-25.48-11.41-25.48-25.48V209.9c0-14.07,11.41-25.48,25.48-25.48h387.63
			c14.07,0,25.48,11.41,25.48,25.48v273.48C511.43,497.45,500.02,508.86,485.95,508.86z"/>
		<g>
			<path d="M290.16,509.43H90.87c-10.46,0-18.97-8.51-18.97-18.97V202.82c0-10.46,8.51-18.97,18.97-18.97h118.12
				c0.32,0,0.57,0.26,0.57,0.57s-0.26,0.57-0.57,0.57H90.87c-9.83,0-17.82,8-17.82,17.82v287.64c0,9.83,8,17.82,17.82,17.82h199.3
				c0.32,0,0.57,0.26,0.57,0.57S290.48,509.43,290.16,509.43z"/>
			<path d="M510.99,450.76c-0.3-0.02-0.51-0.2-0.51-0.39V384.8c0-0.2,0.22-0.38,0.52-0.4c0.34-0.02,0.62,0.16,0.62,0.37v65.61
				C511.63,450.6,511.34,450.78,510.99,450.76z"/>
			<path d="M511.05,275.25c-0.32,0-0.57-0.26-0.57-0.57v-71.86c0-9.83-8-17.82-17.82-17.82H317.76c-0.32,0-0.57-0.26-0.57-0.57
				s0.26-0.57,0.57-0.57h174.89c10.46,0,18.97,8.51,18.97,18.97v71.86C511.63,274.99,511.37,275.25,511.05,275.25z"/>
			<path d="M394.93,204.79H271.71c-0.32,0-0.57-0.26-0.57-0.57s0.26-0.57,0.57-0.57h123.22c0.32,0,0.57,0.26,0.57,0.57
				S395.25,204.79,394.93,204.79z"/>
			<path d="M96.09,275.46c-0.32,0-0.57-0.26-0.57-0.57v-57.68c0-7.48,6.08-13.56,13.56-13.56H215.8c0.32,0,0.57,0.26,0.57,0.57
				s-0.26,0.57-0.57,0.57H109.08c-6.85,0-12.42,5.57-12.42,12.42v57.68C96.67,275.2,96.41,275.46,96.09,275.46z"/>
			<path d="M341.4,469.03H109.08c-7.48,0-13.56-6.08-13.56-13.56v-92.09c0-0.32,0.26-0.57,0.57-0.57c0.32,0,0.57,0.26,0.57,0.57
				v92.09c0,6.85,5.57,12.42,12.42,12.42H341.4c0.32,0,0.57,0.26,0.57,0.57S341.72,469.03,341.4,469.03z"/>
			<path d="M486.45,307.03c-0.32,0-0.57-0.26-0.57-0.57v-89.25c0-6.85-5.57-12.42-12.42-12.42h-7.81c-0.32,0-0.57-0.26-0.57-0.57
				s0.26-0.57,0.57-0.57h7.81c7.48,0,13.56,6.08,13.56,13.56v89.25C487.02,306.77,486.76,307.03,486.45,307.03z"/>
			<path d="M510.99,326.36c-0.3-0.02-0.51-0.2-0.51-0.39V260.4c0-0.2,0.22-0.38,0.52-0.4c0.34-0.02,0.62,0.16,0.62,0.37v65.61
				C511.63,326.21,511.34,326.38,510.99,326.36z"/>
		</g>
	</g>
	<g>
		<g>
			<path class="st0" d="M480.16,494.11h-379.1c-2.71,0-4.91-2.2-4.91-4.91c0-2.71,2.2-4.91,4.91-4.91h379.1
				c2.71,0,4.91,2.2,4.91,4.91S482.87,494.11,480.16,494.11z"/>
			<path d="M480.16,494.69h-379.1c-3.03,0-5.49-2.46-5.49-5.49c0-3.03,2.46-5.49,5.49-5.49h379.1c3.03,0,5.49,2.46,5.49,5.49
				C485.65,492.22,483.19,494.69,480.16,494.69z M101.06,484.86c-2.39,0-4.34,1.95-4.34,4.34s1.95,4.34,4.34,4.34h379.1
				c2.39,0,4.34-1.95,4.34-4.34s-1.95-4.34-4.34-4.34H101.06z"/>
		</g>
		<g>
			<circle class="st0" cx="273.88" cy="489.03" r="7.71"/>
			<path d="M273.88,497.31c-4.57,0-8.28-3.71-8.28-8.28s3.71-8.28,8.28-8.28s8.28,3.71,8.28,8.28S278.44,497.31,273.88,497.31z
				 M273.88,481.89c-3.93,0-7.13,3.2-7.13,7.13c0,3.93,3.2,7.13,7.13,7.13c3.93,0,7.13-3.2,7.13-7.13
				C281.01,485.09,277.81,481.89,273.88,481.89z"/>
		</g>
	</g>
	<g>
		<path d="M223.59,468.17h66.98c-5.93-52.68-11.86-86.29-11.86-86.29l-100.87-17.6l-10.07,28.77c-3.01,8.71-7.14,21.52-10.99,37.37
			c-2.06,8.5-4.97,17.15-7.31,37.76H223.59z"/>
		<path class="st0" d="M223.6,468.75c-0.06,0-0.12-0.01-0.17-0.03c-0.3-0.1-0.47-0.42-0.37-0.72c4.87-15.26,14.36-16.18,14.76-16.21
			c0.31-0.02,0.59,0.21,0.62,0.53c0.02,0.31-0.21,0.59-0.52,0.62c-0.09,0.01-9.14,0.94-13.77,15.42
			C224.07,468.59,223.84,468.75,223.6,468.75z"/>
	</g>
	<path d="M292.5,410.34c-0.13,8.4,0.34,15.83-16.59,16.88c-20.06,1.24-35.37-19.83-35.37-19.83S292.55,407.54,292.5,410.34z"/>
	<g>
		<path class="st0" d="M391.38,248.79l9.7-13c0,0-6.24-10.5-0.65-16.3c9.17-9.5,7.29-27,12.11-30.62c1.91-1.43,4.63,0.12,4.56,2.51
			l-0.37,12.33c0.09,3.31,5.27,6.27,8.05,4.49c5.38-3.43,10.6-5.09,16.62-6.54c3.17-0.76,7.41-1.33,9.68-0.87
			c3.47,0.7,4.18,3.46,1.65,5.93c-7.7,7.48-27.72,11.09-32.51,26.94c-1.84,6.08-7.91,13.93-12.62,21.47L391.38,248.79z"/>
		<path d="M407.6,255.71c-0.07,0-0.14-0.01-0.21-0.04l-16.22-6.35c-0.17-0.07-0.29-0.2-0.34-0.38c-0.05-0.17-0.02-0.36,0.09-0.5
			l9.47-12.7c-1.05-1.9-4.73-10.35-0.38-16.65c4.75-6.89,6.74-13.31,8.05-19.74c1.05-5.17,1.88-9.26,4.13-10.94
			c1.04-0.78,2.37-0.88,3.55-0.27c1.23,0.64,1.97,1.89,1.93,3.25l-0.37,12.33c0.04,1.34,1.17,2.81,2.88,3.72
			c1.59,0.84,3.23,0.95,4.29,0.27c5.38-3.43,10.6-5.13,16.8-6.61c3.24-0.78,7.57-1.35,9.93-0.87c1.86,0.38,3.1,1.32,3.5,2.65
			c0.4,1.35-0.17,2.9-1.56,4.25c-2.66,2.59-6.76,4.72-11.1,6.98c-8.51,4.43-18.16,9.45-21.27,19.72c-1.36,4.49-4.89,9.79-8.62,15.39
			c-1.36,2.04-2.77,4.16-4.06,6.22C407.98,255.61,407.79,255.71,407.6,255.71z M392.29,248.53l15.08,5.9
			c1.23-1.95,2.54-3.92,3.82-5.84c3.69-5.53,7.17-10.76,8.48-15.09c3.25-10.73,13.12-15.87,21.84-20.4
			c4.26-2.22,8.29-4.31,10.83-6.78c1.08-1.05,1.54-2.18,1.26-3.11c-0.27-0.91-1.2-1.57-2.62-1.85c-2.19-0.44-6.31,0.12-9.43,0.87
			c-6.08,1.46-11.2,3.12-16.45,6.46c-1.43,0.91-3.46,0.82-5.44-0.23c-2.07-1.1-3.44-2.96-3.49-4.73l0.37-12.36
			c0.03-0.93-0.48-1.77-1.31-2.2c-0.78-0.41-1.65-0.34-2.33,0.17c-1.9,1.42-2.73,5.52-3.69,10.26c-1.34,6.58-5.1,15.34-8.35,20.3
			c-4.12,6.3,0.67,15.5,0.73,15.61c0.12,0.2,0.1,0.45-0.03,0.63L392.29,248.53z"/>
	</g>
	<path class="st0" d="M391.98,236.32c0,0-34.83,46.7-52.96,60.37c-7.92-19.11-21.39-42.31-43.3-56.8
		c-26.81-17.72-76.24-18.07-102.8-11.02c-8.33,2.21-15.75,4.55-22.33,7.09c-25.7,9.91-21.24,51.17-8.96,98.33
		c5.15,19.76,4.13,40.65-2.2,60.06c-4.33,13.26-7.2,26.71-2.26,29.44c10.31,5.7,24.42,8.92,40.14,3.15
		c31.44-11.54,80.51-24.61,95.16-14.48l1.43-68.18c3.14,6.43,8.55,12.46,17.46,16.96c53,26.72,106.3-108.79,106.3-108.79
		L391.98,236.32z"/>
	<path class="st0" d="M174.74,310.93c-28.83,4.46-23.95,30.73-23.95,30.73l6.03,39.74l-28.93,18.65c0,0-57.98-61.8-33.64-111.46
		c20.16-41.12,90.42-57.33,90.42-57.33L174.74,310.93z"/>
	<path class="st1" d="M225.21,224.45c-8.04,0.08-31.88,1.55-73.98,18.01c-53.03,20.73-60.84,57.47-60.84,57.47
		s-5.58,10.04,1.12,36.95c6.69,26.91,29.7,55.22,29.7,55.22l6.68,7.94l28.93-18.65l-2.92-19.28l-3.55-21.05l0.19-7.18l1.8-7.01
		l2.05-4.08l1.55-2.22l2.32-2.54l0.59,4.06l3.21,13.8l2.37,14.36l0.45,12.44l-0.72,10.99l-2.51,12.69l-2.23,7.96l-0.3,0.82
		c0,0,2.56,2.3,6.85-0.26c4.29-2.56,12.76-6.22,12.76-6.22s5.59-2.04,9.78,2.51c4.18,4.55,11.5,9.31,11.5,9.31s6.77,3.92,5.84,7.74
		c-0.93,3.82-11.7,5.23-11.7,5.23l-6.22-0.05l-3.26-0.45l-6.41,0.5l-8.26,2.46l-5.28,0.99l-6.44,0.07l-3.86-0.54l0.63,4.39
		l1.36,2.35l4.08,2.35l8.1,2.88l7.69,1.55l9.57-0.34l5.02-0.78l10.67-3.4l8.84-3.19l6.75-2.04l15.69-4.76l11.56-2.72l16.31-2.72
		l8.94-1.05l9.41-0.31l4.44,0.63l3.82,0.78l3.29,1.29l1.89,1.09l0.36-11.48l0.31-19.19l0.25-13.76l-0.56-0.57h-2.55l-2.44-0.17
		l-1.66-0.4l-2.39-0.65l-2.16-0.63l-2.16-0.91l-2.44-1.12l-2.34-1.47l-3.18-2.46l-2.37-2.21l-2.58-3.14l-2.16-4.04l-2.02-4.88
		l-1.25-4.46l-0.3-5.23l0.59-5.82l0.6-3.47l2.72-6.12l4.2-5.51l3.42-3.28l3.94-2.77c0,0,12.06-7.65,25.06-2.81
		s18.48,14.85,18.48,14.85l3.01,9.12l0.45,8.33l-0.78,4.5l-1.36,4.92l-2.41,4.97l-4.39,5.75l-3.19,2.56l1.52,1.2l5.7,1.73
		c0,0,14.17,3.66,27.5-5.33s20.76-18.25,20.76-18.25l11.82-14.64l5.91-8.89l5.65-8.84l7.01-12.39l7.06-13.18l4.91-10.22l6.64-14.36
		l2-5.31l-25.67-16.13l-1.17,1.56l-7.79,9.69l-5.86,8.15l-11.14,13.6l-3.19,3.45l-4.65,5.18l-5.07,5.65l-5.44,5.44l-6.8,6.12
		l-1.85,1.54l-3.27-7.34l-3.97-7.95l-5.8-9.83l-4.71-6.9l-4.07-5.19l-4.5-5l-5.02-5.07l-4.86-4.55l-7.48-5.44l-8.16-4.08l-8.58-3.56
		l-10.46-3.24l-11.56-2.04l-0.84-0.1l1.52,2.14l1.36,1.36l3.4,0.68l4.43,1.49l1.58,0.63l0.57,0.34v0.99v0.84l-1.58,0.92l-2.96,1.59
		l-5.07,2.3l-8.68,2.51l-3.24,0.63h-2.72l-2.35,0.2l-2.41-0.2l-5.45-0.34l-5.25-1.1l-5.62-1.96l-4.08-2.04l-4.08-2.72l-2.04-1.36
		l-1.88-1.25v-1.73l0.73-0.84l1.15-0.26l3.29-0.8l2.35-0.56l2.46-0.52l2.46-1.2C223.64,226.12,225.31,224.45,225.21,224.45z"/>
	<path d="M127.88,400.63c-0.15,0-0.31-0.06-0.42-0.18c-0.15-0.16-14.68-15.75-26.04-37.23c-6.68-12.63-10.97-24.8-12.76-36.16
		c-2.24-14.25-0.54-27.27,5.06-38.7c10.49-21.4,34.63-35.93,53.05-44.36c19.91-9.11,37.59-13.24,37.76-13.28
		c0.31-0.07,0.62,0.12,0.69,0.43c0.07,0.31-0.39,0.04-0.7,0.11c-0.18,0.04-17.49,4.72-37.3,13.79
		c-18.23,8.35-42.14,22.72-52.47,43.81c-12.47,25.43-2.7,54.19,7.69,73.83c10.35,19.57,23.34,34.21,25.54,36.63l28.22-18.19
		l-5.97-39.37c-0.08-0.44-2.01-11.32,4.41-20.38c4.18-5.89,10.91-9.6,20.01-11c0.31-0.05,0.6,0.17,0.65,0.48
		c0.05,0.31-0.17,0.61-0.48,0.65c-8.78,1.36-15.25,4.9-19.24,10.52c-6.15,8.66-4.25,19.43-4.23,19.54l6.03,39.76
		c0.03,0.22-0.07,0.45-0.26,0.57l-28.93,18.65C128.1,400.6,127.99,400.63,127.88,400.63z"/>
	<g>
		<g>
			<path class="st0" d="M388.45,126.19h-92.44c-5.23,0-9.24,4.26-9.24,9.49v26.75c0,5.23,4,9.46,9.24,9.46c0.05,0,1.46,0,3.34,0
				v17.86l12.16-17.86c17.68,0,76.93,0,76.93,0c5.23,0,9.72-4.23,9.72-9.46v-26.75C398.17,130.45,393.68,126.19,388.45,126.19z"/>
			<path d="M299.36,190.33c-0.06,0-0.11-0.01-0.17-0.03c-0.24-0.07-0.4-0.3-0.4-0.55v-17.29h-2.77c-5.5,0-9.81-4.41-9.81-10.03
				v-26.75c0-5.64,4.31-10.06,9.81-10.06h92.44c5.58,0,10.29,4.61,10.29,10.06v26.75c0,5.44-4.71,10.03-10.29,10.03h-76.63
				l-11.99,17.61C299.72,190.24,299.54,190.33,299.36,190.33z M296.01,126.76c-4.86,0-8.66,3.92-8.66,8.92v26.75
				c0,4.98,3.81,8.89,8.66,8.89h3.34c0.32,0,0.57,0.26,0.57,0.57v16.01l11.12-16.33c0.11-0.16,0.28-0.25,0.47-0.25h76.93
				c4.96,0,9.14-4.07,9.14-8.89v-26.75c0-4.83-4.19-8.92-9.14-8.92H296.01z"/>
		</g>
		<g>
			<path d="M350.64,145.27h28.5c1.84,0,3.33-1.49,3.33-3.33c0-1.84-1.49-3.33-3.33-3.33h-28.5c-1.84,0-3.33,1.49-3.33,3.33
				S348.8,145.27,350.64,145.27z"/>
			<path d="M319.37,145.27h15.24c1.84,0,3.33-1.49,3.33-3.33c0-1.84-1.49-3.33-3.33-3.33h-15.24c-1.84,0-3.33,1.49-3.33,3.33
				S317.53,145.27,319.37,145.27z"/>
			<path d="M305.8,159.67h73.34c1.84,0,3.33-1.49,3.33-3.33c0-1.84-1.49-3.33-3.33-3.33H305.8c-1.84,0-3.33,1.49-3.33,3.33
				C302.47,158.18,303.96,159.67,305.8,159.67z"/>
		</g>
	</g>
	<g>
		<g>
			<g>
				<path class="st0" d="M539.75,539.45c-4.73-9.74-5.18-19.55,0-29.46l-3.72-4.46l-129.17,3.35l3.51,32.31l125.91,1.13
					L539.75,539.45z"/>
				<path d="M536.28,542.89C536.28,542.89,536.28,542.89,536.28,542.89l-125.92-1.13c-0.29,0-0.53-0.22-0.56-0.51l-3.51-32.31
					c-0.02-0.16,0.03-0.32,0.14-0.44c0.11-0.12,0.26-0.19,0.42-0.2l129.17-3.34c0.17,0.01,0.34,0.07,0.45,0.21l3.72,4.46
					c0.15,0.18,0.17,0.43,0.07,0.63c-4.9,9.38-4.9,18.84,0.01,28.94c0.12,0.24,0.05,0.52-0.15,0.69l-3.47,2.87
					C536.54,542.85,536.42,542.89,536.28,542.89z M410.89,540.62l125.19,1.13l2.96-2.45c-4.75-10.04-4.74-19.87,0.03-29.23
					l-3.3-3.96l-128.27,3.32L410.89,540.62z"/>
			</g>
			<g>
				<path class="st2" d="M317.83,501.97h138.67h85.01c2.28,0,4.13,1.81,4.13,4.04c0,2.23-1.85,4.04-4.13,4.04H421.32
					c-6.57,0-11.9,5.21-11.9,11.63v6.54c0,6.42,5.33,11.63,11.9,11.63H541.5c2.28,0,4.13,1.81,4.13,4.04c0,2.23-1.85,4.04-4.13,4.04
					H317.83c-12.12,0-21.95-9.6-21.95-21.44v-3.06C295.88,511.57,305.71,501.97,317.83,501.97z"/>
				<path d="M541.5,548.49H317.83c-12.42,0-22.52-9.87-22.52-22.01v-3.06c0-12.14,10.1-22.01,22.52-22.01H541.5
					c2.59,0,4.71,2.07,4.71,4.61s-2.11,4.61-4.71,4.61H421.32c-6.25,0-11.33,4.96-11.33,11.06v6.54c0,6.1,5.08,11.06,11.33,11.06
					H541.5c2.59,0,4.71,2.07,4.71,4.61S544.1,548.49,541.5,548.49z M317.83,502.54c-11.79,0-21.38,9.36-21.38,20.87v3.06
					c0,11.51,9.59,20.87,21.38,20.87H541.5c1.96,0,3.56-1.55,3.56-3.46c0-1.91-1.6-3.46-3.56-3.46H421.32
					c-6.88,0-12.48-5.47-12.48-12.2v-6.54c0-6.73,5.6-12.2,12.48-12.2H541.5c1.96,0,3.56-1.55,3.56-3.46s-1.6-3.46-3.56-3.46H317.83
					z"/>
			</g>
			<g>
				<path d="M460.58,519.1h-26.82c-0.32,0-0.57-0.26-0.57-0.57c0-0.32,0.26-0.57,0.57-0.57h26.82c0.32,0,0.57,0.26,0.57,0.57
					C461.16,518.85,460.9,519.1,460.58,519.1z"/>
				<path d="M526.18,519.1h-54.64c-0.32,0-0.57-0.26-0.57-0.57c0-0.32,0.26-0.57,0.57-0.57h54.64c0.32,0,0.57,0.26,0.57,0.57
					C526.75,518.85,526.49,519.1,526.18,519.1z"/>
				<path d="M526.77,525.06h-84.14c-0.32,0-0.57-0.26-0.57-0.57c0-0.32,0.26-0.57,0.57-0.57h84.14c0.32,0,0.57,0.26,0.57,0.57
					C527.34,524.81,527.08,525.06,526.77,525.06z"/>
				<path d="M443.7,532.55h-8.46c-0.32,0-0.57-0.26-0.57-0.57s0.26-0.57,0.57-0.57h8.46c0.32,0,0.57,0.26,0.57,0.57
					S444.02,532.55,443.7,532.55z"/>
				<path d="M532.04,532.55h-74.01c-0.32,0-0.57-0.26-0.57-0.57s0.26-0.57,0.57-0.57h74.01c0.32,0,0.57,0.26,0.57,0.57
					S532.36,532.55,532.04,532.55z"/>
			</g>
		</g>
		<g>
			<g>
				<path class="st0" d="M289.42,593.89h206.84v-41.78H289.42C294.68,566.22,294.82,580.15,289.42,593.89z"/>
				<path d="M496.26,594.46H289.42c-0.19,0-0.37-0.09-0.47-0.25c-0.11-0.16-0.13-0.36-0.06-0.53c5.25-13.35,5.25-27.27,0-41.37
					c-0.07-0.18-0.04-0.37,0.07-0.53c0.11-0.15,0.28-0.25,0.47-0.25h206.84c0.32,0,0.57,0.26,0.57,0.57v41.78
					C496.83,594.2,496.57,594.46,496.26,594.46z M290.25,593.31h205.43v-40.63H290.24C295.21,566.52,295.22,580.18,290.25,593.31z"
					/>
			</g>
			<path d="M474.81,554.17H288.19c-1.9,0-3.44-1.47-3.44-3.29c0-1.82,1.54-3.29,3.44-3.29h233.63c8.35,0,15.11,6.48,15.11,14.47
				v22.74c0,7.99-6.77,14.47-15.11,14.47H288.19c-1.9,0-3.44-1.47-3.44-3.29s1.54-3.29,3.44-3.29h186.62
				c5.9,0,10.68-4.58,10.68-10.22v-18.07C485.48,558.75,480.7,554.17,474.81,554.17z"/>
			<g>
				<path d="M465.19,562.6h-36.83c-0.32,0-0.57-0.26-0.57-0.57s0.26-0.57,0.57-0.57h36.83c0.32,0,0.57,0.26,0.57,0.57
					S465.51,562.6,465.19,562.6z"/>
				<path d="M383.45,568.18h-37.84c-0.32,0-0.57-0.26-0.57-0.57c0-0.32,0.26-0.57,0.57-0.57h37.84c0.32,0,0.57,0.26,0.57,0.57
					C384.03,567.92,383.77,568.18,383.45,568.18z"/>
				<path d="M450.56,568.18h-25.3c-0.32,0-0.57-0.26-0.57-0.57c0-0.32,0.26-0.57,0.57-0.57h25.3c0.32,0,0.57,0.26,0.57,0.57
					C451.13,567.92,450.88,568.18,450.56,568.18z"/>
				<path d="M475.97,568.18h-13.38c-0.32,0-0.57-0.26-0.57-0.57c0-0.32,0.26-0.57,0.57-0.57h13.38c0.32,0,0.57,0.26,0.57,0.57
					C476.54,567.92,476.28,568.18,475.97,568.18z"/>
				<path d="M384.97,579.82h-46.42c-0.32,0-0.57-0.26-0.57-0.57c0-0.32,0.26-0.57,0.57-0.57h46.42c0.32,0,0.57,0.26,0.57,0.57
					C385.54,579.56,385.28,579.82,384.97,579.82z"/>
				<path d="M474.78,579.82h-56.01c-0.32,0-0.57-0.26-0.57-0.57c0-0.32,0.26-0.57,0.57-0.57h56.01c0.32,0,0.57,0.26,0.57,0.57
					C475.35,579.56,475.09,579.82,474.78,579.82z"/>
				<path d="M396.71,579.82h-3.47c-0.32,0-0.57-0.26-0.57-0.57c0-0.32,0.26-0.57,0.57-0.57h3.47c0.32,0,0.57,0.26,0.57,0.57
					C397.28,579.56,397.03,579.82,396.71,579.82z"/>
			</g>
		</g>
		<g>
			<g>
				<path class="st0" d="M535.51,497.38H369.55c-8.25,0-11.86-6.69-11.86-14.94v-7.15c0-8.25,3.61-14.94,11.86-14.94h165.97
					C530.84,472.86,530.72,485.2,535.51,497.38z"/>
				<path d="M535.51,497.95H369.55c-7.78,0-12.43-5.8-12.43-15.51v-7.15c0-9.71,4.65-15.51,12.43-15.51h165.97
					c0.19,0,0.36,0.09,0.47,0.25c0.11,0.15,0.13,0.35,0.07,0.53c-4.66,12.48-4.66,24.8,0,36.62c0.07,0.18,0.05,0.38-0.06,0.53
					C535.88,497.85,535.7,497.95,535.51,497.95z M369.55,460.92c-7.07,0-11.28,5.37-11.28,14.36v7.15c0,8.99,4.22,14.36,11.28,14.36
					h165.13c-4.37-11.6-4.36-23.67,0.01-35.88H369.55z"/>
			</g>
			<g>
				<path class="st0" d="M370.56,462.18H536.6c1.69,0,3.05-1.31,3.05-2.92c0-1.61-1.37-2.92-3.05-2.92H367.66
					c-7.41,0-13.41,5.74-13.41,12.82v20.15c0,7.08,6,12.82,13.41,12.82H536.6c1.69,0,3.05-1.31,3.05-2.92
					c0-1.61-1.37-2.92-3.05-2.92H370.56c-5.23,0-9.47-4.06-9.47-9.06v-16.01C361.09,466.23,365.33,462.18,370.56,462.18z"/>
				<path d="M536.6,502.71H367.66c-7.71,0-13.98-6.01-13.98-13.39v-20.15c0-7.38,6.27-13.39,13.98-13.39H536.6
					c2,0,3.62,1.57,3.62,3.49c0,1.92-1.63,3.49-3.62,3.49H370.56c-4.91,0-8.9,3.81-8.9,8.48v16.01c0,4.68,3.99,8.48,8.9,8.48H536.6
					c2,0,3.62,1.57,3.62,3.49C540.22,501.14,538.6,502.71,536.6,502.71z M367.66,456.91c-7.08,0-12.84,5.49-12.84,12.25v20.15
					c0,6.75,5.76,12.25,12.84,12.25H536.6c1.37,0,2.48-1.05,2.48-2.35c0-1.29-1.11-2.34-2.48-2.34H370.56
					c-5.54,0-10.05-4.32-10.05-9.63v-16.01c0-5.31,4.51-9.63,10.05-9.63H536.6c1.37,0,2.48-1.05,2.48-2.34
					c0-1.29-1.11-2.35-2.48-2.35H367.66z"/>
			</g>
			<path d="M536.6,462.75h-42.5c-0.32,0-0.57-0.26-0.57-0.57c0-0.32,0.26-0.57,0.57-0.57h42.5c1.37,0,2.48-1.05,2.48-2.34
				c0-1.29-1.11-2.35-2.48-2.35h-37.31c-0.32,0-0.57-0.26-0.57-0.57c0-0.32,0.26-0.57,0.57-0.57h37.31c2,0,3.62,1.57,3.62,3.49
				C540.22,461.18,538.6,462.75,536.6,462.75z"/>
			<path d="M536.6,502.71H416.49c-0.32,0-0.57-0.26-0.57-0.57c0-0.32,0.26-0.57,0.57-0.57H536.6c1.37,0,2.48-1.05,2.48-2.35
				c0-1.29-1.11-2.34-2.48-2.34H415.84c-0.32,0-0.57-0.26-0.57-0.57c0-0.32,0.26-0.57,0.57-0.57H536.6c2,0,3.62,1.57,3.62,3.49
				C540.22,501.14,538.6,502.71,536.6,502.71z"/>
			<g>
				<path d="M525.77,474.66h-74.5c-0.32,0-0.57-0.26-0.57-0.57c0-0.32,0.26-0.57,0.57-0.57h74.5c0.32,0,0.57,0.26,0.57,0.57
					C526.34,474.4,526.08,474.66,525.77,474.66z"/>
				<path d="M440.03,474.66h-16.36c-0.32,0-0.57-0.26-0.57-0.57c0-0.32,0.26-0.57,0.57-0.57h16.36c0.32,0,0.57,0.26,0.57,0.57
					C440.6,474.4,440.35,474.66,440.03,474.66z"/>
				<path d="M525.77,484.97h-78.03c-0.32,0-0.57-0.26-0.57-0.57c0-0.32,0.26-0.57,0.57-0.57h78.03c0.32,0,0.57,0.26,0.57,0.57
					C526.34,484.71,526.08,484.97,525.77,484.97z"/>
				<path d="M437.1,484.97h-8.21c-0.32,0-0.57-0.26-0.57-0.57c0-0.32,0.26-0.57,0.57-0.57h8.21c0.32,0,0.57,0.26,0.57,0.57
					C437.67,484.71,437.41,484.97,437.1,484.97z"/>
			</g>
		</g>
	</g>
	<g>
		<path d="M495.41,375.45c5.42,0,10.63-9.25,10.83-16.21c0.68-23.26-7.93-33.96-19.22-42.41c-13.84-10.34-17.06-11.77-23.18-15.42
			c-1.44-0.86-5.84-4.39-6.97-5.92c-11.3-15.29-33.77,0-29.35,11.39c1.88,4.84,5.88,8.41,10.46,10.42c0.83,0.36,1.74,0.72,2.72,1.04
			c2.85,0.94,5.07,3.33,5.8,6.41c2.39,10.01,6.85,41.85,39.35,22.63c2.45-1.45,7.05,9.14,7.67,11.86
			C495.25,366.89,493.36,375.45,495.41,375.45z"/>
		<g>
			<g>
				<path class="st0" d="M491.15,394.53c5.12-9.21,12.79-29.14,3.02-48.44v0.01c-1.15-1.79-1.55-3.47-2.97-5.07
					c-5.37-6.04-13.18-7.34-22.7-8.9c-8.4-1.38-27.76-4.57-38.96,5.28c-1.57,1.38-2.74,2.83-3.64,4.37
					c-1.89,2.34-6.74,9.38-9.85,23.23c-3.93,17.5-25.95,28.67-37.31,23.2c-11.36-5.46-11.71-8.27-11.71-8.27l0.9,8.81
					c0,0,19.06,35.53,49.53,16.59c-5.95,19.03-12.68,24.2-9.14,35.39c6.07,19.17,32.68,25.57,37.42,26.6
					c13.53,2.95,39.2,3.69,49.62-11.11C505,442.54,490.31,431.45,491.15,394.53z"/>
				<path d="M462.49,469.65c-6.31,0-12.28-0.77-16.86-1.77c-7.38-1.61-31.93-8.31-37.85-26.99c-2.38-7.51-0.18-12.55,3.15-20.16
					c1.62-3.71,3.61-8.26,5.53-14.13c-8.08,4.66-16.08,5.98-23.82,3.91c-15.78-4.22-25.12-21.33-25.21-21.5
					c-0.04-0.07-0.06-0.14-0.06-0.21l-0.9-8.81c-0.03-0.31,0.19-0.59,0.5-0.63c0.32-0.04,0.59,0.19,0.63,0.5
					c0,0,0.77,2.72,11.39,7.83c4.71,2.27,11.64,1.63,18.53-1.71c9.16-4.43,16.04-12.52,17.97-21.1c3.11-13.87,7.96-20.99,9.94-23.43
					c0.97-1.65,2.19-3.12,3.73-4.47c11.4-10.02,31.03-6.79,39.41-5.42c9.42,1.55,17.54,2.88,23.06,9.09
					c0.91,1.03,1.43,2.09,1.93,3.12c0.31,0.64,0.63,1.3,1.05,1.96c0.02,0.03,0.05,0.06,0.07,0.1c10.64,21.01,0.52,42.55-2.96,48.85
					c-0.38,17.25,2.72,29.05,4.98,37.68c2.64,10.08,4.39,16.74-0.85,24.18C488.72,466.66,474.94,469.65,462.49,469.65z
					 M417.47,404.76c0.12,0,0.25,0.04,0.35,0.12c0.19,0.15,0.27,0.4,0.2,0.62c-2.07,6.63-4.27,11.65-6.03,15.68
					c-3.34,7.64-5.36,12.26-3.11,19.36c5.88,18.56,31.85,25.1,37,26.22c12.41,2.7,38.62,3.91,49.03-10.88
					c4.93-7.01,3.24-13.46,0.68-23.23c-2.28-8.71-5.41-20.65-5.01-38.14c0-0.09,0.03-0.18,0.07-0.27
					c3.35-6.01,13.45-27.22,3.04-47.85c-0.47-0.74-0.82-1.45-1.16-2.14c-0.49-1.01-0.95-1.96-1.76-2.87
					c-5.25-5.91-12.8-7.15-22.37-8.72c-8.24-1.35-27.5-4.52-38.49,5.14c-1.46,1.28-2.61,2.66-3.52,4.23
					c-0.01,0.03-0.03,0.05-0.05,0.07c-1.9,2.35-6.66,9.29-9.74,23c-2,8.92-9.12,17.3-18.59,21.88c-7.2,3.49-14.5,4.13-19.53,1.71
					c-6.21-2.99-9.22-5.23-10.67-6.69l0.67,6.54c0.77,1.38,9.76,16.92,24.45,20.84c7.83,2.09,15.98,0.56,24.22-4.57
					C417.26,404.79,417.37,404.76,417.47,404.76z"/>
			</g>
			<g>
				<path class="st0" d="M430.23,386.16c0,0-19.29-8.11-26.93-21.66c-0.75-1.34-1.78-2.5-2.97-3.47l-12.96-11.13
					c-0.85-0.73-2.11,0.12-1.75,1.18c0.86,2.58,2.53,6.15,5.65,9.04c0,0-3.16,6.52,2.15,11.52c0,0,3.98,3.17,6.36,3.22
					c0,0,6.96,22.85,25.73,29.65C425.52,404.52,430.79,396.51,430.23,386.16z"/>
				<path d="M425.52,405.1c-0.07,0-0.13-0.01-0.2-0.03c-17.51-6.34-24.95-26.64-25.96-29.65c-2.54-0.35-6.13-3.19-6.29-3.31
					c-4.82-4.54-3.07-10.28-2.48-11.82c-3.04-2.94-4.67-6.5-5.51-9c-0.24-0.72,0.02-1.49,0.65-1.92c0.63-0.42,1.44-0.38,2.02,0.12
					l12.96,11.13c1.29,1.06,2.34,2.28,3.09,3.62c7.45,13.21,26.46,21.33,26.65,21.41c0.2,0.08,0.34,0.28,0.35,0.5
					c0.56,10.41-4.59,18.37-4.81,18.71C425.89,405,425.7,405.1,425.52,405.1z M386.67,350.21c-0.14,0-0.25,0.06-0.3,0.1
					c-0.08,0.05-0.32,0.25-0.2,0.6c0.82,2.45,2.44,5.97,5.49,8.8c0.18,0.17,0.24,0.44,0.13,0.67c-0.12,0.25-2.9,6.21,2.03,10.86
					c1.03,0.82,4.19,3.03,5.98,3.07c0.25,0.01,0.46,0.17,0.53,0.41c0.07,0.22,6.98,22.29,24.94,29.11c0.99-1.68,4.76-8.67,4.4-17.28
					c-2.61-1.16-19.78-9.18-26.87-21.76c-0.69-1.22-1.64-2.33-2.83-3.31l-12.97-11.13C386.89,350.24,386.77,350.21,386.67,350.21z"
					/>
			</g>
			<polygon points="371.14,371.41 410.4,417.03 388.54,417.67 346.4,371.75 			"/>
			<g>
				<path class="st0" d="M374.05,401.93c0,0-9.01-4.58-12.05-8.14c-1.8-2.1-1.5-7.26-0.96-11.13c0.21-1.51,1.95-1.63,2.89-0.44
					l7.07,8.76C373.91,396.2,374.05,401.93,374.05,401.93z"/>
				<path d="M374.05,402.5c-0.09,0-0.18-0.02-0.26-0.06c-0.37-0.19-9.15-4.67-12.23-8.28c-1.55-1.81-1.91-5.71-1.09-11.58
					c0.12-0.84,0.64-1.46,1.39-1.67c0.88-0.24,1.87,0.13,2.52,0.95l7.06,8.76c0.02,0.03,0.04,0.05,0.05,0.08
					c2.95,5.28,3.12,10.97,3.12,11.21c0.01,0.2-0.1,0.39-0.27,0.5C374.26,402.47,374.16,402.5,374.05,402.5z M362.4,381.99
					c-0.08,0-0.16,0.01-0.23,0.03c-0.31,0.08-0.5,0.33-0.55,0.72c-0.76,5.38-0.46,9.18,0.82,10.68c2.37,2.78,8.63,6.27,10.97,7.52
					c-0.18-1.83-0.8-5.89-2.88-9.64l-7.04-8.72C363.16,382.16,362.74,381.99,362.4,381.99z"/>
			</g>
			<g>
				<path d="M450.01,411.71c-6.49,0-13.97-1.14-22.31-4.24c-0.3-0.11-0.45-0.44-0.34-0.74c0.11-0.3,0.44-0.45,0.74-0.34
					c31.13,11.55,49.83-4.54,50.02-4.71c0.24-0.21,0.6-0.19,0.81,0.05c0.21,0.24,0.19,0.6-0.05,0.81
					C478.73,402.67,468.26,411.71,450.01,411.71z"/>
				<path d="M438.79,386.97c-1.45,0-2.96-0.08-4.53-0.23c-0.31-0.03-0.54-0.31-0.51-0.63c0.03-0.31,0.31-0.54,0.63-0.51
					c14.53,1.48,25.85-3.99,33.65-16.24c5.85-9.19,7.41-18.96,7.42-19.06c0.05-0.31,0.34-0.53,0.65-0.48
					c0.31,0.05,0.53,0.34,0.48,0.65c-0.02,0.1-1.6,10.08-7.57,19.47C463.93,377.92,454.68,386.97,438.79,386.97z"/>
				<path d="M426.44,375.45c-0.28,0-0.52-0.2-0.57-0.49c-2.95-20.16,6.36-31.62,6.46-31.73c0.2-0.24,0.56-0.28,0.81-0.07
					c0.24,0.2,0.28,0.56,0.07,0.81c-0.09,0.11-9.08,11.21-6.2,30.84c0.05,0.31-0.17,0.6-0.48,0.65
					C426.49,375.45,426.46,375.45,426.44,375.45z"/>
			</g>
		</g>
		<g>
			<g>
				<path class="st0" d="M430.63,320.57c-0.8-0.11-1.35-0.88-1.17-1.67c1.09-4.9,0.67-13.29,0.83-13.05
					c1.75,2.56,5.38-0.65,10.56-0.86c3.09-0.12,4.27,1.71,4.73,3.2c0.15,0.48,0.8,0.57,1.08,0.15c0.76-1.17,2.04-2.16,3.96-0.24
					c2.13,2.13,0.35,7.07-1.58,8.69c0.47,0.53,7.83,8.47,13.48,14.43c1.12,1.18,0.96,3.07-0.33,4.05l-5.02,3.81
					c-3.14,2.38-7.43,2.55-10.74,0.42l-0.77-0.5c-0.8-0.52-0.94-1.64-0.28-2.33l1.52-1.61c1.23-1.46,1.01-3.32,0.22-4.86l-3.1-5.26
					c-0.71,0.86-1.61,1.85-2.44,2.43c-1.65,1.15-3.71,0.97-5.17-0.42c-2-1.91-3.4-4.05-4.03-6.13L430.63,320.57z"/>
				<path d="M451.49,341.55c-1.87,0-3.74-0.52-5.38-1.57l-0.77-0.5c-0.53-0.34-0.87-0.89-0.95-1.51c-0.08-0.62,0.13-1.24,0.56-1.69
					l1.52-1.61c1.23-1.46,0.61-3.26,0.12-4.21l-2.68-4.54c-0.76,0.86-1.44,1.5-2.03,1.91c-1.86,1.3-4.23,1.11-5.89-0.47
					c-1.96-1.87-3.36-3.95-4.07-6.03l-1.38-0.19c-0.54-0.08-1.04-0.38-1.35-0.83c-0.31-0.45-0.42-1-0.3-1.53
					c0.78-3.48,0.78-8.82,0.77-11.39c0-1.92,0-1.95,0.44-2.09c0.24-0.07,0.51,0.02,0.65,0.23c0.77,1.13,2.05,0.8,4.44,0.05
					c1.54-0.48,3.47-1.08,5.62-1.16c3.61-0.16,4.87,2.2,5.3,3.61c0.66-0.95,1.39-1.48,2.21-1.57c0.86-0.09,1.77,0.32,2.68,1.23
					c0.8,0.8,1.19,1.99,1.13,3.43c-0.09,1.99-1.07,4.35-2.31,5.69c1.63,1.77,8.05,8.69,13.09,14.01c0.64,0.68,0.97,1.61,0.89,2.54
					c-0.08,0.93-0.55,1.8-1.3,2.36l-5.02,3.81C455.75,340.88,453.62,341.55,451.49,341.55z M444,324.36c0.02,0,0.03,0,0.05,0
					c0.19,0.02,0.35,0.12,0.45,0.28l3.1,5.26c1.06,2.07,0.95,4.07-0.27,5.52l-1.54,1.64c-0.2,0.21-0.29,0.49-0.25,0.77
					c0.03,0.28,0.19,0.53,0.43,0.69l0.77,0.5c3.1,1.99,7.15,1.83,10.08-0.39l5.02-3.81c0.49-0.37,0.8-0.93,0.85-1.55
					c0.05-0.62-0.16-1.21-0.58-1.66c-5.65-5.97-13.05-13.94-13.49-14.45c-0.1-0.12-0.15-0.27-0.14-0.42c0.01-0.15,0.08-0.3,0.2-0.4
					c1.05-0.88,2.24-3.15,2.34-5.28c0.03-0.78-0.08-1.85-0.79-2.57c-0.65-0.65-1.24-0.96-1.74-0.91c-0.46,0.05-0.91,0.4-1.33,1.06
					c-0.25,0.39-0.69,0.59-1.15,0.52c-0.46-0.06-0.82-0.38-0.96-0.81c-0.59-1.94-1.99-2.88-4.16-2.8c-2.01,0.08-3.77,0.63-5.33,1.11
					c-1.84,0.57-3.48,1.08-4.73,0.42c0,0.09,0,0.19,0,0.29c0,2.61,0,8.04-0.8,11.64c-0.05,0.22,0,0.44,0.12,0.63
					c0.13,0.19,0.34,0.32,0.57,0.35l1.73,0.24c0.22,0.03,0.4,0.19,0.47,0.4c0.61,2.01,1.95,4.05,3.88,5.89
					c1.27,1.22,3.02,1.36,4.44,0.36c0.64-0.45,1.42-1.23,2.33-2.32C443.67,324.44,443.83,324.36,444,324.36z"/>
			</g>
			<g>
				<path class="st0" d="M444.99,323.55l-0.99,1.38L444.99,323.55z"/>
				<path d="M444,325.51c-0.12,0-0.23-0.03-0.33-0.11c-0.26-0.18-0.32-0.54-0.13-0.8l0.99-1.38c0.18-0.26,0.54-0.32,0.8-0.13
					c0.26,0.18,0.32,0.54,0.13,0.8l-0.99,1.38C444.36,325.42,444.18,325.51,444,325.51z"/>
			</g>
		</g>
		<g>
			<g>
				<path class="st0" d="M334.78,529.06c0.12,0.52-5.95,28.3-5.95,28.3l13.96-2.34l4.2-23.49L334.78,529.06z"/>
				<path d="M328.84,557.94c-0.16,0-0.31-0.06-0.41-0.18c-0.13-0.14-0.19-0.33-0.14-0.52c2.35-10.75,5.85-27.04,5.93-28.15
					c-0.01-0.16,0.05-0.31,0.16-0.43c0.14-0.14,0.33-0.2,0.53-0.16l12.21,2.47c0.3,0.06,0.5,0.36,0.45,0.66l-4.2,23.49
					c-0.04,0.24-0.23,0.42-0.47,0.46l-13.96,2.34C328.9,557.94,328.87,557.94,328.84,557.94z M335.25,529.74
					c-0.29,1.76-1.44,7.51-5.68,26.92l12.72-2.13l4.03-22.54L335.25,529.74z"/>
			</g>
			<g>
				<g>
					<path class="st0" d="M336.25,548.25c-0.85-0.72-2.07-1.42-3.63-1.49c-2.34-0.1-4.47,1.36-5.44,3.52
						c-2.42,5.38-8.8,20.36-10.61,32.61c-0.64,4.33,2.63,7.85,7.72,5.01c8.34-4.65,19.91-15.32,25.97-31.08
						c0.7-1.81,0.45-3.85-0.69-5.42c-0.93-1.27-2.2-2.82-3.67-4.14c-1.4-1.26-3.52-1.28-4.97-0.08l-1.31,1.08
						C338.63,549.09,337.22,549.07,336.25,548.25z"/>
					<path d="M320.83,589.51c-0.99,0-1.91-0.27-2.7-0.82c-1.68-1.16-2.49-3.41-2.13-5.88c1.8-12.2,8.05-26.98,10.65-32.76
						c1.09-2.41,3.49-3.96,5.99-3.85c1.41,0.06,2.78,0.62,3.97,1.62c0.76,0.64,1.87,0.65,2.64,0.02l1.31-1.08
						c1.69-1.39,4.1-1.35,5.72,0.09c1.26,1.13,2.52,2.55,3.75,4.22c1.26,1.71,1.54,3.94,0.77,5.96
						c-6.04,15.73-17.51,26.52-26.22,31.37C323.26,589.14,321.99,589.51,320.83,589.51z M332.4,547.34c-1.96,0-3.83,1.26-4.7,3.18
						c-2.58,5.74-8.79,20.4-10.56,32.46c-0.3,2.03,0.33,3.86,1.65,4.77c1.33,0.92,3.18,0.8,5.22-0.34
						c8.54-4.76,19.78-15.34,25.71-30.78c0.63-1.65,0.4-3.47-0.62-4.87c-1.17-1.61-2.38-2.97-3.59-4.05
						c-1.19-1.07-2.97-1.1-4.23-0.06l-1.31,1.08c-1.19,0.98-2.92,0.97-4.1-0.03c-1.01-0.85-2.11-1.3-3.28-1.35
						C332.53,547.34,332.46,547.34,332.4,547.34z"/>
				</g>
				<path d="M333.37,575.85c-0.14,0-0.27-0.05-0.38-0.15c-0.23-0.21-0.25-0.57-0.04-0.81c4.69-5.17,8.41-10.86,12.85-19.63
					c0.14-0.28,0.49-0.4,0.77-0.25c0.28,0.14,0.4,0.49,0.25,0.77c-4.49,8.87-8.26,14.63-13.02,19.88
					C333.68,575.78,333.53,575.85,333.37,575.85z"/>
				<path d="M330.43,570.04c-0.07,0-0.14-0.01-0.21-0.04l-6.07-2.4c-0.29-0.12-0.44-0.45-0.32-0.74c0.12-0.29,0.45-0.44,0.74-0.32
					l6.07,2.4c0.29,0.12,0.44,0.45,0.32,0.74C330.87,569.9,330.66,570.04,330.43,570.04z"/>
				<path d="M331,564.03c-0.06,0-0.12-0.01-0.19-0.03l-5.46-1.87c-0.3-0.1-0.46-0.43-0.36-0.73c0.1-0.3,0.43-0.46,0.73-0.36
					l5.46,1.87c0.3,0.1,0.46,0.43,0.36,0.73C331.46,563.88,331.24,564.03,331,564.03z"/>
			</g>
			<g>
				<path class="st0" d="M394.84,531.59c0.33,0.42,6.5,28.18,6.5,28.18l11.68-7.99l-6.06-23.08L394.84,531.59z"/>
				<path d="M401.34,560.34c-0.07,0-0.14-0.01-0.21-0.04c-0.18-0.07-0.31-0.22-0.35-0.41c-2.39-10.74-6.06-27-6.45-28.04
					c-0.07-0.14-0.09-0.31-0.04-0.46c0.06-0.19,0.22-0.32,0.41-0.37l12.12-2.89c0.3-0.07,0.61,0.11,0.69,0.41l6.06,23.08
					c0.06,0.23-0.03,0.48-0.23,0.62l-11.68,7.99C401.57,560.31,401.46,560.34,401.34,560.34z M395.55,532.01
					c0.47,1.72,1.85,7.42,6.17,26.81l10.65-7.28l-5.82-22.15L395.55,532.01z"/>
			</g>
			<g>
				<g>
					<path class="st0" d="M404.24,548.38c-1.08-0.29-2.48-0.42-3.92,0.18c-2.16,0.89-3.48,3.12-3.46,5.48
						c0.06,5.9,0.57,22.18,4.08,34.05c1.24,4.2,5.68,6.02,9.11,1.3c5.61-7.72,11.63-22.27,10.5-39.11
						c-0.13-1.93-1.21-3.69-2.91-4.62c-1.38-0.76-3.18-1.63-5.06-2.21c-1.8-0.55-3.73,0.32-4.54,2.02l-0.74,1.53
						C406.75,548.14,405.47,548.72,404.24,548.38z"/>
					<path d="M405.57,592.75c-0.26,0-0.52-0.02-0.77-0.07c-2.01-0.35-3.7-2.05-4.4-4.44c-3.5-11.83-4.04-27.86-4.11-34.2
						c-0.03-2.64,1.5-5.06,3.81-6.01c1.31-0.54,2.79-0.61,4.28-0.2c0.96,0.26,1.97-0.2,2.4-1.09l0.74-1.53
						c0.95-1.98,3.15-2.95,5.23-2.32c1.62,0.5,3.37,1.26,5.17,2.26c1.86,1.03,3.06,2.93,3.2,5.09c1.13,16.81-4.74,31.42-10.61,39.49
						C409.08,591.7,407.35,592.75,405.57,592.75z M402.47,548.71c-0.68,0-1.32,0.13-1.94,0.38c-1.88,0.78-3.13,2.76-3.1,4.94
						c0.07,6.3,0.6,22.2,4.06,33.89c0.58,1.97,1.92,3.36,3.5,3.63c1.59,0.27,3.22-0.62,4.6-2.5c5.75-7.91,11.5-22.24,10.39-38.74
						c-0.12-1.76-1.09-3.32-2.61-4.16c-1.74-0.96-3.41-1.69-4.95-2.17c-1.53-0.47-3.16,0.26-3.86,1.72l-0.74,1.53
						c-0.67,1.39-2.24,2.11-3.73,1.7C403.53,548.79,402.99,548.71,402.47,548.71z"/>
				</g>
				<path d="M404.27,588.39c-0.22,0-0.44-0.13-0.53-0.35c-0.12-0.29,0.01-0.63,0.3-0.75c0.13-0.06,10.71-5.06,11.8-36.57
					c0.01-0.31,0.26-0.55,0.57-0.55c0.01,0,0.01,0,0.02,0c0.32,0.01,0.56,0.28,0.55,0.59c-1.12,32.43-12.03,37.39-12.49,37.58
					C404.42,588.38,404.35,588.39,404.27,588.39z"/>
				<path d="M400.99,571.07c-0.28,0-0.53-0.21-0.57-0.49c-0.04-0.31,0.17-0.6,0.49-0.65l6.03-0.85c0.31-0.05,0.6,0.17,0.65,0.49
					c0.04,0.31-0.17,0.6-0.49,0.65l-6.03,0.85C401.04,571.07,401.02,571.07,400.99,571.07z"/>
				<path d="M400.35,565.53c-0.28,0-0.52-0.21-0.57-0.49c-0.05-0.31,0.17-0.6,0.48-0.65l7.31-1.07c0.31-0.05,0.6,0.17,0.65,0.48
					c0.05,0.31-0.17,0.6-0.48,0.65l-7.31,1.07C400.41,565.53,400.38,565.53,400.35,565.53z"/>
			</g>
			<path d="M460.12,422.15c0,0-84.99-3.69-94.28,4.94c-10.29,9.55-26.61,76.24-32.25,100.41c-1.14,4.87,1.76,9.78,6.58,11.13
				l4.44,1.25c4.5,1.26,9.24-0.99,11.1-5.28c8.63-19.88,32.05-72.47,38.38-72.47c7.8,0,79.09-2.63,79.09-2.63L460.12,422.15z"/>
			<path d="M465.74,420.03c6.72-0.34,12.72,4.14,14.3,10.68c2.45,10.13,4.57,23.98-0.91,27.67c-8.92,6-73.2,3.95-70.98,4.74
				c0.88,0.31,4.7,42.19,5.57,66.41c0.17,4.68-3.48,8.62-8.16,8.8l-5.79,0.22c-3.66,0.14-7-2.08-8.28-5.51
				c-7.17-19.18-29.54-80.24-26.62-88.17c6.22-16.88,54.11-20.74,69.43-23C436.36,421.56,453.84,420.63,465.74,420.03z"/>
			<path class="st0" d="M375.73,492.19c-0.24,0-0.46-0.15-0.54-0.39c-6.49-19.29-12.65-42.26-10.85-47.14
				c4.85-13.15,33.94-18.55,55.4-21.46c0.31-0.04,0.6,0.18,0.64,0.49c0.04,0.31-0.18,0.6-0.49,0.64
				c-21.17,2.87-49.84,8.15-54.48,20.72c-1.41,3.83,3.26,23.76,10.86,46.38c0.1,0.3-0.06,0.62-0.36,0.73
				C375.85,492.18,375.79,492.19,375.73,492.19z"/>
		</g>
	</g>
	<path d="M417.95,251.97l-25.67-16.13c-0.25-0.16-0.58-0.1-0.76,0.14c-0.34,0.46-34.24,45.79-52.26,59.8
		c-7.43-17.71-20.9-41.6-43.23-56.37c-15.54-10.28-36.73-13.77-51.77-14.89c-18.17-1.36-37.43,0.06-51.5,3.8
		c-8.55,2.27-15.88,4.6-22.39,7.11c-1.16,0.45-3.14,0.68-4.2,1.26c0.51,0.11,0,0,0.68,0c0.79-0.4,2.55-1.03,3.4-1.36
		c6.48-2.5,14.29-3.64,22.8-5.9c9.81-2.61,23.15-4.21,37.4-4.21c23.01,0,48.36,4.2,64.94,15.15c22.38,14.79,35.79,38.91,43.09,56.54
		c0.07,0.16,0.21,0.29,0.38,0.33c0.17,0.05,0.35,0.01,0.5-0.1c17.07-12.87,49.21-55.34,52.76-60.06l24.82,15.6
		c-1.34,3.34-10.26,25.1-23.54,48.3c-13.23,23.11-33.61,52.41-55.57,60.79c-9.12,3.48-17.94,3.13-26.22-1.04
		c-7.96-4.01-13.75-9.63-17.21-16.7c-0.12-0.24-0.38-0.36-0.64-0.31c-0.26,0.06-0.44,0.28-0.45,0.55l-1.4,67.16
		c-16.44-9.59-67.05,4.78-94.8,14.97c-16.91,6.2-30.9,1.73-39.67-3.11c-2.65-1.47-4.36-7.64,2.53-28.76
		c6.53-20,7.29-40.88,2.21-60.39c-1.4-5.39-2.65-10.52-3.75-15.43c-0.29,0.27-0.64,0.48-1.05,0.62c1.08,4.77,2.31,9.79,3.69,15.09
		c5.02,19.29,4.27,39.95-2.19,59.74c-5.73,17.55-6.4,27.68-1.99,30.12c5.84,3.23,13.94,6.29,23.65,6.29
		c5.22,0,10.91-0.89,16.97-3.11c28.06-10.3,79.58-24.96,94.64-14.54c0.17,0.12,0.4,0.14,0.59,0.04c0.19-0.1,0.31-0.29,0.31-0.5
		l1.38-65.97c3.64,6.38,9.24,11.5,16.68,15.25c8.58,4.33,17.71,4.69,27.14,1.09c22.29-8.5,42.84-38.03,56.17-61.31
		c14.4-25.17,23.69-48.64,23.78-48.87C418.28,252.4,418.19,252.11,417.95,251.97z"/>
	<g>
		<g>
			<ellipse class="st0" cx="292.14" cy="335.97" rx="31.31" ry="31.49"/>
			<path d="M292.09,368.03c-7.72,0-15.09-2.78-20.95-7.94c-13.22-11.64-14.57-31.93-2.99-45.23c5.61-6.45,13.38-10.31,21.89-10.88
				c8.5-0.56,16.7,2.23,23.1,7.87c13.22,11.64,14.57,31.93,2.99,45.24c-5.61,6.45-13.38,10.31-21.89,10.87
				C293.52,368.01,292.8,368.03,292.09,368.03z M292.18,305.06c-0.69,0-1.38,0.02-2.07,0.07c-8.2,0.54-15.69,4.27-21.1,10.48
				c-11.16,12.83-9.87,32.4,2.88,43.62c6.17,5.44,14.08,8.13,22.27,7.58c8.2-0.54,15.69-4.27,21.1-10.48
				c11.16-12.83,9.87-32.4-2.88-43.62C306.73,307.74,299.62,305.06,292.18,305.06z"/>
		</g>
		<path d="M282.97,346.01v-19.69c0-1,1.05-1.66,1.96-1.22l19.69,9.72c1,0.49,1.01,1.92,0.01,2.42l-19.69,9.97
			C284.04,347.68,282.97,347.02,282.97,346.01z"/>
	</g>
	<g>
		<path d="M261.29,194.3c2.79-1.27,4.23,0.84,8.39,0.27c4.42-0.61,9.28-3.88,11.1-8.67c2.2-5.78-0.97-11.3-2.97-14.77
			c-1.99-3.46-4.52-7.31-8.92-8.97c-5.73-2.17-8.12,1.16-14.68-0.88c-5.33-1.66-4.94-4.23-9.69-5.59
			c-3.96-1.13-15.36-0.48-17.91,5.59c-1.62,3.85,1.87,6.2,0.13,11.9c-1.04,3.43-2.69,3.85-3.89,6.49
			c-2.97,6.56,0.75,18.09,7.85,21.95C240.34,206.86,256.48,196.49,261.29,194.3z"/>
		<g>
			<path class="st0" d="M252.44,205.32l2.24,18.41c0.43,3.51,2.95,6.4,6.36,7.29l6.45,2.06c1.26,0.4,1.51,2.1,0.41,2.82
				c-16.31,10.7-38.8,10.51-54.41-1.35l-1.83-1.39c-1.21-0.92-0.79-2.84,0.69-3.18l7.98-1.79c3.38-0.75,5.97-3.46,6.58-6.87
				l4.88-27.12L252.44,205.32z"/>
			<path d="M241.45,244.29c-10.14,0-20.18-3.11-28.31-9.28l-1.83-1.39c-0.74-0.56-1.08-1.48-0.88-2.39c0.2-0.91,0.89-1.6,1.79-1.8
				l7.98-1.79c3.16-0.71,5.57-3.22,6.15-6.41l4.88-27.12c0.03-0.18,0.15-0.33,0.31-0.41c0.17-0.08,0.36-0.08,0.52,0.01l20.63,11.11
				c0.16,0.09,0.27,0.25,0.3,0.44l2.24,18.41c0.4,3.3,2.73,5.96,5.94,6.8l6.48,2.07c0.8,0.26,1.37,0.93,1.48,1.77
				c0.11,0.83-0.25,1.62-0.94,2.07C260.16,241.66,250.76,244.29,241.45,244.29z M232.23,195.08l-4.74,26.35
				c-0.66,3.64-3.41,6.52-7.02,7.33l-7.98,1.79c-0.47,0.11-0.82,0.45-0.92,0.93c-0.1,0.48,0.07,0.94,0.45,1.23l1.83,1.39
				c15.22,11.56,37.32,12.1,53.75,1.33c0.32-0.21,0.48-0.57,0.43-0.96c-0.05-0.4-0.32-0.71-0.7-0.84l-6.45-2.06
				c-3.64-0.95-6.3-4-6.76-7.76l-2.2-18.12L232.23,195.08z"/>
		</g>
		<g>
			<path class="st0" d="M234.15,197.94c0,0-7.27-3.54-4.71-10.28c2.34-6.17,7.34-0.03,7.34-0.03s4.12-14.79,12.79-8.96
				c8.67,5.84,16.87,7.96,16.87,7.96s-3.05,14.89-8.53,24.8c-3.31,5.97-7.49,10.14-12.43,8.13
				C231.97,214.05,234.15,197.94,234.15,197.94z"/>
			<path d="M248.01,220.64c-0.91,0-1.82-0.19-2.74-0.56c-12.57-5.11-11.94-19.26-11.72-21.82c-1.49-0.86-7.01-4.56-4.64-10.81
				c0.69-1.83,1.7-2.87,3-3.08c1.82-0.3,3.66,1.19,4.63,2.14c0.78-2.28,3.08-7.94,7.11-9.42c1.98-0.73,4.08-0.36,6.24,1.1
				c8.49,5.71,16.62,7.86,16.7,7.88c0.3,0.08,0.48,0.37,0.42,0.67c-0.03,0.15-3.13,15.09-8.59,24.96
				C255.12,217.65,251.63,220.64,248.01,220.64z M232.39,185.48c-0.1,0-0.2,0.01-0.3,0.02c-0.86,0.14-1.57,0.93-2.11,2.36
				c-2.34,6.17,4.15,9.43,4.43,9.57c0.22,0.11,0.35,0.35,0.32,0.59c-0.02,0.16-1.96,15.74,10.98,21c3.98,1.62,7.93-1.03,11.71-7.88
				c4.8-8.68,7.76-21.4,8.36-24.12c-1.97-0.58-9.13-2.9-16.52-7.89c-1.84-1.24-3.59-1.57-5.21-0.97c-4.44,1.63-6.69,9.53-6.71,9.61
				c-0.06,0.21-0.23,0.36-0.43,0.41c-0.21,0.04-0.43-0.03-0.56-0.2C235.74,187.26,233.94,185.48,232.39,185.48z"/>
		</g>
	</g>
	<g>
		<path class="st0" d="M203.75,403.42l-16.15-13.1c-2.19-1.77-5.05-2.5-7.81-1.94c-1.62,0.33-3.19,0.88-4.37,1.53l-10.45,5.45
			c-2.73,1.5-6.17,0.52-7.68-2.21l-4.71-8.28c-1.36,0-16.31,10.2-19.71,12.24l6.44,9.26c2.73,4.14,6.75,7.27,11.42,8.92l0.61,0.22
			c7.82,2.75,15.46,1.54,20.87-0.37c5.41-1.91,12.16-2.19,12.16-2.19s0,0,6.12,0.65C194.06,413.97,211.87,412.09,203.75,403.42z"/>
		<path d="M204.17,403.03c-0.02-0.02-0.04-0.04-0.06-0.05l-16.15-13.1c-2.34-1.9-5.35-2.65-8.27-2.06
			c-1.69,0.34-3.31,0.91-4.54,1.59l-10.46,5.46c-2.45,1.35-5.55,0.46-6.91-1.99l-5.21-9.36c-0.32,0.2-0.34,0.49-0.68,0.68l4.88,9.24
			c1.66,2.99,5.46,4.09,8.45,2.44l10.46-5.46c1.13-0.62,2.67-1.16,4.23-1.48c2.58-0.52,5.25,0.14,7.32,1.82l16.12,13.07
			c1.75,1.88,2.3,3.5,1.64,4.82c-1.77,3.56-11.64,4.66-14.45,4.36l-6.12-0.65c-0.03,0-0.06-0.01-0.08,0
			c-0.28,0.01-6.9,0.31-12.33,2.23c-4.01,1.42-12,3.36-20.48,0.37l-0.61-0.22c-4.53-1.6-8.49-4.68-11.14-8.69l-6.92-9.63
			c-0.3,0.22,0.32,0.48,0,0.68c-0.01,0-0.68-0.68-0.68,0l6.65,9.58c2.79,4.22,6.94,7.46,11.71,9.14l0.61,0.22
			c3.4,1.2,6.73,1.63,9.76,1.63c4.83,0,8.93-1.1,11.48-2.01c5.05-1.79,11.38-2.13,11.95-2.16l6.08,0.65
			c2.55,0.27,13.42-0.63,15.59-4.99C206.93,407.37,206.3,405.31,204.17,403.03z"/>
	</g>
	<g>
		<g>
			<path d="M188.57,398.1c5.72,3.29,11.27,6.89,15.6,11.96c0.63,0.74,1.68-0.33,1.06-1.06c-4.4-5.16-10.08-8.84-15.9-12.19
				C188.49,396.32,187.73,397.62,188.57,398.1L188.57,398.1z"/>
		</g>
	</g>
	<g>
		<g>
			<path d="M184.49,399.46c6.15,3.41,12.35,7.19,17.05,12.51c0.64,0.73,1.7-0.34,1.06-1.06c-4.77-5.41-11.1-9.28-17.35-12.75
				C184.4,397.69,183.64,398.99,184.49,399.46L184.49,399.46z"/>
		</g>
	</g>
	<g>
		<g>
			<path d="M432.68,208.44c6.29-2.95,13.06-5.33,20.01-6.02c0.95-0.09,0.96-1.6,0-1.5c-7.24,0.72-14.22,3.14-20.77,6.22
				C431.05,207.56,431.81,208.85,432.68,208.44L432.68,208.44z"/>
		</g>
	</g>
	<g>
		<g>
			<path d="M433.85,211.26c6.29-2.96,12.93-5.79,19.92-6.49c0.95-0.1,0.96-1.6,0-1.5c-7.27,0.73-14.13,3.61-20.67,6.69
				C432.22,210.37,432.98,211.67,433.85,211.26L433.85,211.26z"/>
		</g>
	</g>
	<g>
		<g>
			<path d="M437.25,213.3c2.4-1.13,4.78-2.35,7.25-3.31c2.5-0.97,5.09-1.62,7.71-2.15c0.95-0.19,0.55-1.64-0.4-1.45
				c-2.68,0.54-5.34,1.21-7.89,2.22c-2.53,1-4.97,2.23-7.43,3.39C435.62,212.41,436.38,213.71,437.25,213.3L437.25,213.3z"/>
		</g>
	</g>
	<g>
		<g>
			<path d="M183.13,402.86c2.63,1.39,5.28,2.78,7.76,4.45c2.47,1.67,4.68,3.65,6.69,5.85c0.65,0.71,1.71-0.35,1.06-1.06
				c-2.05-2.24-4.31-4.26-6.82-5.97c-2.52-1.72-5.23-3.15-7.93-4.57C183.03,401.11,182.28,402.4,183.13,402.86L183.13,402.86z"/>
		</g>
	</g>
	<g>
		<g>
			<path d="M181.77,406.26c2.03,1.03,4.17,1.9,6.13,3.06c1.92,1.14,3.48,2.79,5,4.41c0.66,0.71,1.72-0.36,1.06-1.06
				c-1.58-1.69-3.22-3.39-5.22-4.59c-1.98-1.19-4.16-2.06-6.21-3.11C181.67,404.52,180.91,405.82,181.77,406.26L181.77,406.26z"/>
		</g>
	</g>
	<g>
		<g>
			<path d="M390.85,362.56c2.31,0.46,4.84,1.77,5.97,3.9c0.45,0.85,1.75,0.1,1.3-0.76c-0.69-1.3-1.83-2.31-3.07-3.07
				c-1.16-0.71-2.46-1.25-3.79-1.51c-0.4-0.08-0.81,0.11-0.92,0.52C390.23,362.01,390.45,362.48,390.85,362.56L390.85,362.56z"/>
		</g>
	</g>
	<g>
		<g>
			<path d="M364.13,390.6c-0.3-2.14,0.11-5.02,1.69-6.73c0.66-0.71-0.4-1.77-1.06-1.06c-1.97,2.13-2.46,5.4-2.07,8.19
				c0.06,0.4,0.57,0.62,0.92,0.52C364.04,391.41,364.19,391,364.13,390.6L364.13,390.6z"/>
		</g>
	</g>
	<g>
		<g>
			<path d="M367.02,392.68c-0.4-2.15-0.14-5.03,1.36-6.8c0.26-0.31,0.3-0.76,0-1.06c-0.27-0.27-0.8-0.31-1.06,0
				c-1.88,2.21-2.26,5.49-1.74,8.26c0.07,0.4,0.56,0.62,0.92,0.52C366.91,393.49,367.09,393.08,367.02,392.68L367.02,392.68z"/>
		</g>
	</g>
	<g>
		<g>
			<path d="M370.34,394.79c-0.78-2.2-0.98-5.04,0.28-7.11c0.5-0.83-0.79-1.58-1.3-0.76c-1.45,2.39-1.33,5.69-0.43,8.26
				c0.13,0.38,0.51,0.64,0.92,0.52C370.18,395.61,370.47,395.18,370.34,394.79L370.34,394.79z"/>
		</g>
	</g>
	<g>
		<g>
			<path d="M390.64,365.55c0.52,0.08,1.03,0.18,1.54,0.33c0.21,0.06,0.54,0.18,0.67,0.23c0.13,0.05,0.44,0.2,0.63,0.31
				c0.49,0.28,0.75,0.47,1.13,0.85c0.44,0.43,0.71,0.8,1.02,1.33c0.2,0.35,0.68,0.47,1.03,0.27c0.35-0.2,0.47-0.68,0.27-1.03
				c-0.64-1.09-1.52-2.04-2.62-2.67c-1-0.58-2.13-0.9-3.26-1.07c-0.4-0.06-0.81,0.1-0.92,0.52
				C390.02,364.98,390.23,365.48,390.64,365.55L390.64,365.55z"/>
		</g>
	</g>
	<g>
		<g>
			<path d="M390.84,368.29c0.25,0,0.5,0.01,0.74,0.04c0.03,0,0.05,0.01,0.08,0.01c0.06,0.01,0.03,0-0.07-0.01
				c0.02,0.02,0.11,0.02,0.14,0.02c0.1,0.02,0.2,0.04,0.29,0.06c0.09,0.02,0.18,0.05,0.27,0.08c0.04,0.01,0.08,0.03,0.12,0.04
				c0.14,0.05-0.15-0.07-0.03-0.01c0.16,0.08,0.31,0.16,0.46,0.26c0.03,0.02,0.08,0.05,0.1,0.07c-0.12-0.15-0.07-0.06-0.02-0.01
				c0.07,0.06,0.14,0.12,0.21,0.19c0.14,0.14,0.28,0.28,0.41,0.43c0.16,0.18,0.31,0.37,0.45,0.56c0.04,0.05,0.07,0.1,0.11,0.14
				c-0.11-0.14,0.03,0.04,0.04,0.05c0.1,0.13,0.19,0.25,0.29,0.38c0.24,0.31,0.66,0.51,1.03,0.27c0.31-0.2,0.52-0.69,0.27-1.03
				c-0.64-0.84-1.26-1.74-2.13-2.35c-0.8-0.56-1.8-0.69-2.76-0.7c-0.39-0.01-0.77,0.35-0.75,0.75
				C390.1,367.95,390.42,368.29,390.84,368.29L390.84,368.29z"/>
		</g>
	</g>
	<circle cx="245.71" cy="190.46" r="1.36"/>
	<circle cx="257.26" cy="194.54" r="1.36"/>
	<circle cx="435.36" cy="311.46" r="1.36"/>
	<path d="M246.39,209.31L246.39,209.31c-2.99-1.12-4.5-4.45-3.38-7.44l0,0l10.82,4.06l0,0
		C252.71,208.92,249.38,210.43,246.39,209.31z"/>
	<g>
		<g>
			<path d="M434.4,324.14c0.5-0.27,0.99-0.54,1.49-0.81c0.45-0.24,0.9-0.49,1.33-0.77c0.64-0.42,1.22-0.93,1.75-1.48
				c-0.42-0.24-0.84-0.49-1.25-0.73c-0.22,0.54-0.34,0.9-0.62,1.43c-0.13,0.25-0.29,0.49-0.44,0.72c-0.07,0.1-0.13,0.21-0.2,0.31
				c-0.02,0.02-0.03,0.04-0.05,0.07c-0.09,0.13,0.11-0.14,0,0c-0.26,0.32-0.54,0.62-0.85,0.9c-0.08,0.08-0.17,0.16-0.26,0.23
				c-0.05,0.05-0.1,0.09-0.16,0.13c-0.01,0.01-0.16,0.12-0.08,0.07c0.07-0.05-0.09,0.06-0.08,0.06c-0.04,0.03-0.09,0.06-0.13,0.09
				c-0.09,0.06-0.19,0.12-0.28,0.17c-0.34,0.19-0.49,0.69-0.27,1.03c0.22,0.35,0.66,0.47,1.03,0.27c0.84-0.46,1.59-1.19,2.18-1.93
				c0.34-0.43,0.66-0.91,0.91-1.4c0.29-0.56,0.52-1.16,0.76-1.75c0.12-0.29-0.08-0.71-0.34-0.85c-0.29-0.15-0.67-0.13-0.91,0.12
				c-0.26,0.28-0.54,0.55-0.83,0.79c-0.07,0.06-0.15,0.12-0.22,0.18c0.11-0.09-0.06,0.04-0.07,0.05c-0.12,0.09-0.25,0.18-0.37,0.26
				c-0.42,0.27-0.86,0.51-1.3,0.75c-0.49,0.26-0.98,0.53-1.47,0.79c-0.35,0.19-0.48,0.69-0.27,1.03
				C433.6,324.23,434.03,324.34,434.4,324.14L434.4,324.14z"/>
		</g>
	</g>
</g>
</svg>
