<?xml version="1.0" encoding="UTF-8"?><svg id="Layer_2" xmlns="http://www.w3.org/2000/svg" viewBox="0 0 747.63 620.7"><defs><style>.cls-1{fill:#022d50;}.cls-2{fill:#fff;}.cls-3{stroke:#011932;stroke-miterlimit:10;}.cls-3,.cls-4{fill:none;}.cls-5{fill:#011932;}.cls-6{fill:#fbce1a;}</style></defs><g id="Layer_1-2"><g><g><path class="cls-6" d="M373.81,594.86v19.61c-.22-.19-3.28-2.81-8.72-7.04-34.08-106.54-160.81-161.3-251.96-161.3H49.87l19.01-38.66h44.25c91.15,0,217.88,54.76,251.96,161.3l8.72,26.09Z"/><path class="cls-6" d="M697.76,446.13h-63.27c-91.15,0-217.87,54.76-251.95,161.3-5.44,4.23-8.5,6.85-8.72,7.04v-19.58l8.72-26.12c34.08-106.54,160.8-161.3,251.95-161.3h44.26l19.01,38.66Z"/><path class="cls-4" d="M244.56,205.25v40.4c-8.66-2.41-17.6-4.33-26.78-5.73v-43.28l26.78,8.61Z"/><g><path class="cls-1" d="M641.28,122.96l-26.23,8.44-.07,.02h-.03l-16.8-5.4-170.78-54.94-18.83-6.12-21.24-6.91h-.02l-.11-.05c-4.16-1.55-8.66-2.4-13.36-2.4-21.11,0-38.22,17.12-38.22,38.23s17.11,38.22,38.22,38.22c10.33,0,19.7-4.1,26.58-10.76l-32.18-10.35c-6.71-2.17-11.28-7.9-12.29-14.43-.07-.44-.12-.88-.15-1.32-.02-.23-.03-.46-.04-.69-.02-.43-.02-.86,0-1.3v-.09c.01-.23,.02-.45,.04-.68,.06-.66,.15-1.33,.28-1.99,.13-.72,.31-1.44,.54-2.15,1.11-3.45,3.16-6.33,5.77-8.45,2.7-2.19,6.01-3.59,9.51-3.95,2.41-.25,4.91-.02,7.37,.77l32.19,10.36,170.78,54.94-.13,.04-25.81,8.31-.09,.03-32.75,10.53-.13,.04-111.04,35.73-38.45,12.37-38.45-12.37-129.39-41.62c-.32-.11-.63-.22-.96-.31l-98.68-31.75L373.81,36.91l267.47,86.05Z"/><path class="cls-1" d="M471.04,196.64l-97.23,31.28-97.23-31.28-58.8-18.92-18-5.79v65.91c6.04,.47,12.01,1.16,17.88,2.06,.04,0,.08,.01,.12,.02v-43.28l26.78,8.61v40.4c11.5,3.18,22.5,7.2,32.88,11.97,9.56,5.36,18.97,10.72,27.94,16.27,15.77,9.75,30.18,20.1,41.66,32.11,.29,.3,.57,.6,.84,.9,3,3.18,5.78,6.48,8.32,9.91,6.14,7.72,11.9,15.78,17.63,23.79,6.4-9.56,13.16-18.76,20.45-27.47,1.07-1.32,2.17-2.61,3.31-3.89,.01-.02,.03-.04,.04-.05,.96-1.08,1.94-2.14,2.95-3.19,11.49-12.01,25.9-22.36,41.67-32.11,8.97-5.55,18.39-10.91,27.94-16.27,10.39-4.77,21.38-8.79,32.87-11.97,8.67-2.41,17.61-4.33,26.79-5.74,.04,0,.08-.01,.12-.01,5.87-.9,11.83-1.59,17.88-2.06v-65.91l-18,5.79-58.81,18.92Z"/></g><path class="cls-6" d="M313.31,555.61c-26.17-14.5-57.71-28.76-91.64-37.28-59.42-14.92-133.6-19.6-175.08-21.07l14.48-29.44h52.06c60.19,0,148.25,27.66,200.18,87.79Z"/><path class="cls-6" d="M701.03,497.26c-41.44,1.46-115.54,6.12-175.08,21.07-33.92,8.52-65.46,22.78-91.64,37.28,51.93-60.13,139.99-87.79,200.18-87.79h52.06l14.48,29.44Z"/><g><path class="cls-2" d="M412.04,93.83c0,3.36-.43,6.62-1.24,9.72-1.8,6.86-5.46,12.96-10.41,17.74l-32.18-10.35c-6.71-2.17-11.28-7.9-12.29-14.43-.07-.44-.12-.88-.15-1.32-.02-.23-.03-.46-.04-.69-.02-.43-.02-.86,0-1.3v-.09c.01-.23,.02-.45,.04-.68,.06-.66,.15-1.33,.28-1.99,.13-.72,.31-1.44,.54-2.15,1.11-3.45,3.16-6.33,5.77-8.45,2.7-2.19,6.01-3.59,9.51-3.95,2.41-.25,4.91-.02,7.37,.77l32.19,10.36c.4,2.21,.61,4.49,.61,6.81Z"/><path class="cls-2" d="M630.29,171.92s.03-.01,.04-.01v.07s-.02,.02-.04,.02h0s.03,0,.04,0v.06s-.02,0-.04,.01v.44s0,.01-.02,0c-.02,.01-.03,.01-.05,.01-.59,.07-1.19,.1-1.79,.1h-.01s-.02,.01-.03,.01h-.11c-1.82,0-3.68-.28-5.51-.87l-8.9-2.86-15.72-5.06-16.36-5.26-25.61-8.24-8.35-2.69-8.46-2.72-123.04-39.58-5.53-1.8-13-4.22-14.81-4.81-8.97-2.92c-5.76-1.86-9.94-6.34-11.64-11.7-.01-.02-.02-.04-.02-.06,2.7-2.19,6.01-3.59,9.51-3.95,2.41-.25,4.91-.02,7.37,.77l32.19,10.36,170.78,54.94-.13,.04,.12,.04,35.64,11.47c5.58,1.79,9.68,6.05,11.47,11.19,.19,.54,.36,1.1,.5,1.66v-.06c.39,1.52,.57,3.1,.52,4.69,0,.11,0,.23,0,.34-.01,.19-.02,.39-.03,.59Z"/></g><polyline class="cls-3" points="373.81 620.7 373.81 614.47 373.81 604.02 373.81 594.86 373.81 387.76"/></g><path class="cls-5" d="M713.92,441.9s0-.02-.01-.03l-19.01-38.66-21.5-43.71-42.97-87.36-3.88-7.89c-4.38-8.92-15.17-12.59-24.09-8.21-8.93,4.39-12.6,15.18-8.21,24.1l3.88,7.89,30.24,61.49c-81.74,1.97-183.46,43.16-236.53,120.21,.6-30.48,9.21-59.84,24.29-85.43,15.07-25.59,36.61-47.39,63.08-62.73,21.7-12.58,45.38-20.2,70.38-22.63,9.22-.9,16.26-8.66,16.26-17.92v-95.98l16.23-5.22,.13-.04,4.51-1.38c5.57-1.7,11.21,2.47,11.21,8.3v33.74c0,13.29,10.87,24.47,24.16,24.22,12.87-.25,23.23-10.76,23.23-23.7v-24.58c0-8.51-6.63-15.46-14.99-16.01v-9.38c.05-1.59-.13-3.17-.51-4.69v.06c-.15-.56-.32-1.12-.51-1.66-1.79-5.14-5.89-9.4-11.47-11.19l-35.64-11.47-.12-.04,.13-.04-170.78-54.94-32.19-10.36c-2.46-.79-4.96-1.02-7.37-.77-3.5,.36-6.81,1.76-9.51,3.95-2.61,2.12-4.66,5-5.77,8.45-.23,.71-.41,1.43-.54,2.15-.13,.66-.22,1.33-.28,1.99-.02,.23-.03,.45-.04,.68v.09c-.02,.44-.02,.87,0,1.3,.01,.23,.02,.46,.04,.69,.03,.44,.08,.88,.15,1.32,1.01,6.53,5.58,12.26,12.29,14.43l32.18,10.35,123.04,39.58-.13,.04-111.04,35.73-38.45,12.37-38.45-12.37-129.39-41.62c-.32-.11-.63-.22-.96-.31l-98.68-31.75L373.81,36.91l267.47,86.05-26.23,8.44,18.84,6.06c5.58,1.79,9.68,6.05,11.47,11.19,.82,2.3,1.16,4.79,.97,7.31h0s0,.05,0,.07h0v3.12l59.24-19.06c7.44-2.39,12.49-9.31,12.49-17.13s-5.05-14.74-12.49-17.14L379.32,.86c-3.58-1.15-7.44-1.15-11.02,0L42.05,105.82c-7.45,2.4-12.49,9.32-12.49,17.14s5.04,14.74,12.49,17.14l139.73,44.95v95.97c0,9.26,7.03,17.02,16.25,17.92,25,2.43,48.67,10.05,70.38,22.63,52.91,30.66,86.14,87.16,87.36,148.08-8.02-11.68-17.29-22.73-27.77-33.12-10.47-10.38-22.14-20.1-34.97-29.08-50.09-35.11-114.59-56.53-173.78-57.93l30.25-61.49,3.88-7.89c4.39-8.92,.71-19.71-8.21-24.1-8.92-4.39-19.71-.71-24.09,8.21l-3.88,7.89-42.97,87.36h-.01l-21.49,43.71-19.01,38.66s-.03,.07-.05,.1l-.1,.21L1.85,506.67c-2.74,5.55-2.42,12.12,.83,17.39s8.98,8.5,15.18,8.55c19.45,.15,120.28,1.87,195.04,20.64,43.8,11,83.55,32.8,111.11,50.76l5.7,3.68c13.43,8.66,28.76,13,44.1,13s30.68-4.33,44.11-13l5.7-3.68c27.56-17.96,67.31-39.76,111.1-50.76,74.93-18.81,175.62-20.49,195.04-20.63,6.19-.05,11.93-3.27,15.18-8.54,3.26-5.27,3.57-11.85,.84-17.4l-31.86-64.78Zm-492.25,76.43c-59.42-14.92-133.6-19.6-175.08-21.07l14.48-29.44h52.06c60.19,0,148.25,27.66,200.18,87.79-26.17-14.5-57.71-28.76-91.64-37.28Zm47.76-43.45c-47.97-27.36-104.94-43.06-156.3-43.06h-34.35l6.25-12.72,5.72-11.63h0l10.83-22.02h11.55c84.73,0,197.22,48.56,231.98,140.71,.01,.03,.02,.05,.03,.08,2.31,6.14,4.28,12.48,5.87,19-24.44-32.81-55.61-55.55-81.58-70.36Zm104.38-87.13c-3.27-7.39-6.96-14.59-11.07-21.57-18.45-31.33-44.83-57.53-76.28-75.75-11.52-6.68-23.51-12.2-35.88-16.54-2-.7-4-1.37-6.02-2.01-8.75-2.77-17.68-4.96-26.78-6.56v-68.68l26.78,8.61,123.74,39.81c1.79,.57,3.65,.86,5.51,.86s3.72-.29,5.51-.86l123.74-39.81,26.79-8.62v68.69c-9.11,1.6-18.04,3.79-26.79,6.56-2.01,.64-4.02,1.31-6.01,2.01-12.38,4.34-24.37,9.86-35.89,16.54-31.45,18.22-57.83,44.42-76.28,75.75-4.11,6.98-7.81,14.18-11.07,21.57Zm22.79,157.51c1.59-6.53,3.55-12.87,5.87-19.01h0c34.69-92.21,147.13-140.8,232.02-140.8h11.55l10.83,22.01h0l5.73,11.64,6.25,12.72h-34.36c-51.37,0-108.33,15.7-156.3,43.06-25.97,14.82-57.15,37.55-81.59,70.38Zm129.35-26.93c-33.92,8.52-65.46,22.78-91.64,37.28,51.93-60.13,139.99-87.79,200.18-87.79h52.06l14.48,29.44c-41.44,1.46-115.54,6.12-175.08,21.07Z"/></g></g></svg>