<svg width="48" height="48" viewBox="0 0 48 48" fill="none" xmlns="http://www.w3.org/2000/svg">
<g clip-path="url(#clip0_225_65)">
<path d="M48.0002 22.5C48.0002 23.5 48.0002 24.5 48.0002 25.5C47.9276 26.0863 47.8637 26.6738 47.7811 27.2588C47.0972 32.0525 45.171 36.285 41.9486 39.8988C38.2514 44.0462 33.6563 46.6362 28.1795 47.6275C27.2928 47.7875 26.3936 47.8787 25.5006 48.0013C24.5012 48.0013 23.5005 48.0013 22.5011 48.0013C21.9463 47.9338 21.3902 47.8763 20.8366 47.7962C14.4468 46.8662 9.18543 43.9113 5.18397 38.8475C1.00091 33.5513 -0.638503 27.4875 0.223158 20.8025C0.90948 15.4737 3.21893 10.89 7.00999 7.08375C10.5931 3.485 14.8989 1.22875 19.9124 0.3625C20.7703 0.21375 21.6382 0.12 22.5011 0C23.5005 0 24.5012 0 25.5006 0C25.8075 0.03875 26.1143 0.08125 26.4224 0.11375C31.1703 0.62375 35.4235 2.355 39.1131 5.3825C43.7145 9.16 46.5762 13.99 47.632 19.8638C47.7886 20.7375 47.8787 21.6213 48.0002 22.5ZM44.9994 24.015C45.0145 12.4575 35.6151 3.035 24.0403 3C12.4743 2.96625 3.01479 12.4012 3.00226 23.9837C2.98849 35.5387 12.3891 44.9637 23.9614 45C35.5262 45.035 44.9857 35.6 44.9994 24.015Z" fill="black"/>
<path d="M29.3603 25.5C29.0773 25.5 28.9082 25.5 28.7379 25.5C24.1929 25.5 19.6479 25.5025 15.1041 25.4975C13.9369 25.4963 13.1804 24.4425 13.6187 23.4275C13.9043 22.7675 14.4416 22.495 15.1542 22.4963C18.7148 22.5025 22.2754 22.4988 25.836 22.4988C26.9732 22.4988 28.1104 22.4988 29.3478 22.4988C29.1812 22.3175 29.076 22.195 28.9621 22.0813C27.4717 20.59 25.9801 19.0988 24.491 17.6075C24.0589 17.175 23.8923 16.665 24.0726 16.0675C24.2405 15.51 24.6237 15.1638 25.1835 15.0388C25.7885 14.9025 26.2706 15.1413 26.6977 15.5713C28.9671 17.8513 31.2152 20.155 33.5321 22.3863C34.7946 23.6025 34.7808 24.4113 33.5296 25.6175C31.1914 27.8713 28.9232 30.1988 26.6263 32.4963C26.1955 32.9275 25.6908 33.1063 25.0909 32.9351C24.531 32.7751 24.1804 32.3963 24.0463 31.8388C23.9073 31.2563 24.1065 30.7713 24.526 30.355C26.0101 28.8788 27.488 27.3975 28.9671 25.9175C29.0735 25.8075 29.1762 25.6938 29.3603 25.5Z" fill="black"/>
</g>
<defs>
<clipPath id="clip0_225_65">
<rect width="48" height="48" fill="white"/>
</clipPath>
</defs>
</svg>
