<svg width="89" height="81" viewBox="0 0 89 81" fill="none" xmlns="http://www.w3.org/2000/svg">
<g clip-path="url(#clip0_225_14)">
<path d="M44.4814 0C63.8829 0.026776 80.4968 14.1565 83.6291 33.3977C83.9713 35.4969 84.08 37.6417 84.202 39.7704C84.2869 41.2511 83.4275 41.9205 82.0059 41.6366C79.5446 41.144 77.0833 40.6352 74.6193 40.1506C73.6273 39.9551 73.1473 39.3794 73.1022 38.3593C72.5797 27.0732 67.0285 18.8556 57.5757 13.305C47.2186 7.22416 35.2647 8.80126 25.942 17.2678C19.7754 22.8694 16.1842 29.799 15.9296 38.3084C15.8951 39.433 15.4893 39.9176 14.3674 40.1506C11.9406 40.6513 9.50842 41.1359 7.07892 41.6259C5.58304 41.9285 4.78735 41.2832 4.81387 39.7329C4.99688 29.4616 8.45811 20.4809 15.3594 12.9221C21.6108 6.07279 29.3714 2.0082 38.4554 0.503388C39.1397 0.390929 39.832 0.307924 40.5242 0.254372C41.8424 0.152623 43.1632 0.0830055 44.4814 0Z" fill="black"/>
<path d="M25.4593 61.7802C25.4593 65.2852 25.4911 68.7928 25.4513 72.2978C25.4062 76.3624 22.4197 79.6559 18.383 80.1726C14.6592 80.6519 10.9672 78.1618 9.91688 74.4051C9.69674 73.6125 9.59596 72.7637 9.59065 71.939C9.56413 65.162 9.56413 58.3823 9.58004 51.6053C9.59065 46.9329 13.0466 43.3476 17.4971 43.3396C21.9927 43.3343 25.4433 46.9303 25.4593 51.6616C25.4725 55.0327 25.4619 58.4064 25.4619 61.7802H25.4593Z" fill="black"/>
<path d="M79.4491 61.7802C79.4491 65.32 79.4942 68.8598 79.4358 72.3969C79.3695 76.4106 76.3672 79.6666 72.3755 80.1726C68.6145 80.6493 64.8881 78.1029 63.8802 74.306C63.6786 73.5429 63.5911 72.7262 63.5885 71.9337C63.5672 65.1567 63.5619 58.3797 63.5805 51.6027C63.5911 46.9329 67.047 43.3476 71.4976 43.3396C75.9534 43.3316 79.4252 46.9089 79.4518 51.5652C79.4703 54.9711 79.4544 58.377 79.4544 61.7802C79.4544 61.7802 79.4518 61.7802 79.4491 61.7802Z" fill="black"/>
<path d="M46.1099 60.2782C46.1099 66.4232 46.1099 72.5683 46.1099 78.7134C46.1099 79.0481 46.1364 79.3882 46.0754 79.7122C45.9163 80.5476 45.3699 80.9894 44.5424 81.0001C43.7149 81.0108 43.1553 80.577 42.9776 79.7496C42.9007 79.3962 42.9351 79.0187 42.9351 78.6518C42.9325 66.3295 42.9325 54.0045 42.9325 41.6822C42.9325 41.5162 42.9298 41.3475 42.9325 41.1815C42.9617 40.0061 43.5717 39.3099 44.553 39.326C45.4972 39.342 46.086 40.0195 46.1073 41.1414C46.1232 42.0437 46.1099 42.9434 46.1099 43.8457C46.1099 49.3241 46.1099 54.8025 46.1099 60.2782Z" fill="black"/>
<path d="M6.36547 51.4394C6.36547 58.3583 6.36547 65.2156 6.36547 72.0703C2.7398 72.7959 0.0530385 70.5896 0.0477339 66.9079C0.0424293 63.6064 0.177696 60.2996 0.00794964 57.0061C-0.15384 53.8385 1.91229 50.7459 6.36547 51.4394Z" fill="black"/>
<path d="M82.6557 72.2013C82.6557 65.2021 82.6557 58.3582 82.6557 51.5223C85.8783 50.6226 88.9443 52.8798 88.9788 56.2161C89.0159 59.788 88.992 63.3626 88.9867 66.9372C88.9814 70.2387 87.0055 72.204 83.7113 72.204C83.3904 72.2013 83.0668 72.2013 82.6557 72.2013Z" fill="black"/>
<path d="M49.2874 60.2755C49.2874 56.0663 49.2927 51.8598 49.2821 47.6506C49.2794 46.8527 49.481 46.1887 50.2581 45.8486C51.2792 45.4015 52.4303 46.103 52.433 47.2838C52.4622 55.9324 52.4569 64.5838 52.4409 73.2324C52.4383 74.1669 51.7036 74.7747 50.8018 74.7372C49.8629 74.697 49.2927 74.0705 49.29 72.9994C49.2794 68.7581 49.2874 64.5168 49.2874 60.2755Z" fill="black"/>
<path d="M36.5776 60.0746C36.5776 55.935 36.5829 51.7954 36.5723 47.6559C36.5697 46.9035 36.7421 46.2635 37.4582 45.8994C38.3812 45.4308 39.4792 45.9529 39.7073 46.9784C39.763 47.2355 39.7498 47.5086 39.7498 47.7764C39.7524 56.0555 39.7524 64.3346 39.7498 72.6138C39.7498 73.8642 39.3201 74.4854 38.4024 74.6059C37.307 74.7505 36.5829 74.057 36.5803 72.7958C36.5697 68.5545 36.5776 64.3132 36.5776 60.0746Z" fill="black"/>
<path d="M55.6343 60.179C55.6343 58.1467 55.629 56.1144 55.6369 54.0795C55.6422 52.821 56.2416 52.1195 57.2628 52.1462C58.2388 52.1703 58.8091 52.8531 58.8091 54.0634C58.817 58.128 58.817 62.1953 58.8091 66.2599C58.8064 67.5237 58.207 68.2092 57.1779 68.1824C56.1886 68.1583 55.6422 67.4969 55.6369 66.2732C55.6263 64.2463 55.6343 62.214 55.6343 60.179Z" fill="black"/>
<path d="M30.2227 63.3492C30.2227 61.3169 30.2148 59.2846 30.2254 57.2496C30.2307 56.0527 30.8142 55.3646 31.7929 55.3566C32.7795 55.3459 33.3922 56.034 33.3949 57.2148C33.4055 61.3142 33.4028 65.4136 33.3949 69.5103C33.3922 70.7287 32.8299 71.3847 31.8274 71.3954C30.8275 71.4061 30.2307 70.7394 30.2254 69.5478C30.2148 67.4807 30.2227 65.4136 30.2227 63.3492Z" fill="black"/>
</g>
<defs>
<clipPath id="clip0_225_14">
<rect width="89" height="81" fill="white"/>
</clipPath>
</defs>
</svg>
