<svg width="100" height="92" viewBox="0 0 100 92" fill="none" xmlns="http://www.w3.org/2000/svg">
<g clip-path="url(#clip0_225_27)">
<path d="M100 7.3992C100 27.5824 100 47.7656 100 67.9488C99.7165 68.8054 99.5379 69.7183 99.1319 70.5135C97.4734 73.7702 94.7459 75.2599 91.133 75.255C81.987 75.2427 72.8409 75.25 63.6973 75.25C63.3206 75.25 62.9414 75.25 62.484 75.25C62.6993 78.3939 62.939 81.388 64.1767 84.1784C64.8763 85.754 65.801 87.1847 67.6282 87.6535C68.159 87.7909 68.7241 87.7983 69.2598 87.9259C70.3141 88.1762 70.9256 89.1334 70.7617 90.2083C70.5733 91.4256 69.7221 91.9998 68.0587 91.9998C56.0165 92.0023 43.9742 92.0023 31.9319 91.9949C31.5454 91.9949 31.1516 91.9532 30.7725 91.8698C29.7965 91.6514 29.1507 90.7777 29.2021 89.8009C29.2632 88.6106 30.0704 87.9014 31.6311 87.7688C32.9569 87.6584 33.9647 87.0522 34.7523 86.0067C36.5576 83.609 36.9489 80.7572 37.3183 77.9055C37.4284 77.0514 37.443 76.1851 37.5066 75.25C36.9709 75.25 36.5845 75.25 36.198 75.25C27.0837 75.25 17.9719 75.2623 8.85764 75.2451C3.51042 75.2353 0.00756587 71.6939 0.00511975 66.3291C0.000227502 47.1938 -0.00221862 28.0585 0.00511975 8.92325C0.00511975 3.62958 3.51286 0.0170182 8.78426 0.014564C36.2518 -0.00997785 63.7218 0.00229307 91.1917 0.00474726C93.5571 0.00474726 95.6706 0.70419 97.4196 2.35586C98.8726 3.7302 99.5795 5.4923 100 7.3992ZM8.40022 58.4855C36.1539 58.4855 63.8587 58.4855 91.5831 58.4855C91.5831 41.7701 91.5831 25.1111 91.5831 8.4496C63.8098 8.4496 36.105 8.4496 8.40022 8.4496C8.40022 25.1601 8.40022 41.7995 8.40022 58.4855ZM54.1525 66.8567C54.1305 64.5645 52.247 62.692 49.9794 62.7092C47.6972 62.7263 45.8479 64.6013 45.8479 66.8985C45.8479 69.2373 47.7412 71.1147 50.0699 71.0804C52.3497 71.0485 54.1745 69.1612 54.1525 66.8567Z" fill="black"/>
<path d="M8.40002 58.4859C8.40002 41.7999 8.40002 25.1605 8.40002 8.44995C36.1048 8.44995 63.8096 8.44995 91.5829 8.44995C91.5829 25.1114 91.5829 41.7704 91.5829 58.4859C63.8586 58.4859 36.1537 58.4859 8.40002 58.4859Z" fill="white"/>
<path d="M54.1523 66.8569C54.1743 69.1589 52.3495 71.0462 50.0697 71.0806C47.741 71.1149 45.8477 69.2375 45.8477 66.8986C45.8477 64.6015 47.697 62.729 49.9792 62.7093C52.2468 62.6922 54.1327 64.5647 54.1523 66.8569Z" fill="white"/>
</g>
<defs>
<clipPath id="clip0_225_27">
<rect width="100" height="92" fill="white"/>
</clipPath>
</defs>
</svg>
