<svg width="81" height="87" viewBox="0 0 81 87" fill="none" xmlns="http://www.w3.org/2000/svg">
<g clip-path="url(#clip0_225_3)">
<path d="M6.52301 0C18.2454 0 29.9679 0 41.6903 0C41.792 0.0453125 41.8891 0.113281 41.993 0.129141C45.0399 0.561875 47.5673 1.9643 49.686 4.18914C52.8797 7.54453 56.078 10.8954 59.3237 14.1987C61.9776 16.9016 63.2741 20.1074 63.256 23.8978C63.2289 29.4758 63.2492 35.0515 63.247 40.6295C63.247 40.9263 63.2221 41.2253 63.2086 41.4904C52.6606 41.0441 44.3171 44.9341 39.0003 54.0963C33.6924 63.2427 34.4829 72.4479 40.0076 81.345C39.8947 81.3677 39.8382 81.3858 39.784 81.3858C28.9944 81.3858 18.207 81.4175 7.41744 81.3382C6.21131 81.3291 4.89226 80.9009 3.82617 80.3028C1.05931 78.7531 -0.00225506 76.202 3.59582e-06 73.0619C0.0225902 51.4886 0.0112969 29.9153 0.0135555 8.34203C0.0135555 7.91836 0.0248488 7.49242 0.0587287 7.06875C0.266525 4.49273 1.47039 2.48766 3.66129 1.16906C4.53539 0.643438 5.56308 0.380625 6.52301 0ZM20.0479 29.7363C22.2455 29.7363 24.4432 29.7431 26.6409 29.7341C28.2807 29.7273 29.4168 28.676 29.4168 27.1875C29.4168 25.699 28.2784 24.6432 26.6386 24.6409C22.2997 24.6341 17.9609 24.6341 13.622 24.6409C11.9844 24.6432 10.8438 25.7013 10.8438 27.1875C10.8438 28.6738 11.9844 29.7295 13.622 29.7341C15.7654 29.7431 17.9066 29.7363 20.0479 29.7363ZM20.2173 38.2324C18.0196 38.2324 15.8219 38.2256 13.6242 38.2347C11.9867 38.2415 10.8461 39.2927 10.8461 40.779C10.8461 42.2652 11.9867 43.3256 13.622 43.3278C17.9609 43.3346 22.2997 43.3346 26.6386 43.3278C28.2784 43.3256 29.4168 42.2698 29.4168 40.7813C29.4168 39.2927 28.2807 38.2392 26.6409 38.2347C24.4997 38.2256 22.3585 38.2324 20.2173 38.2324ZM20.1337 56.9238C22.302 56.9238 24.4726 56.9306 26.6409 56.9216C28.2807 56.9148 29.4168 55.8613 29.4168 54.3727C29.4168 52.8842 28.2784 51.8307 26.6386 51.8284C22.2997 51.8216 17.9609 51.8216 13.622 51.8284C11.9844 51.8307 10.8438 52.8888 10.8461 54.375C10.8461 55.8613 11.9867 56.9148 13.6242 56.9216C15.7948 56.9306 17.9631 56.9238 20.1337 56.9238ZM41.8191 24.6432C41.3131 24.6432 40.8027 24.6183 40.299 24.6477C38.9506 24.727 37.9229 25.8077 37.898 27.1377C37.8732 28.5016 38.9099 29.6525 40.29 29.7205C41.2725 29.768 42.2618 29.768 43.2465 29.7205C44.6311 29.657 45.6678 28.5129 45.6475 27.1467C45.6272 25.8123 44.604 24.7316 43.2556 24.6455C42.779 24.6183 42.2979 24.6432 41.8191 24.6432ZM41.7129 43.3233C41.7129 43.3256 41.7129 43.3256 41.7129 43.3278C42.1917 43.3278 42.6706 43.3437 43.1494 43.3256C44.5882 43.2666 45.6633 42.1565 45.6497 40.7586C45.6362 39.3902 44.5837 38.2936 43.1878 38.2438C42.2324 38.2098 41.2702 38.2052 40.3148 38.246C38.9302 38.3072 37.8867 39.4423 37.9003 40.8062C37.9138 42.1361 38.9348 43.2304 40.2787 43.321C40.753 43.3505 41.2341 43.3233 41.7129 43.3233Z" fill="black"/>
<path d="M58.9329 87.0001C57.6455 86.7237 56.3377 86.5153 55.0728 86.1618C46.1873 83.69 40.1363 75.0693 40.6378 65.6398C41.1347 56.3145 48.1026 48.4165 57.1892 46.8827C68.2182 45.0203 78.4612 52.0596 80.6273 62.9958C82.7256 73.5853 75.7847 84.1658 65.212 86.4881C64.3085 86.6875 63.3937 86.8325 62.4858 87.0024C61.3 87.0001 60.1164 87.0001 58.9329 87.0001ZM58.7138 66.213C58.3705 65.5379 58.0859 64.9646 57.7877 64.4005C57.0492 63.0004 55.6104 62.4928 54.3094 63.1657C53.0513 63.816 52.5906 65.2886 53.2569 66.6639C54.1061 68.4175 54.9667 70.162 55.8634 71.8907C56.8007 73.6986 58.829 73.9343 60.1819 72.4072C60.7805 71.7321 61.3406 71.0229 61.9166 70.3274C63.5564 68.3495 65.2097 66.3829 66.8269 64.3892C67.7755 63.2201 67.6287 61.6478 66.5491 60.7438C65.4582 59.8307 63.9516 59.9916 62.9352 61.1403C62.7116 61.394 62.5016 61.6614 62.287 61.9219C61.117 63.3243 59.9493 64.729 58.7138 66.213Z" fill="black"/>
<path d="M20.0478 29.7362C17.9066 29.7362 15.7654 29.743 13.6242 29.734C11.9867 29.7272 10.8461 28.6737 10.8461 27.1874C10.8461 25.7012 11.9844 24.6431 13.6242 24.6408C17.9631 24.634 22.302 24.634 26.6409 24.6408C28.2807 24.6431 29.419 25.6989 29.419 27.1874C29.419 28.6759 28.2807 29.7294 26.6431 29.734C24.4432 29.743 22.2455 29.7362 20.0478 29.7362Z" fill="white"/>
<path d="M20.2172 38.2324C22.3585 38.2324 24.4997 38.2256 26.6409 38.2347C28.2807 38.2415 29.4168 39.2927 29.4168 40.7813C29.4168 42.2698 28.2784 43.3256 26.6386 43.3278C22.2997 43.3346 17.9608 43.3346 13.622 43.3278C11.9844 43.3256 10.8461 42.2675 10.8461 40.779C10.8461 39.2927 11.9867 38.2392 13.6242 38.2347C15.8219 38.2256 18.0196 38.2324 20.2172 38.2324Z" fill="white"/>
<path d="M20.1337 56.9237C17.9654 56.9237 15.7949 56.9305 13.6265 56.9215C11.989 56.9147 10.8484 55.8612 10.8484 54.3749C10.8484 52.8887 11.989 51.8306 13.6243 51.8283C17.9632 51.8215 22.302 51.8215 26.6409 51.8283C28.2807 51.8306 29.4191 52.8841 29.4191 54.3726C29.4191 55.8612 28.283 56.9147 26.6432 56.9215C24.4726 56.9305 22.302 56.9237 20.1337 56.9237Z" fill="white"/>
<path d="M41.8191 24.6431C42.2979 24.6431 42.779 24.6182 43.2556 24.6477C44.604 24.7315 45.6272 25.8145 45.6475 27.1489C45.6678 28.5151 44.6311 29.657 43.2465 29.7227C42.2617 29.768 41.2725 29.7703 40.2899 29.7227C38.9099 29.657 37.8732 28.5038 37.898 27.1399C37.9229 25.8099 38.9528 24.7292 40.299 24.6499C40.8049 24.6182 41.3131 24.6431 41.8191 24.6431Z" fill="white"/>
<path d="M41.713 43.3232C41.2341 43.3232 40.753 43.3504 40.2764 43.3187C38.9348 43.228 37.9116 42.1337 37.8981 40.8038C37.8845 39.4399 38.9303 38.3048 40.3126 38.2437C41.268 38.2006 42.2279 38.2074 43.1856 38.2414C44.5814 38.2912 45.634 39.3878 45.6475 40.7562C45.6611 42.1541 44.5882 43.2643 43.1472 43.3232C42.6684 43.3436 42.1895 43.3255 41.7107 43.3255C41.713 43.3255 41.713 43.3255 41.713 43.3232Z" fill="white"/>
<path d="M58.7139 66.2128C59.9494 64.7288 61.1171 63.3241 62.2871 61.9217C62.5039 61.6611 62.7117 61.3938 62.9353 61.14C63.954 59.9936 65.4582 59.8305 66.5492 60.7436C67.6288 61.6475 67.7733 63.2199 66.827 64.3889C65.2098 66.3827 63.5564 68.3493 61.9166 70.3272C61.3407 71.0227 60.7805 71.7318 60.182 72.407C58.8291 73.934 56.8008 73.6984 55.8634 71.8904C54.9668 70.1618 54.1062 68.415 53.2569 66.6636C52.5906 65.2884 53.0514 63.8157 54.3095 63.1655C55.6105 62.4926 57.0492 63.0001 57.7878 64.4003C58.086 64.9644 58.3706 65.5376 58.7139 66.2128Z" fill="white"/>
</g>
<defs>
<clipPath id="clip0_225_3">
<rect width="81" height="87" fill="white"/>
</clipPath>
</defs>
</svg>
