<svg width="251" height="251" viewBox="0 0 251 251" fill="none" xmlns="http://www.w3.org/2000/svg">
<path d="M116.243 250.112C79.2909 250.112 42.3295 250.112 5.37703 250.112C2.95641 248.951 1.16104 247.165 0.00878906 244.744C0.00878906 243.44 0.00878906 242.136 0.00878906 240.841C1.35755 239.045 2.59912 237.161 4.064 235.455C9.62875 228.997 15.265 222.601 20.9458 216.108C20.4724 215.491 20.0526 214.902 19.5792 214.357C11.0936 204.442 5.26091 193.143 2.21504 180.459C1.24143 176.386 0.732296 172.197 0.00878906 168.061C0.00878906 164.319 0.00878906 160.576 0.00878906 156.825C0.151704 156.199 0.375009 155.583 0.437534 154.949C1.21463 146.865 3.30477 139.121 6.75259 131.779C17.6231 108.609 35.9519 93.5044 59.256 84.0989C79.4784 75.9348 100.514 73.7911 122.014 77.2836C148.194 81.5353 170.631 92.8792 187.906 113.423C209.933 139.621 212.273 175.055 193.551 203.665C178.813 226.183 157.707 240.046 131.991 247.12C126.846 248.523 121.495 249.13 116.243 250.112ZM73.2527 161.344C73.3063 153.296 66.8037 146.66 58.7915 146.579C50.7347 146.499 44.0713 152.966 43.9641 160.969C43.8569 169.124 50.422 175.832 58.5414 175.868C66.5714 175.895 73.1991 169.348 73.2527 161.344ZM103.042 146.579C95.0026 146.579 88.4285 153.136 88.4017 161.166C88.3749 169.205 94.9133 175.815 102.925 175.868C111.054 175.922 117.717 169.276 117.69 161.157C117.664 153.127 111.081 146.579 103.042 146.579ZM147.524 146.579C139.485 146.571 132.893 153.109 132.857 161.13C132.821 169.169 139.333 175.797 147.345 175.868C155.482 175.94 162.164 169.312 162.146 161.193C162.119 153.154 155.554 146.588 147.524 146.579Z" fill="#FFD94B"/>
<path d="M0 168.062C0.723507 172.197 1.23264 176.377 2.20625 180.459C5.24319 193.143 11.0848 204.433 19.5704 214.357C20.0349 214.902 20.4547 215.491 20.937 216.108C15.2562 222.61 9.61996 229.006 4.05521 235.455C2.59033 237.152 1.34876 239.037 0 240.841C0 216.572 0 192.321 0 168.062Z" fill="white"/>
<path d="M0 244.744C1.16118 247.165 2.94762 248.96 5.36824 250.113C3.58181 250.113 1.78644 250.113 0 250.113C0 248.326 0 246.531 0 244.744Z" fill="white"/>
<path d="M73.2528 161.345C73.1992 169.348 66.5715 175.895 58.5415 175.859C50.4222 175.833 43.857 169.124 43.9642 160.96C44.0714 152.957 50.7437 146.49 58.7916 146.571C66.8038 146.66 73.3064 153.306 73.2528 161.345Z" fill="white"/>
<path d="M103.041 146.579C111.08 146.579 117.663 153.127 117.69 161.157C117.726 169.285 111.062 175.922 102.925 175.868C94.913 175.815 88.3747 169.205 88.4014 161.166C88.4282 153.136 95.0023 146.579 103.041 146.579Z" fill="white"/>
<path d="M147.524 146.58C155.554 146.588 162.128 153.163 162.137 161.193C162.155 169.312 155.474 175.94 147.336 175.868C139.324 175.797 132.804 169.178 132.848 161.13C132.893 153.1 139.485 146.562 147.524 146.58Z" fill="white"/>
<path d="M231.281 129.269C236.614 135.495 242.036 141.872 247.511 148.187C249.637 150.635 250.771 153.243 249.539 156.45C248.52 159.103 246.555 161.005 243.768 161.077C236.149 161.282 228.521 161.148 221.491 161.148C220.009 153.216 219.133 145.427 217.061 137.969C211.764 118.908 200.787 103.348 185.825 90.6284C166.362 74.086 143.674 64.9394 118.387 62.0097C98.8615 59.7498 79.7645 61.7149 61.0873 67.7888C60.864 67.8602 60.6049 67.8513 59.8457 67.9496C60.5245 65.3056 61.0426 62.8135 61.8108 60.4019C67.6882 41.939 79.5054 28.0495 95.4137 17.4648C130.732 -6.01787 179.662 -5.8303 214.694 18.0901C232.139 29.9967 244.286 45.8781 248.574 66.9313C252.915 88.2256 247.556 107.349 234.649 124.571C233.577 126 232.433 127.375 231.335 128.787C231.308 128.84 231.326 128.947 231.281 129.269Z" fill="#022D50"/>
</svg>
