<svg width="1605" height="442" viewBox="0 0 1605 442" fill="none" xmlns="http://www.w3.org/2000/svg">
<path d="M35.5605 121.328V148.976C35.5605 152.005 36.3498 154.331 37.9285 155.952C39.5072 157.531 41.7258 158.32 44.5845 158.32C47.4858 158.32 49.7258 157.531 51.3045 155.952C52.8832 154.331 53.6725 152.005 53.6725 148.976V121.328H62.6965V148.912C62.6965 152.709 61.8645 155.931 60.2005 158.576C58.5792 161.179 56.3818 163.141 53.6085 164.464C50.8778 165.787 47.8272 166.448 44.4565 166.448C41.1285 166.448 38.0992 165.787 35.3685 164.464C32.6805 163.141 30.5472 161.179 28.9685 158.576C27.3898 155.931 26.6005 152.709 26.6005 148.912V121.328H35.5605ZM51.5605 112.048L36.8405 118.768V112.368L51.5605 104.752V112.048ZM91.0015 130.032C95.2255 130.032 98.6388 131.376 101.242 134.064C103.844 136.709 105.146 140.421 105.146 145.2V166H96.1855V146.416C96.1855 143.6 95.4815 141.445 94.0735 139.952C92.6655 138.416 90.7455 137.648 88.3135 137.648C85.8388 137.648 83.8762 138.416 82.4255 139.952C81.0175 141.445 80.3135 143.6 80.3135 146.416V166H71.3535V130.544H80.3135V134.96C81.5082 133.424 83.0228 132.229 84.8575 131.376C86.7348 130.48 88.7828 130.032 91.0015 130.032ZM146.626 147.504C146.626 148.784 146.541 149.936 146.37 150.96H120.45C120.663 153.52 121.559 155.525 123.138 156.976C124.717 158.427 126.658 159.152 128.962 159.152C132.29 159.152 134.658 157.723 136.066 154.864H145.73C144.706 158.277 142.743 161.093 139.842 163.312C136.941 165.488 133.378 166.576 129.154 166.576C125.741 166.576 122.669 165.829 119.938 164.336C117.25 162.8 115.138 160.645 113.602 157.872C112.109 155.099 111.362 151.899 111.362 148.272C111.362 144.603 112.109 141.381 113.602 138.608C115.095 135.835 117.186 133.701 119.874 132.208C122.562 130.715 125.655 129.968 129.154 129.968C132.525 129.968 135.533 130.693 138.178 132.144C140.866 133.595 142.935 135.664 144.386 138.352C145.879 140.997 146.626 144.048 146.626 147.504ZM137.346 144.944C137.303 142.64 136.471 140.805 134.85 139.44C133.229 138.032 131.245 137.328 128.898 137.328C126.679 137.328 124.802 138.011 123.266 139.376C121.773 140.699 120.855 142.555 120.514 144.944H137.346ZM163.598 137.904V155.056C163.598 156.251 163.875 157.125 164.43 157.68C165.027 158.192 166.009 158.448 167.374 158.448H171.534V166H165.902C158.35 166 154.574 162.331 154.574 154.992V137.904H150.35V130.544H154.574V121.776H163.598V130.544H171.534V137.904H163.598ZM210.939 147.504C210.939 148.784 210.853 149.936 210.683 150.96H184.763C184.976 153.52 185.872 155.525 187.451 156.976C189.029 158.427 190.971 159.152 193.275 159.152C196.603 159.152 198.971 157.723 200.379 154.864H210.043C209.019 158.277 207.056 161.093 204.155 163.312C201.253 165.488 197.691 166.576 193.467 166.576C190.053 166.576 186.981 165.829 184.251 164.336C181.563 162.8 179.451 160.645 177.915 157.872C176.421 155.099 175.674 151.899 175.674 148.272C175.674 144.603 176.421 141.381 177.915 138.608C179.408 135.835 181.499 133.701 184.187 132.208C186.875 130.715 189.968 129.968 193.467 129.968C196.837 129.968 199.845 130.693 202.491 132.144C205.179 133.595 207.248 135.664 208.699 138.352C210.192 140.997 210.939 144.048 210.939 147.504ZM201.659 144.944C201.616 142.64 200.784 140.805 199.163 139.44C197.541 138.032 195.557 137.328 193.211 137.328C190.992 137.328 189.115 138.011 187.579 139.376C186.085 140.699 185.168 142.555 184.827 144.944H201.659ZM230.424 148.144C230.424 144.56 231.128 141.381 232.536 138.608C233.987 135.835 235.929 133.701 238.361 132.208C240.835 130.715 243.587 129.968 246.617 129.968C249.262 129.968 251.566 130.501 253.529 131.568C255.534 132.635 257.134 133.979 258.329 135.6V130.544H267.353V166H258.329V160.816C257.177 162.48 255.577 163.867 253.529 164.976C251.523 166.043 249.198 166.576 246.553 166.576C243.566 166.576 240.835 165.808 238.361 164.272C235.929 162.736 233.987 160.581 232.536 157.808C231.128 154.992 230.424 151.771 230.424 148.144ZM258.329 148.272C258.329 146.096 257.902 144.24 257.049 142.704C256.195 141.125 255.043 139.931 253.593 139.12C252.142 138.267 250.585 137.84 248.921 137.84C247.257 137.84 245.721 138.245 244.312 139.056C242.905 139.867 241.753 141.061 240.857 142.64C240.003 144.176 239.577 146.011 239.577 148.144C239.577 150.277 240.003 152.155 240.857 153.776C241.753 155.355 242.905 156.571 244.312 157.424C245.763 158.277 247.299 158.704 248.921 158.704C250.585 158.704 252.142 158.299 253.593 157.488C255.043 156.635 256.195 155.44 257.049 153.904C257.902 152.325 258.329 150.448 258.329 148.272ZM311.002 130.032C315.226 130.032 318.639 131.376 321.242 134.064C323.844 136.709 325.146 140.421 325.146 145.2V166H316.186V146.416C316.186 143.6 315.482 141.445 314.074 139.952C312.666 138.416 310.746 137.648 308.314 137.648C305.839 137.648 303.876 138.416 302.426 139.952C301.018 141.445 300.314 143.6 300.314 146.416V166H291.354V130.544H300.314V134.96C301.508 133.424 303.023 132.229 304.858 131.376C306.735 130.48 308.783 130.032 311.002 130.032ZM367.138 130.544V166H358.114V161.52C356.962 163.056 355.447 164.272 353.57 165.168C351.735 166.021 349.73 166.448 347.554 166.448C344.781 166.448 342.327 165.872 340.194 164.72C338.061 163.525 336.375 161.797 335.138 159.536C333.943 157.232 333.346 154.501 333.346 151.344V130.544H342.306V150.064C342.306 152.88 343.01 155.056 344.418 156.592C345.826 158.085 347.746 158.832 350.178 158.832C352.653 158.832 354.594 158.085 356.002 156.592C357.41 155.056 358.114 152.88 358.114 150.064V130.544H367.138ZM408.939 147.504C408.939 148.784 408.853 149.936 408.683 150.96H382.763C382.976 153.52 383.872 155.525 385.451 156.976C387.029 158.427 388.971 159.152 391.275 159.152C394.603 159.152 396.971 157.723 398.379 154.864H408.043C407.019 158.277 405.056 161.093 402.155 163.312C399.253 165.488 395.691 166.576 391.467 166.576C388.053 166.576 384.981 165.829 382.251 164.336C379.563 162.8 377.451 160.645 375.915 157.872C374.421 155.099 373.674 151.899 373.674 148.272C373.674 144.603 374.421 141.381 375.915 138.608C377.408 135.835 379.499 133.701 382.187 132.208C384.875 130.715 387.968 129.968 391.467 129.968C394.837 129.968 397.845 130.693 400.491 132.144C403.179 133.595 405.248 135.664 406.699 138.352C408.192 140.997 408.939 144.048 408.939 147.504ZM399.659 144.944C399.616 142.64 398.784 140.805 397.163 139.44C395.541 138.032 393.557 137.328 391.211 137.328C388.992 137.328 387.115 138.011 385.579 139.376C384.085 140.699 383.168 142.555 382.827 144.944H399.659ZM429.047 166.576C426.145 166.576 423.543 166.064 421.239 165.04C418.935 163.973 417.1 162.544 415.735 160.752C414.412 158.96 413.687 156.976 413.559 154.8H422.583C422.753 156.165 423.415 157.296 424.567 158.192C425.761 159.088 427.233 159.536 428.983 159.536C430.689 159.536 432.012 159.195 432.951 158.512C433.932 157.829 434.423 156.955 434.423 155.888C434.423 154.736 433.825 153.883 432.631 153.328C431.479 152.731 429.623 152.091 427.062 151.408C424.417 150.768 422.241 150.107 420.535 149.424C418.871 148.741 417.42 147.696 416.183 146.288C414.988 144.88 414.391 142.981 414.391 140.592C414.391 138.629 414.945 136.837 416.055 135.216C417.207 133.595 418.828 132.315 420.919 131.376C423.052 130.437 425.548 129.968 428.407 129.968C432.631 129.968 436.001 131.035 438.519 133.168C441.036 135.259 442.423 138.096 442.679 141.68H434.103C433.975 140.272 433.377 139.163 432.311 138.352C431.287 137.499 429.9 137.072 428.151 137.072C426.529 137.072 425.271 137.371 424.375 137.968C423.521 138.565 423.095 139.397 423.095 140.464C423.095 141.659 423.692 142.576 424.887 143.216C426.081 143.813 427.937 144.432 430.455 145.072C433.015 145.712 435.127 146.373 436.791 147.056C438.455 147.739 439.884 148.805 441.079 150.256C442.316 151.664 442.956 153.541 442.999 155.888C442.999 157.936 442.423 159.771 441.271 161.392C440.161 163.013 438.54 164.293 436.407 165.232C434.316 166.128 431.863 166.576 429.047 166.576ZM460.786 137.904V155.056C460.786 156.251 461.063 157.125 461.618 157.68C462.215 158.192 463.196 158.448 464.562 158.448H468.722V166H463.09C455.538 166 451.762 162.331 451.762 154.992V137.904H447.538V130.544H451.762V121.776H460.786V130.544H468.722V137.904H460.786ZM484.126 136.048C485.278 134.171 486.771 132.699 488.606 131.632C490.483 130.565 492.617 130.032 495.006 130.032V139.44H492.638C489.822 139.44 487.689 140.101 486.238 141.424C484.83 142.747 484.126 145.051 484.126 148.336V166H475.166V130.544H484.126V136.048ZM498.737 148.144C498.737 144.56 499.441 141.381 500.849 138.608C502.3 135.835 504.241 133.701 506.673 132.208C509.148 130.715 511.9 129.968 514.929 129.968C517.574 129.968 519.878 130.501 521.841 131.568C523.846 132.635 525.446 133.979 526.641 135.6V130.544H535.665V166H526.641V160.816C525.489 162.48 523.889 163.867 521.841 164.976C519.836 166.043 517.51 166.576 514.865 166.576C511.878 166.576 509.148 165.808 506.673 164.272C504.241 162.736 502.3 160.581 500.849 157.808C499.441 154.992 498.737 151.771 498.737 148.144ZM526.641 148.272C526.641 146.096 526.214 144.24 525.361 142.704C524.508 141.125 523.356 139.931 521.905 139.12C520.454 138.267 518.897 137.84 517.233 137.84C515.569 137.84 514.033 138.245 512.625 139.056C511.217 139.867 510.065 141.061 509.169 142.64C508.316 144.176 507.889 146.011 507.889 148.144C507.889 150.277 508.316 152.155 509.169 153.776C510.065 155.355 511.217 156.571 512.625 157.424C514.076 158.277 515.612 158.704 517.233 158.704C518.897 158.704 520.454 158.299 521.905 157.488C523.356 156.635 524.508 155.44 525.361 153.904C526.214 152.325 526.641 150.448 526.641 148.272ZM66.112 244.272C66.112 240.603 66.8587 237.403 68.352 234.672C69.8453 231.899 71.9147 229.765 74.56 228.272C77.2053 226.736 80.2347 225.968 83.648 225.968C88.0427 225.968 91.6693 227.077 94.528 229.296C97.4293 231.472 99.3707 234.544 100.352 238.512H90.688C90.176 236.976 89.3013 235.781 88.064 234.928C86.8693 234.032 85.376 233.584 83.584 233.584C81.024 233.584 78.9973 234.523 77.504 236.4C76.0107 238.235 75.264 240.859 75.264 244.272C75.264 247.643 76.0107 250.267 77.504 252.144C78.9973 253.979 81.024 254.896 83.584 254.896C87.2107 254.896 89.5787 253.275 90.688 250.032H100.352C99.3707 253.872 97.4293 256.923 94.528 259.184C91.6267 261.445 88 262.576 83.648 262.576C80.2347 262.576 77.2053 261.829 74.56 260.336C71.9147 258.8 69.8453 256.667 68.352 253.936C66.8587 251.163 66.112 247.941 66.112 244.272ZM122.66 262.576C119.247 262.576 116.175 261.829 113.444 260.336C110.713 258.8 108.559 256.645 106.98 253.872C105.444 251.099 104.676 247.899 104.676 244.272C104.676 240.645 105.465 237.445 107.044 234.672C108.665 231.899 110.863 229.765 113.636 228.272C116.409 226.736 119.503 225.968 122.916 225.968C126.329 225.968 129.423 226.736 132.196 228.272C134.969 229.765 137.145 231.899 138.724 234.672C140.345 237.445 141.156 240.645 141.156 244.272C141.156 247.899 140.324 251.099 138.66 253.872C137.039 256.645 134.82 258.8 132.004 260.336C129.231 261.829 126.116 262.576 122.66 262.576ZM122.66 254.768C124.281 254.768 125.796 254.384 127.204 253.616C128.655 252.805 129.807 251.611 130.66 250.032C131.513 248.453 131.94 246.533 131.94 244.272C131.94 240.901 131.044 238.32 129.252 236.528C127.503 234.693 125.348 233.776 122.788 233.776C120.228 233.776 118.073 234.693 116.324 236.528C114.617 238.32 113.764 240.901 113.764 244.272C113.764 247.643 114.596 250.245 116.26 252.08C117.967 253.872 120.1 254.768 122.66 254.768ZM191.761 226.032C196.113 226.032 199.611 227.376 202.257 230.064C204.945 232.709 206.289 236.421 206.289 241.2V262H197.329V242.416C197.329 239.643 196.625 237.531 195.217 236.08C193.809 234.587 191.889 233.84 189.457 233.84C187.025 233.84 185.083 234.587 183.633 236.08C182.225 237.531 181.521 239.643 181.521 242.416V262H172.561V242.416C172.561 239.643 171.857 237.531 170.449 236.08C169.041 234.587 167.121 233.84 164.689 233.84C162.214 233.84 160.251 234.587 158.801 236.08C157.393 237.531 156.689 239.643 156.689 242.416V262H147.729V226.544H156.689V230.832C157.841 229.339 159.313 228.165 161.105 227.312C162.939 226.459 164.945 226.032 167.121 226.032C169.894 226.032 172.369 226.629 174.545 227.824C176.721 228.976 178.406 230.64 179.601 232.816C180.753 230.768 182.417 229.125 184.593 227.888C186.811 226.651 189.201 226.032 191.761 226.032ZM248.263 226.544V262H239.239V257.52C238.087 259.056 236.572 260.272 234.695 261.168C232.86 262.021 230.855 262.448 228.679 262.448C225.906 262.448 223.452 261.872 221.319 260.72C219.186 259.525 217.5 257.797 216.263 255.536C215.068 253.232 214.471 250.501 214.471 247.344V226.544H223.431V246.064C223.431 248.88 224.135 251.056 225.543 252.592C226.951 254.085 228.871 254.832 231.303 254.832C233.778 254.832 235.719 254.085 237.127 252.592C238.535 251.056 239.239 248.88 239.239 246.064V226.544H248.263ZM276.752 226.032C280.976 226.032 284.389 227.376 286.992 230.064C289.594 232.709 290.896 236.421 290.896 241.2V262H281.936V242.416C281.936 239.6 281.232 237.445 279.824 235.952C278.416 234.416 276.496 233.648 274.064 233.648C271.589 233.648 269.626 234.416 268.176 235.952C266.768 237.445 266.064 239.6 266.064 242.416V262H257.104V226.544H266.064V230.96C267.258 229.424 268.773 228.229 270.608 227.376C272.485 226.48 274.533 226.032 276.752 226.032ZM303.96 222.32C302.381 222.32 301.059 221.829 299.992 220.848C298.968 219.824 298.456 218.565 298.456 217.072C298.456 215.579 298.968 214.341 299.992 213.36C301.059 212.336 302.381 211.824 303.96 211.824C305.539 211.824 306.84 212.336 307.864 213.36C308.931 214.341 309.464 215.579 309.464 217.072C309.464 218.565 308.931 219.824 307.864 220.848C306.84 221.829 305.539 222.32 303.96 222.32ZM308.376 226.544V262H299.416V226.544H308.376ZM314.924 244.144C314.924 240.56 315.628 237.381 317.036 234.608C318.487 231.835 320.45 229.701 322.925 228.208C325.399 226.715 328.151 225.968 331.181 225.968C333.485 225.968 335.682 226.48 337.773 227.504C339.863 228.485 341.527 229.808 342.765 231.472V214.64H351.853V262H342.765V256.752C341.655 258.501 340.098 259.909 338.093 260.976C336.087 262.043 333.762 262.576 331.117 262.576C328.13 262.576 325.399 261.808 322.925 260.272C320.45 258.736 318.487 256.581 317.036 253.808C315.628 250.992 314.924 247.771 314.924 244.144ZM342.829 244.272C342.829 242.096 342.402 240.24 341.549 238.704C340.695 237.125 339.543 235.931 338.093 235.12C336.642 234.267 335.085 233.84 333.421 233.84C331.757 233.84 330.221 234.245 328.812 235.056C327.405 235.867 326.253 237.061 325.357 238.64C324.503 240.176 324.077 242.011 324.077 244.144C324.077 246.277 324.503 248.155 325.357 249.776C326.253 251.355 327.405 252.571 328.812 253.424C330.263 254.277 331.799 254.704 333.421 254.704C335.085 254.704 336.642 254.299 338.093 253.488C339.543 252.635 340.695 251.44 341.549 249.904C342.402 248.325 342.829 246.448 342.829 244.272ZM358.299 244.144C358.299 240.56 359.003 237.381 360.411 234.608C361.862 231.835 363.804 229.701 366.236 228.208C368.71 226.715 371.462 225.968 374.492 225.968C377.137 225.968 379.441 226.501 381.404 227.568C383.409 228.635 385.009 229.979 386.204 231.6V226.544H395.228V262H386.204V256.816C385.052 258.48 383.452 259.867 381.404 260.976C379.398 262.043 377.073 262.576 374.428 262.576C371.441 262.576 368.71 261.808 366.236 260.272C363.804 258.736 361.862 256.581 360.411 253.808C359.003 250.992 358.299 247.771 358.299 244.144ZM386.204 244.272C386.204 242.096 385.777 240.24 384.924 238.704C384.07 237.125 382.918 235.931 381.468 235.12C380.017 234.267 378.46 233.84 376.796 233.84C375.132 233.84 373.596 234.245 372.188 235.056C370.78 235.867 369.628 237.061 368.732 238.64C367.878 240.176 367.452 242.011 367.452 244.144C367.452 246.277 367.878 248.155 368.732 249.776C369.628 251.355 370.78 252.571 372.188 253.424C373.638 254.277 375.174 254.704 376.796 254.704C378.46 254.704 380.017 254.299 381.468 253.488C382.918 252.635 384.07 251.44 384.924 249.904C385.777 248.325 386.204 246.448 386.204 244.272ZM401.674 244.144C401.674 240.56 402.378 237.381 403.786 234.608C405.237 231.835 407.2 229.701 409.675 228.208C412.149 226.715 414.901 225.968 417.931 225.968C420.235 225.968 422.432 226.48 424.523 227.504C426.613 228.485 428.277 229.808 429.515 231.472V214.64H438.603V262H429.515V256.752C428.405 258.501 426.848 259.909 424.843 260.976C422.837 262.043 420.512 262.576 417.867 262.576C414.88 262.576 412.149 261.808 409.675 260.272C407.2 258.736 405.237 256.581 403.786 253.808C402.378 250.992 401.674 247.771 401.674 244.144ZM429.579 244.272C429.579 242.096 429.152 240.24 428.299 238.704C427.445 237.125 426.293 235.931 424.843 235.12C423.392 234.267 421.835 233.84 420.171 233.84C418.507 233.84 416.971 234.245 415.562 235.056C414.155 235.867 413.003 237.061 412.107 238.64C411.253 240.176 410.827 242.011 410.827 244.144C410.827 246.277 411.253 248.155 412.107 249.776C413.003 251.355 414.155 252.571 415.562 253.424C417.013 254.277 418.549 254.704 420.171 254.704C421.835 254.704 423.392 254.299 424.843 253.488C426.293 252.635 427.445 251.44 428.299 249.904C429.152 248.325 429.579 246.448 429.579 244.272ZM495.564 243.504C495.564 244.784 495.478 245.936 495.308 246.96H469.388C469.601 249.52 470.497 251.525 472.076 252.976C473.654 254.427 475.596 255.152 477.9 255.152C481.228 255.152 483.596 253.723 485.004 250.864H494.668C493.644 254.277 491.681 257.093 488.78 259.312C485.878 261.488 482.316 262.576 478.092 262.576C474.678 262.576 471.606 261.829 468.876 260.336C466.188 258.8 464.076 256.645 462.54 253.872C461.046 251.099 460.299 247.899 460.299 244.272C460.299 240.603 461.046 237.381 462.54 234.608C464.033 231.835 466.124 229.701 468.812 228.208C471.5 226.715 474.593 225.968 478.092 225.968C481.462 225.968 484.47 226.693 487.116 228.144C489.804 229.595 491.873 231.664 493.324 234.352C494.817 236.997 495.564 240.048 495.564 243.504ZM486.284 240.944C486.241 238.64 485.409 236.805 483.788 235.44C482.166 234.032 480.182 233.328 477.836 233.328C475.617 233.328 473.74 234.011 472.204 235.376C470.71 236.699 469.793 238.555 469.452 240.944H486.284ZM521.752 226.032C525.976 226.032 529.389 227.376 531.992 230.064C534.594 232.709 535.896 236.421 535.896 241.2V262H526.936V242.416C526.936 239.6 526.232 237.445 524.824 235.952C523.416 234.416 521.496 233.648 519.064 233.648C516.589 233.648 514.626 234.416 513.176 235.952C511.768 237.445 511.064 239.6 511.064 242.416V262H502.104V226.544H511.064V230.96C512.258 229.424 513.773 228.229 515.608 227.376C517.485 226.48 519.533 226.032 521.752 226.032ZM312.907 313.328C317.6 313.328 321.718 314.245 325.259 316.08C328.843 317.915 331.595 320.539 333.515 323.952C335.478 327.323 336.459 331.248 336.459 335.728C336.459 340.208 335.478 344.133 333.515 347.504C331.595 350.832 328.843 353.413 325.259 355.248C321.718 357.083 317.6 358 312.907 358H297.291V313.328H312.907ZM312.587 350.384C317.28 350.384 320.907 349.104 323.467 346.544C326.027 343.984 327.307 340.379 327.307 335.728C327.307 331.077 326.027 327.451 323.467 324.848C320.907 322.203 317.28 320.88 312.587 320.88H306.251V350.384H312.587ZM347.71 318.32C346.131 318.32 344.809 317.829 343.742 316.848C342.718 315.824 342.206 314.565 342.206 313.072C342.206 311.579 342.718 310.341 343.742 309.36C344.809 308.336 346.131 307.824 347.71 307.824C349.289 307.824 350.59 308.336 351.614 309.36C352.681 310.341 353.214 311.579 353.214 313.072C353.214 314.565 352.681 315.824 351.614 316.848C350.59 317.829 349.289 318.32 347.71 318.32ZM352.126 322.544V358H343.166V322.544H352.126ZM374.547 358.576C371.645 358.576 369.043 358.064 366.739 357.04C364.435 355.973 362.6 354.544 361.235 352.752C359.912 350.96 359.187 348.976 359.059 346.8H368.083C368.253 348.165 368.915 349.296 370.067 350.192C371.261 351.088 372.733 351.536 374.483 351.536C376.189 351.536 377.512 351.195 378.451 350.512C379.432 349.829 379.923 348.955 379.923 347.888C379.923 346.736 379.325 345.883 378.131 345.328C376.979 344.731 375.123 344.091 372.562 343.408C369.917 342.768 367.741 342.107 366.035 341.424C364.371 340.741 362.92 339.696 361.683 338.288C360.488 336.88 359.891 334.981 359.891 332.592C359.891 330.629 360.445 328.837 361.555 327.216C362.707 325.595 364.328 324.315 366.419 323.376C368.552 322.437 371.048 321.968 373.907 321.968C378.131 321.968 381.501 323.035 384.019 325.168C386.536 327.259 387.923 330.096 388.179 333.68H379.603C379.475 332.272 378.877 331.163 377.811 330.352C376.787 329.499 375.4 329.072 373.651 329.072C372.029 329.072 370.771 329.371 369.875 329.968C369.021 330.565 368.595 331.397 368.595 332.464C368.595 333.659 369.192 334.576 370.387 335.216C371.581 335.813 373.437 336.432 375.955 337.072C378.515 337.712 380.627 338.373 382.291 339.056C383.955 339.739 385.384 340.805 386.579 342.256C387.816 343.664 388.456 345.541 388.499 347.888C388.499 349.936 387.923 351.771 386.771 353.392C385.661 355.013 384.04 356.293 381.907 357.232C379.816 358.128 377.363 358.576 374.547 358.576ZM393.549 340.272C393.549 336.603 394.296 333.403 395.79 330.672C397.283 327.899 399.352 325.765 401.998 324.272C404.643 322.736 407.672 321.968 411.086 321.968C415.48 321.968 419.107 323.077 421.966 325.296C424.867 327.472 426.808 330.544 427.79 334.512H418.126C417.614 332.976 416.739 331.781 415.502 330.928C414.307 330.032 412.814 329.584 411.022 329.584C408.462 329.584 406.435 330.523 404.942 332.4C403.448 334.235 402.702 336.859 402.702 340.272C402.702 343.643 403.448 346.267 404.942 348.144C406.435 349.979 408.462 350.896 411.022 350.896C414.648 350.896 417.016 349.275 418.126 346.032H427.79C426.808 349.872 424.867 352.923 421.966 355.184C419.064 357.445 415.438 358.576 411.086 358.576C407.672 358.576 404.643 357.829 401.998 356.336C399.352 354.8 397.283 352.667 395.79 349.936C394.296 347.163 393.549 343.941 393.549 340.272ZM450.098 358.576C446.684 358.576 443.612 357.829 440.882 356.336C438.151 354.8 435.996 352.645 434.418 349.872C432.882 347.099 432.114 343.899 432.114 340.272C432.114 336.645 432.903 333.445 434.482 330.672C436.103 327.899 438.3 325.765 441.074 324.272C443.847 322.736 446.94 321.968 450.354 321.968C453.767 321.968 456.86 322.736 459.634 324.272C462.407 325.765 464.583 327.899 466.162 330.672C467.783 333.445 468.594 336.645 468.594 340.272C468.594 343.899 467.762 347.099 466.097 349.872C464.476 352.645 462.258 354.8 459.442 356.336C456.668 357.829 453.554 358.576 450.098 358.576ZM450.098 350.768C451.719 350.768 453.234 350.384 454.642 349.616C456.092 348.805 457.244 347.611 458.098 346.032C458.951 344.453 459.378 342.533 459.378 340.272C459.378 336.901 458.482 334.32 456.69 332.528C454.94 330.693 452.786 329.776 450.226 329.776C447.666 329.776 445.511 330.693 443.762 332.528C442.055 334.32 441.202 336.901 441.202 340.272C441.202 343.643 442.034 346.245 443.698 348.08C445.404 349.872 447.538 350.768 450.098 350.768ZM484.126 328.048C485.278 326.171 486.771 324.699 488.606 323.632C490.483 322.565 492.617 322.032 495.006 322.032V331.44H492.638C489.822 331.44 487.689 332.101 486.238 333.424C484.83 334.747 484.126 337.051 484.126 340.336V358H475.166V322.544H484.126V328.048ZM498.737 340.144C498.737 336.56 499.441 333.381 500.849 330.608C502.3 327.835 504.262 325.701 506.737 324.208C509.212 322.715 511.964 321.968 514.993 321.968C517.297 321.968 519.494 322.48 521.585 323.504C523.676 324.485 525.34 325.808 526.577 327.472V310.64H535.665V358H526.577V352.752C525.468 354.501 523.91 355.909 521.905 356.976C519.9 358.043 517.574 358.576 514.929 358.576C511.942 358.576 509.212 357.808 506.737 356.272C504.262 354.736 502.3 352.581 500.849 349.808C499.441 346.992 498.737 343.771 498.737 340.144ZM526.641 340.272C526.641 338.096 526.214 336.24 525.361 334.704C524.508 333.125 523.356 331.931 521.905 331.12C520.454 330.267 518.897 329.84 517.233 329.84C515.569 329.84 514.033 330.245 512.625 331.056C511.217 331.867 510.065 333.061 509.169 334.64C508.316 336.176 507.889 338.011 507.889 340.144C507.889 342.277 508.316 344.155 509.169 345.776C510.065 347.355 511.217 348.571 512.625 349.424C514.076 350.277 515.612 350.704 517.233 350.704C518.897 350.704 520.454 350.299 521.905 349.488C523.356 348.635 524.508 347.44 525.361 345.904C526.214 344.325 526.641 342.448 526.641 340.272Z" fill="black"/>
<path d="M1303.39 433.858C1303.66 433.185 1303.81 16.62 1303.81 16.62C1303.81 7.98712 1297.63 1 1289.98 1H593.739C586.109 1 579.915 7.98712 579.915 16.62V433.858H1303.39Z" fill="white" stroke="#1C1C1B" stroke-miterlimit="10"/>
<path d="M523 409.395V413.435C523 428.427 535.149 440.561 550.126 440.561H1333.6C1348.59 440.561 1360.72 428.412 1360.72 413.435V409.395H523Z" fill="white" stroke="#1C1C1B" stroke-miterlimit="10"/>
<path d="M946.776 15.9767C946.776 18.6848 944.577 20.8842 941.869 20.8842C939.161 20.8842 936.961 18.6848 936.961 15.9767C936.961 13.2686 939.161 11.0693 941.869 11.0693C944.577 11.0693 946.776 13.2686 946.776 15.9767Z" fill="white" stroke="#1C1C1B" stroke-miterlimit="10"/>
<path d="M976.281 424.985H907.472C901.847 424.985 897.283 420.422 897.283 414.797V409.41H986.485V414.797C986.47 420.422 981.907 424.985 976.281 424.985Z" fill="white" stroke="#1C1C1B" stroke-miterlimit="10"/>
<path d="M595.056 409.395V28.7989H1288.97V409.395" stroke="#1C1C1B" stroke-width="0.75" stroke-miterlimit="10"/>
<path d="M1554.46 276.191V323.365" stroke="black" stroke-width="0.5" stroke-miterlimit="10"/>
<path d="M1578.06 299.771H1530.88" stroke="black" stroke-width="0.5" stroke-miterlimit="10"/>
<path d="M1542.67 279.348L1566.27 320.209" stroke="black" stroke-width="0.5" stroke-miterlimit="10"/>
<path d="M1574.9 287.981L1534.04 311.561" stroke="black" stroke-width="0.5" stroke-miterlimit="10"/>
<path d="M1534.04 287.981L1574.9 311.561" stroke="black" stroke-width="0.5" stroke-miterlimit="10"/>
<path d="M1566.27 279.348L1542.67 320.209" stroke="black" stroke-width="0.5" stroke-miterlimit="10"/>
<path d="M1496.48 53.1865V84.6062" stroke="black" stroke-width="0.5" stroke-miterlimit="10"/>
<path d="M1512.19 68.8964H1480.77" stroke="black" stroke-width="0.5" stroke-miterlimit="10"/>
<path d="M1488.63 55.2961L1504.34 82.5115" stroke="black" stroke-width="0.5" stroke-miterlimit="10"/>
<path d="M1510.1 61.0414L1482.87 76.7513" stroke="black" stroke-width="0.5" stroke-miterlimit="10"/>
<path d="M1482.87 61.0414L1510.1 76.7513" stroke="black" stroke-width="0.5" stroke-miterlimit="10"/>
<path d="M1504.34 55.2961L1488.63 82.5115" stroke="black" stroke-width="0.5" stroke-miterlimit="10"/>
<path d="M1396.77 225.216H1453.59C1473.28 225.216 1489.23 241.166 1489.23 260.855C1489.23 280.545 1473.28 296.494 1453.59 296.494H1410.46C1402.73 313.386 1389.7 327.884 1373.47 336.936C1382.06 327.076 1387.14 314.553 1389.93 301.776C1390.35 299.875 1390.71 297.96 1391.02 296.03C1374.07 293.292 1361.11 278.585 1361.11 260.855C1361.13 241.166 1377.09 225.216 1396.77 225.216Z" fill="white"/>
<path d="M1396.77 225.216H1453.59C1473.28 225.216 1489.23 241.166 1489.23 260.855C1489.23 280.545 1473.28 296.494 1453.59 296.494H1410.46C1402.73 313.386 1389.7 327.884 1373.47 336.936C1382.06 327.076 1387.14 314.553 1389.93 301.776C1390.35 299.875 1390.71 297.96 1391.02 296.03C1374.07 293.292 1361.11 278.585 1361.11 260.855C1361.13 241.166 1377.09 225.216 1396.77 225.216Z" stroke="black" stroke-miterlimit="10"/>
<path d="M1449.1 266.301C1451.58 266.301 1453.59 264.292 1453.59 261.813C1453.59 259.334 1451.58 257.324 1449.1 257.324C1446.62 257.324 1444.61 259.334 1444.61 261.813C1444.61 264.292 1446.62 266.301 1449.1 266.301Z" fill="black"/>
<path d="M1426.63 266.301C1429.11 266.301 1431.12 264.292 1431.12 261.813C1431.12 259.334 1429.11 257.324 1426.63 257.324C1424.15 257.324 1422.14 259.334 1422.14 261.813C1422.14 264.292 1424.15 266.301 1426.63 266.301Z" fill="black"/>
<path d="M1404.16 266.301C1406.64 266.301 1408.65 264.292 1408.65 261.813C1408.65 259.334 1406.64 257.324 1404.16 257.324C1401.68 257.324 1399.67 259.334 1399.67 261.813C1399.67 264.292 1401.68 266.301 1404.16 266.301Z" fill="black"/>
<path d="M1436.92 56.538H1361.07V163.365H1436.92V56.538Z" fill="#080B0C" stroke="#1C1C1B" stroke-miterlimit="10"/>
<path d="M1442.2 56.538H1366.35V163.365H1442.2V56.538Z" fill="white" stroke="#1C1C1B" stroke-miterlimit="10"/>
<path d="M1425.9 73.6392H1382.67V84.2171H1425.9V73.6392Z" fill="white" stroke="#1C1C1B" stroke-width="0.75" stroke-miterlimit="10"/>
<path d="M1388.58 115.308H1419.99" stroke="#1C1C1B" stroke-width="0.75" stroke-miterlimit="10"/>
<path d="M1388.58 120.275H1419.99" stroke="#1C1C1B" stroke-width="0.75" stroke-miterlimit="10"/>
<path d="M1603.7 127.008H1482.44V199.767H1603.7V127.008Z" fill="white" stroke="#1C1C1B" stroke-miterlimit="10"/>
<path d="M1604 130.075L1543.36 166.447L1482.74 130.075" fill="white"/>
<path d="M1604 130.075L1543.36 166.447L1482.74 130.075" stroke="#1C1C1B" stroke-miterlimit="10"/>
<path d="M1436.67 364.465V387.596H1502.22V364.465H1436.67Z" stroke="black" stroke-width="0.8" stroke-miterlimit="10"/>
<path d="M1436.67 364.45L1411.61 376.659L1436.67 387.596L1411.61 376.659" stroke="black" stroke-miterlimit="10"/>
<path d="M1424.73 382.39C1420.36 380.489 1415.98 378.574 1411.61 376.674L1424.73 382.39Z" fill="black"/>
<path d="M1425.1 370.091C1420.6 372.29 1416.1 374.475 1411.61 376.674C1415.98 378.574 1420.36 380.489 1424.73 382.39" fill="black"/>
<path d="M1436.67 379.876H1502.86" stroke="black" stroke-width="0.75" stroke-miterlimit="10"/>
<path d="M1436.67 370.884H1502.86" stroke="black" stroke-width="0.75" stroke-miterlimit="10"/>
<mask id="mask0_491_4" style="mask-type:luminance" maskUnits="userSpaceOnUse" x="595" y="30" width="694" height="378">
<path d="M1288.32 30.3101H595.146V407.78H1288.32V30.3101Z" fill="white"/>
</mask>
<g mask="url(#mask0_491_4)">
<path d="M947.136 638.968C1175.83 638.968 1361.22 453.578 1361.22 224.887C1361.22 -3.80319 1175.83 -189.194 947.136 -189.194C718.445 -189.194 533.055 -3.80319 533.055 224.887C533.055 453.578 718.445 638.968 947.136 638.968Z" fill="#0908DA"/>
<path d="M946.478 569.202C1136.28 569.202 1290.15 415.335 1290.15 225.531C1290.15 35.7265 1136.28 -118.14 946.478 -118.14C756.673 -118.14 602.807 35.7265 602.807 225.531C602.807 415.335 756.673 569.202 946.478 569.202Z" fill="#191EE2"/>
<path d="M938.083 494.258C1089.71 494.258 1212.63 371.339 1212.63 219.711C1212.63 68.082 1089.71 -54.8372 938.083 -54.8372C786.455 -54.8372 663.536 68.082 663.536 219.711C663.536 371.339 786.455 494.258 938.083 494.258Z" fill="#3942ED"/>
<path d="M936.797 432.257C1053.46 432.257 1148.04 337.68 1148.04 221.012C1148.04 104.345 1053.46 9.76758 936.797 9.76758C820.13 9.76758 725.553 104.345 725.553 221.012C725.553 337.68 820.13 432.257 936.797 432.257Z" fill="#6C79F4"/>
<path d="M937.441 374.116C1022.35 374.116 1091.19 305.281 1091.19 220.369C1091.19 135.457 1022.35 66.6221 937.441 66.6221C852.529 66.6221 783.694 135.457 783.694 220.369C783.694 305.281 852.529 374.116 937.441 374.116Z" fill="#A9B9F9"/>
<path d="M936.797 317.261C989.954 317.261 1033.05 274.169 1033.05 221.012C1033.05 167.856 989.954 124.763 936.797 124.763C883.64 124.763 840.548 167.856 840.548 221.012C840.548 274.169 883.64 317.261 936.797 317.261Z" fill="white"/>
<path d="M992.994 234.927C992.994 237.919 992.994 240.911 992.994 243.904C992.844 245.43 992.754 246.956 992.53 248.452C992.455 248.961 992.156 249.574 991.767 249.859C984.062 255.499 975.683 259.838 966.631 262.89C964.088 263.743 964.028 263.773 962.562 261.484C960.991 259.045 959.524 256.531 957.938 253.928C959.719 253.15 961.29 252.507 962.831 251.774C964.372 251.026 965.868 250.188 967.439 249.365C965.793 247.42 965.509 247.36 963.549 248.183C945.76 255.738 927.985 255.634 910.211 248.153C908.385 247.39 907.772 247.539 906.365 249.455C909.492 250.966 912.56 252.447 915.896 254.063C913.906 257.19 911.991 260.227 910.001 263.234C909.866 263.444 909.223 263.504 908.879 263.399C899.154 260.362 890.192 255.813 881.978 249.799C881.664 249.574 881.364 249.14 881.334 248.781C880.467 239.759 880.811 230.782 882.516 221.865C885 208.863 890.222 196.999 897.523 186.002C897.807 185.583 898.271 185.209 898.735 184.984C905.632 181.828 912.829 179.658 920.28 178.267C920.863 178.162 921.237 178.252 921.507 178.82C922.195 180.272 923.018 181.663 923.616 183.144C923.99 184.042 924.469 184.147 925.352 184.057C928.434 183.728 931.531 183.264 934.613 183.309C939.311 183.369 943.994 183.773 948.692 184.087C949.425 184.132 949.859 184.042 950.173 183.279C950.802 181.768 951.61 180.331 952.313 178.85C952.582 178.297 952.926 178.162 953.525 178.267C960.946 179.628 968.097 181.813 974.965 184.925C975.489 185.164 976.042 185.583 976.341 186.077C978.316 189.278 980.351 192.435 982.117 195.742C987.608 206.051 991.079 217.003 992.35 228.628C992.605 230.737 992.784 232.832 992.994 234.927ZM965.674 224.887C965.644 224.454 965.629 223.765 965.509 223.077C965.374 222.329 965.195 221.581 964.941 220.863C962.442 213.876 954.318 211.631 949.141 216.494C944.353 220.982 944.338 229.271 949.096 233.775C952.956 237.44 958.612 237.351 962.337 233.565C964.641 231.246 965.629 228.388 965.674 224.887ZM927.626 229.69C928.569 227.341 928.643 224.723 928.03 222.269C927.835 221.461 927.596 220.668 927.267 219.92C924.02 212.694 914.834 211.676 910.255 218.439C907.652 222.284 907.532 227.401 909.941 231.366C913.532 237.321 920.609 238.084 925.068 233.61C926.22 232.428 927.057 231.126 927.626 229.69Z" fill="#5765F2"/>
<path d="M965.674 224.887C965.629 228.373 964.641 231.246 962.352 233.565C958.627 237.351 952.971 237.44 949.111 233.775C944.353 229.256 944.368 220.982 949.156 216.494C954.348 211.631 962.472 213.861 964.955 220.863C965.21 221.581 965.389 222.329 965.524 223.077C965.629 223.765 965.629 224.454 965.674 224.887Z" fill="white"/>
<path d="M927.252 230.528C927.072 230.902 926.863 231.261 926.638 231.62C923.347 236.827 916 237.949 911.646 233.595C907.352 229.286 907.128 221.805 911.168 217.257C915.97 211.841 924.214 213.172 927.267 219.935C927.551 220.563 927.76 221.222 927.94 221.88C928.703 224.753 928.568 227.85 927.252 230.528Z" fill="white"/>
</g>
<path d="M580.273 408.932H1303.19" stroke="#1C1C1B" stroke-width="0.75" stroke-miterlimit="10"/>
<path d="M593.994 29.158V408.932" stroke="#1C1C1B" stroke-width="0.75" stroke-miterlimit="10"/>
<path d="M1289.46 29.158V408.932" stroke="#1C1C1B" stroke-width="0.75" stroke-miterlimit="10"/>
<path d="M593.994 29.158H1289.46" stroke="#1C1C1B" stroke-width="0.75" stroke-miterlimit="10"/>
<path d="M595.28 407.884H1289.5" stroke="black" stroke-miterlimit="10"/>
<path d="M593.785 30.8487H1288.01" stroke="black" stroke-miterlimit="10"/>
</svg>
