<svg width="237" height="249" viewBox="0 0 237 249" fill="none" xmlns="http://www.w3.org/2000/svg">
<path d="M0.238196 88.7861C79.1987 88.7861 157.856 88.7861 236.825 88.7861C236.825 89.9027 236.825 90.8852 236.825 91.8767C236.825 135.537 236.834 179.207 236.816 222.867C236.807 238.445 226.964 248.217 211.324 248.217C149.182 248.217 87.0412 248.226 24.9 248.217C12.4217 248.217 2.88212 240.714 0.532959 229.048C0.193536 227.342 0.13101 225.565 0.13101 223.814C0.113146 179.6 0.113146 135.376 0.122078 91.1621C0.113146 90.4386 0.184603 89.7151 0.238196 88.7861ZM53.483 183.262C53.483 183.271 53.483 183.271 53.483 183.28C51.3571 183.28 49.2312 183.217 47.1054 183.289C40.6027 183.521 35.8419 188.264 35.6632 194.784C35.5561 198.75 35.5739 202.716 35.6454 206.682C35.7704 213.622 40.5134 218.437 47.5163 218.678C51.3928 218.812 55.2783 218.812 59.1549 218.678C66.0238 218.437 70.7935 213.774 71.0883 206.95C71.2669 202.895 71.2759 198.822 71.0794 194.775C70.7399 187.924 65.9076 183.414 59.0209 183.262C57.1809 183.226 55.3319 183.262 53.483 183.262ZM118.625 183.28C116.5 183.28 114.374 183.217 112.248 183.289C105.665 183.521 100.841 188.434 100.725 195.034C100.654 198.813 100.681 202.6 100.716 206.378C100.779 213.328 105.433 218.33 112.346 218.651C116.401 218.839 120.483 218.839 124.538 218.651C131.479 218.339 136.141 213.363 136.213 206.414C136.249 202.636 136.275 198.849 136.204 195.07C136.079 188.335 131.211 183.467 124.44 183.271C122.502 183.217 120.564 183.271 118.625 183.28ZM201.266 135.787C201.275 135.787 201.284 135.787 201.293 135.787C201.293 133.938 201.328 132.098 201.284 130.249C201.132 123.372 196.594 118.53 189.752 118.209C185.599 118.012 181.428 118.003 177.283 118.218C170.718 118.557 166.118 123.246 165.832 129.821C165.653 133.876 165.653 137.94 165.832 141.995C166.136 148.828 170.968 153.455 177.819 153.58C181.883 153.661 185.956 153.687 190.02 153.544C196.246 153.33 200.971 148.605 201.248 142.424C201.346 140.227 201.266 138.002 201.266 135.787ZM118.491 153.58C118.491 153.589 118.491 153.589 118.491 153.598C120.43 153.598 122.377 153.643 124.315 153.589C131.255 153.402 136.115 148.534 136.213 141.629C136.266 137.851 136.266 134.063 136.213 130.276C136.124 123.488 131.47 118.53 124.672 118.2C120.519 118.003 116.348 117.994 112.203 118.209C105.415 118.557 100.788 123.541 100.716 130.33C100.672 134.206 100.645 138.083 100.725 141.95C100.868 148.4 105.683 153.285 112.114 153.553C114.231 153.661 116.366 153.58 118.491 153.58ZM53.1882 153.58C53.1882 153.589 53.1882 153.598 53.1882 153.607C55.1265 153.607 57.0737 153.643 59.012 153.598C66.0059 153.437 70.8382 148.81 71.1062 141.817C71.258 137.86 71.2669 133.876 71.0972 129.919C70.8114 123.202 66.1577 118.504 59.4586 118.2C55.4034 118.021 51.3214 118.021 47.2662 118.191C40.4241 118.486 35.7794 123.318 35.6543 130.151C35.5829 134.206 35.5471 138.27 35.69 142.326C35.8955 148.534 40.6295 153.259 46.8195 153.544C48.9365 153.661 51.0623 153.58 53.1882 153.58ZM201.293 201.046C201.284 201.046 201.284 201.046 201.275 201.046C201.275 198.92 201.346 196.803 201.266 194.677C201.016 188.175 196.264 183.458 189.726 183.28C185.751 183.173 181.776 183.19 177.801 183.262C170.95 183.396 166.127 188.023 165.832 194.865C165.662 198.92 165.653 202.984 165.832 207.039C166.136 213.712 170.861 218.374 177.578 218.651C181.544 218.821 185.527 218.812 189.493 218.66C196.487 218.392 201.123 213.56 201.284 206.575C201.328 204.744 201.293 202.895 201.293 201.046Z" fill="#FFD94B"/>
<path d="M0.104588 76.6831C0.104588 75.5487 0.104588 74.5572 0.104588 73.5657C0.104588 63.5081 0.444011 53.4326 0.0241984 43.3839C-0.609987 28.1098 11.3055 16.8196 25.8471 17.7217C27.0173 17.7932 28.2052 17.7307 29.7416 17.7307C28.9734 27.0023 30.6259 35.2824 37.8877 41.4992C42.4074 45.3668 47.6774 47.323 53.6798 47.2069C61.2901 47.055 67.3639 43.893 72.1069 37.9978C76.8231 32.1293 77.3055 25.189 76.9482 17.9182C104.7 17.9182 132.185 17.9182 160.026 17.9182C159.231 27.172 160.946 35.5325 168.405 41.7314C172.898 45.4651 178.105 47.3498 184 47.2069C191.602 47.0282 197.693 43.8662 202.392 37.9353C207.054 32.0579 207.635 25.1444 207.242 18.0879C223.454 15.2028 236.7 26.0733 236.807 42.1959C236.879 52.9056 236.825 63.6063 236.816 74.316C236.816 75.0395 236.736 75.772 236.682 76.6831C157.856 76.6831 79.1366 76.6831 0.104588 76.6831Z" fill="#022D50"/>
<path d="M65.1665 17.7395C65.1665 19.8565 65.2469 21.9823 65.1576 24.0993C64.9075 30.1196 60.236 34.9608 54.305 35.4253C48.1954 35.8987 42.4788 31.8167 41.8535 25.7071C41.3087 20.4281 41.3176 15.0063 41.8535 9.72737C42.4699 3.72494 47.9989 -0.294539 54.046 0.0270192C59.977 0.339646 64.8093 5.1273 65.1398 11.1029C65.2648 13.3092 65.1576 15.5244 65.1665 17.7395Z" fill="#022D50"/>
<path d="M171.763 17.7217C171.763 15.6048 171.692 13.4789 171.781 11.362C172.022 5.35958 176.721 0.482612 182.634 0.0360023C188.761 -0.428471 194.46 3.6446 195.085 9.74529C195.63 15.0242 195.63 20.446 195.085 25.725C194.46 31.8167 188.726 35.9077 182.625 35.4253C176.703 34.9608 172.022 30.0928 171.79 24.0814C171.692 21.9645 171.763 19.8476 171.763 17.7217Z" fill="#022D50"/>
<path d="M53.4834 183.262C55.3323 183.262 57.1813 183.226 59.0303 183.271C65.917 183.423 70.7493 187.942 71.0887 194.784C71.2852 198.831 71.2763 202.904 71.0976 206.959C70.8029 213.783 66.0331 218.446 59.1643 218.687C55.2877 218.821 51.4022 218.821 47.5256 218.687C40.5138 218.446 35.7798 213.631 35.6547 206.691C35.5833 202.725 35.5654 198.759 35.6726 194.793C35.8512 188.273 40.6121 183.53 47.1147 183.298C49.2406 183.217 51.3665 183.289 53.4923 183.289C53.4834 183.271 53.4834 183.262 53.4834 183.262Z" fill="white"/>
<path d="M118.626 183.271C120.564 183.271 122.511 183.217 124.449 183.28C131.22 183.476 136.088 188.344 136.213 195.079C136.284 198.858 136.258 202.645 136.222 206.423C136.151 213.372 131.488 218.348 124.548 218.66C120.492 218.848 116.41 218.848 112.355 218.66C105.442 218.339 100.788 213.337 100.725 206.387C100.69 202.609 100.663 198.822 100.734 195.044C100.851 188.434 105.674 183.53 112.257 183.298C114.365 183.208 116.5 183.28 118.626 183.271Z" fill="white"/>
<path d="M201.267 135.787C201.267 138.003 201.356 140.218 201.249 142.424C200.963 148.614 196.247 153.33 190.021 153.545C185.957 153.687 181.884 153.661 177.82 153.58C170.969 153.446 166.136 148.828 165.833 141.995C165.654 137.94 165.654 133.876 165.833 129.821C166.119 123.247 170.719 118.557 177.284 118.218C181.428 118.003 185.609 118.012 189.753 118.209C196.595 118.53 201.133 123.372 201.285 130.249C201.329 132.089 201.294 133.938 201.294 135.787C201.285 135.787 201.276 135.787 201.267 135.787Z" fill="white"/>
<path d="M118.492 153.58C116.366 153.58 114.24 153.652 112.114 153.562C105.683 153.294 100.869 148.409 100.726 141.959C100.646 138.083 100.672 134.206 100.717 130.339C100.788 123.541 105.415 118.557 112.204 118.218C116.348 118.003 120.529 118.012 124.673 118.209C131.47 118.539 136.124 123.497 136.213 130.285C136.267 134.063 136.267 137.851 136.213 141.638C136.106 148.543 131.247 153.411 124.316 153.598C122.378 153.652 120.43 153.607 118.492 153.607C118.492 153.598 118.492 153.589 118.492 153.58Z" fill="white"/>
<path d="M53.1884 153.58C51.0626 153.58 48.9367 153.661 46.8109 153.562C40.6119 153.277 35.8868 148.551 35.6814 142.344C35.5474 138.288 35.5742 134.224 35.6456 130.169C35.7707 123.336 40.4154 118.504 47.2575 118.209C51.3127 118.039 55.3947 118.03 59.4499 118.218C66.158 118.521 70.8117 123.211 71.0886 129.937C71.2583 133.894 71.2493 137.878 71.0975 141.834C70.8295 148.828 65.9972 153.455 59.0033 153.616C57.065 153.661 55.1178 153.625 53.1795 153.625C53.1884 153.598 53.1884 153.589 53.1884 153.58Z" fill="white"/>
<path d="M201.294 201.046C201.294 202.895 201.329 204.735 201.285 206.584C201.133 213.569 196.488 218.401 189.494 218.669C185.528 218.821 181.544 218.83 177.579 218.66C170.853 218.374 166.127 213.721 165.833 207.048C165.654 202.993 165.654 198.929 165.833 194.874C166.127 188.032 170.951 183.405 177.802 183.271C181.777 183.19 185.751 183.181 189.726 183.289C196.274 183.467 201.017 188.184 201.267 194.686C201.347 196.803 201.276 198.929 201.276 201.055C201.285 201.046 201.285 201.046 201.294 201.046Z" fill="white"/>
<path d="M93.6338 180.823C94.5806 179.707 95.054 179.073 95.6078 178.519C121.288 152.821 146.977 127.132 172.675 101.443C177.114 97.0038 182.554 95.8783 187.645 98.4418C188.958 99.1028 190.164 100.068 191.263 101.068C193.049 102.694 194.71 104.444 196.399 106.168C202.017 111.885 202.053 119.236 196.425 124.908C188.476 132.911 180.472 140.87 172.496 148.855C148.468 172.883 124.432 196.91 100.422 220.965C97.7426 223.644 94.7324 224.922 91.0702 223.635C89.7751 223.18 88.5067 222.296 87.5241 221.322C72.0357 205.905 56.5831 190.452 41.1572 174.982C35.5924 169.399 35.6103 161.994 41.1214 156.394C42.8632 154.625 44.605 152.866 46.3825 151.142C51.7775 145.916 59.227 145.907 64.5595 151.204C73.7686 160.351 82.933 169.542 92.0974 178.742C92.5887 179.225 92.946 179.877 93.6338 180.823Z" fill="#022D50"/>
</svg>
