<svg width="342" height="230" viewBox="0 0 342 230" fill="none" xmlns="http://www.w3.org/2000/svg">
<path d="M300.577 172.68C257.979 162.452 217.141 163.765 178.599 187.15C178.519 186.444 178.322 185.596 178.322 184.756C178.304 133.539 178.286 82.3305 178.412 31.1133C178.42 29.1215 179.474 26.7902 180.761 25.2092C188.023 16.2948 197.875 11.1231 208.504 7.5949C238.23 -2.2841 268.153 -2.43594 298.13 6.63916C299.907 7.17509 300.836 7.80927 300.827 9.9262C300.765 63.7158 300.774 117.497 300.765 171.286C300.774 171.751 300.648 172.197 300.577 172.68Z" fill="#022D50"/>
<path d="M161.78 186.801C143.353 174.698 123.577 169.375 102.738 167.401C81.9261 165.427 61.4267 167.07 40.7308 173.153C40.7308 171.617 40.7308 170.402 40.7308 169.196C40.7308 116.559 40.7666 63.9302 40.6504 11.2929C40.6415 8.23805 41.6777 7.08579 44.4377 6.29976C76.7275 -2.91825 108.607 -2.39126 139.923 10.346C147.444 13.4008 154.33 17.6883 159.672 23.9587C160.833 25.3164 161.699 27.4244 161.699 29.193C161.807 78.9006 161.789 128.608 161.789 178.325C161.78 180.888 161.78 183.452 161.78 186.801Z" fill="#022D50"/>
<path d="M317.307 43.0914C325.551 44.8332 333.286 46.4678 341.183 48.1292C341.183 103.553 341.183 158.692 341.183 213.839C285.294 202.906 230.54 203.022 178.036 229.962C178.036 224.299 177.572 218.234 178.259 212.321C178.536 209.927 181.091 207.56 183.056 205.639C192.613 196.296 204.511 191.169 217.177 187.891C246.466 180.317 275.468 181.147 304.016 191.705C312.43 194.814 317.289 191.437 317.298 182.496C317.316 137.71 317.307 92.9241 317.307 48.147C317.307 46.6554 317.307 45.1637 317.307 43.0914Z" fill="#022D50"/>
<path d="M161.628 228.318C150.82 224.147 140.405 219.368 129.544 216.072C104.712 208.551 79.1124 206.55 53.2627 207.22C36.3809 207.658 19.7223 209.757 3.28712 213.669C2.38497 213.884 1.45602 213.982 0.0804623 214.205C0.0804623 212.928 0.0804623 211.812 0.0804623 210.695C0.0804623 157.843 0.107259 104.992 7.263e-05 52.1398C-0.00885956 49.2368 0.803969 48.022 3.60868 47.4861C10.3346 46.1909 17.007 44.6367 24.1884 43.0736C24.1884 45.0834 24.1884 46.4589 24.1884 47.8345C24.1884 92.147 24.1884 136.469 24.1884 180.781C24.1884 181.835 24.1616 182.889 24.1974 183.934C24.4653 191.062 29.4763 194.581 36.1576 192.125C47.0548 188.114 58.1933 185.086 69.7604 183.916C94.0917 181.451 117.842 183.657 140.512 193.492C147.417 196.493 153.714 200.486 159.02 205.925C160.815 207.765 161.807 209.686 161.69 212.428C161.458 217.912 161.628 223.405 161.628 228.318Z" fill="#022D50"/>
</svg>
