<svg width="460" height="433" viewBox="0 0 460 433" fill="none" xmlns="http://www.w3.org/2000/svg">
<path d="M137.848 163.736C137.848 163.736 156.762 176.544 159.309 189.85C161.857 203.157 159.309 242.009 159.309 242.009L134.902 261.862L126.491 224.931L113.811 156.591L119.048 148.28L137.848 163.736Z" fill="white" stroke="black" stroke-width="0.75" stroke-miterlimit="10"/>
<path d="M453.702 333.148C453.731 333.148 453.745 333.162 453.773 333.162C456.847 333.546 459.139 336.193 459.139 339.31V418.836C459.139 421.953 456.833 424.571 453.773 424.984C453.659 425.012 453.546 425.012 453.432 425.027C441.008 426.009 417.198 422.436 417.198 422.436L415.078 379.799L414.651 371.103C414.651 371.103 424.015 371.103 434.504 367.702C437.976 366.563 440.367 362.579 442.018 357.74C444.793 349.514 445.419 338.869 445.533 335.709C445.562 335.14 445.861 334.614 446.373 334.343C448.935 333.048 451.525 332.877 453.702 333.148Z" fill="white" stroke="black" stroke-width="0.75" stroke-miterlimit="10"/>
<path d="M453.774 333.162C456.848 333.546 459.139 336.193 459.139 339.31V418.836C459.139 421.953 456.834 424.571 453.774 424.984V333.162Z" fill="black"/>
<path d="M442.004 357.74C443.427 361.511 443.797 365.695 442.986 369.652C442.004 374.561 438.958 379.343 434.262 381.079C430.903 382.318 427.203 381.876 423.674 381.321C420.799 380.88 417.924 380.339 415.078 379.784L414.651 371.089C414.651 371.089 424.015 371.089 434.504 367.688C437.962 366.578 440.353 362.578 442.004 357.74Z" fill="black"/>
<path d="M435.443 407.408C438.887 407.408 441.677 410.197 441.677 413.641C441.677 417.085 438.887 419.875 435.443 419.875C431.999 419.875 429.21 417.085 429.21 413.641C429.196 410.197 431.985 407.408 435.443 407.408Z" fill="black"/>
<path d="M419.875 380.866C420.942 377.209 422.436 373.651 424.258 370.278C424.357 370.079 424.614 370.007 424.799 370.107C424.856 370.135 424.898 370.178 424.941 370.235L424.955 370.249C426.264 372.156 427.588 374.063 429.025 375.885C430.449 377.707 431.986 379.429 433.594 381.08L432.654 381.435C432.967 377.066 433.195 372.697 433.594 368.328V368.3C433.608 368.1 433.793 367.958 433.992 367.972C434.063 367.972 434.134 368.001 434.177 368.043C435.486 369.054 436.81 370.036 438.105 371.075C439.4 372.099 440.709 373.11 441.99 374.163C440.596 373.281 439.229 372.356 437.849 371.445C436.468 370.548 435.116 369.58 433.75 368.655L434.334 368.371C434.22 372.754 433.949 377.123 433.75 381.492C433.736 381.791 433.48 382.019 433.181 382.005C433.039 382.005 432.911 381.933 432.825 381.848L432.811 381.834C431.146 380.169 429.637 378.347 428.214 376.483C426.791 374.618 425.467 372.683 424.272 370.662L424.969 370.648C423.034 373.935 421.355 377.337 419.875 380.866Z" fill="white"/>
<path d="M101.359 423.418H418.622V369.808L183.034 351.948L101.359 423.418Z" fill="black"/>
<path d="M157.118 394.984L189.309 394.713L221.501 394.614L285.885 394.429L350.254 394.614L382.446 394.713L414.637 394.984L382.446 395.254L350.254 395.354L285.885 395.539L221.501 395.354L189.309 395.254L157.118 394.984Z" fill="white"/>
<path d="M395.268 374.732C396.164 374.291 397.061 374.191 397.957 374.177C398.854 374.191 399.751 374.291 400.647 374.732C399.751 375.173 398.854 375.273 397.957 375.287C397.061 375.273 396.164 375.173 395.268 374.732Z" fill="white"/>
<path d="M396.976 378.703C397.503 378.262 398.015 378.162 398.542 378.148C399.068 378.162 399.58 378.262 400.107 378.703C399.58 379.144 399.068 379.244 398.542 379.258C398.015 379.244 397.488 379.144 396.976 378.703Z" fill="white"/>
<path d="M343.323 426.564C343.323 426.592 343.309 426.606 343.309 426.635C342.925 429.709 340.277 432 337.161 432H257.635C254.518 432 251.9 429.694 251.487 426.635C251.458 426.521 251.458 426.407 251.444 426.293C250.462 413.869 254.034 390.06 254.034 390.06L296.672 387.939L305.368 387.512C305.368 387.512 305.368 396.877 308.769 407.365C309.907 410.838 313.892 413.229 318.731 414.879C326.957 417.655 337.602 418.281 340.761 418.395C341.331 418.423 341.857 418.722 342.128 419.234C343.423 421.782 343.593 424.386 343.323 426.564Z" fill="white" stroke="black" stroke-width="0.75" stroke-miterlimit="10"/>
<path d="M343.309 426.635C342.924 429.709 340.277 432 337.161 432H257.635C254.518 432 251.9 429.695 251.487 426.635H343.309Z" fill="black"/>
<path d="M318.73 414.851C314.959 416.274 310.775 416.644 306.819 415.833C301.909 414.851 297.127 411.806 295.391 407.109C294.153 403.75 294.594 400.05 295.149 396.521C295.59 393.646 296.131 390.771 296.686 387.925L305.381 387.498C305.381 387.498 305.381 396.862 308.783 407.351C309.907 410.824 313.892 413.214 318.73 414.851Z" fill="black"/>
<path d="M269.063 408.29C269.063 411.734 266.273 414.524 262.829 414.524C259.385 414.524 256.596 411.734 256.596 408.29C256.596 404.846 259.385 402.057 262.829 402.057C266.273 402.057 269.063 404.846 269.063 408.29Z" fill="black"/>
<path d="M295.833 392.878C299.362 394.87 302.92 396.805 306.563 398.542C306.777 398.641 306.877 398.912 306.777 399.125C306.748 399.182 306.72 399.225 306.677 399.253L306.663 399.268C304.998 400.805 303.304 402.299 301.625 403.807C299.946 405.33 298.252 406.824 296.53 408.305L296.217 407.379C298.238 407.55 300.259 407.707 302.28 407.792C304.301 407.906 306.322 407.949 308.328 407.849H308.342C308.513 407.835 308.655 407.963 308.67 408.134V408.162C308.584 410.539 308.442 412.901 308.285 415.278C308.172 412.901 308.086 410.539 308.044 408.162L308.385 408.475C306.35 408.689 304.301 408.774 302.251 408.746C300.202 408.689 298.167 408.561 296.146 408.433C295.861 408.418 295.634 408.162 295.662 407.878C295.676 407.735 295.733 407.607 295.833 407.522L295.847 407.508C297.526 405.985 299.22 404.491 300.942 403.025C302.65 401.545 304.358 400.05 306.08 398.584L306.179 399.324C302.564 397.417 299.092 395.297 295.833 392.878Z" fill="white"/>
<path d="M23.8394 369.723C23.8394 370.861 37.0747 441.194 93.8016 430.975C150.528 420.771 251.117 295.221 251.117 295.221V391.654H307.075C307.075 391.654 319.926 259.3 303.859 239.248C292.801 225.458 271.539 220.206 241.283 233.897C211.027 247.588 137.137 333.048 137.137 333.048L64.3138 350.069L23.8394 369.723Z" fill="black"/>
<path d="M59.9731 367.161C64.9399 373.608 70.0918 379.998 76.3109 385.264C79.4134 387.882 82.8148 390.188 86.5007 391.853C90.1867 393.532 94.1857 394.528 98.2133 394.671C102.255 394.813 106.297 394.144 110.111 392.792C113.939 391.468 117.568 389.633 121.012 387.469C127.914 383.171 134.105 377.835 140.381 372.654C165.358 351.734 188.47 328.594 209.362 303.617C214.585 297.37 219.722 291.051 224.689 284.59C229.656 278.157 234.637 271.554 241.069 266.373C242.678 265.092 244.357 263.883 246.179 262.887C246.62 262.616 247.089 262.403 247.545 262.161C247.986 261.919 248.47 261.691 248.996 261.506C250.021 261.165 251.145 261.051 252.213 261.207C254.376 261.492 256.34 262.787 257.507 264.594C257.806 265.036 258.062 265.548 258.261 265.989C258.475 266.43 258.717 266.843 259.001 267.227C259.57 267.996 260.296 268.65 261.136 269.134C261.549 269.376 261.99 269.575 262.459 269.718C262.901 269.86 263.413 269.96 263.925 270.145C264.936 270.5 265.889 271.041 266.672 271.781C268.28 273.219 269.191 275.396 269.063 277.559L268.494 289.77C267.839 306.051 267.597 322.346 267.768 338.641C267.896 354.936 268.437 371.231 269.39 387.512C268.252 371.245 267.526 354.965 267.213 338.655C266.957 322.346 267.156 306.037 267.739 289.741L268.266 277.517C268.365 275.581 267.554 273.66 266.117 272.379C265.405 271.724 264.551 271.24 263.641 270.927C263.199 270.771 262.701 270.685 262.175 270.5C261.662 270.33 261.179 270.116 260.709 269.86C259.77 269.333 258.944 268.593 258.304 267.74C257.976 267.313 257.706 266.843 257.478 266.359C257.251 265.875 257.051 265.477 256.781 265.078C255.728 263.47 253.977 262.332 252.085 262.09C251.145 261.961 250.178 262.061 249.267 262.36C248.826 262.517 248.384 262.73 247.929 262.972C247.488 263.214 247.032 263.413 246.605 263.684C244.841 264.665 243.218 265.847 241.639 267.099C235.348 272.208 230.424 278.769 225.486 285.216C220.548 291.705 215.424 298.053 210.201 304.329C189.167 329.277 165.927 352.36 140.837 373.224C134.532 378.375 128.313 383.712 121.325 388.01C117.853 390.173 114.167 392.023 110.282 393.347C106.411 394.699 102.283 395.382 98.1706 395.197C94.0577 395.012 90.0159 393.959 86.3015 392.208C82.587 390.472 79.1999 388.11 76.0975 385.449C69.9494 380.112 64.8688 373.665 59.9731 367.161Z" fill="white"/>
<path d="M273.888 285.401C274.329 286.198 274.428 287.009 274.443 287.806C274.428 288.603 274.329 289.414 273.888 290.211C273.446 289.414 273.347 288.603 273.333 287.806C273.347 287.009 273.446 286.198 273.888 285.401Z" fill="white"/>
<path d="M276.719 288.802C277.16 289.414 277.26 290.04 277.274 290.652C277.26 291.264 277.16 291.89 276.719 292.502C276.278 291.89 276.178 291.264 276.164 290.652C276.193 290.04 276.292 289.414 276.719 288.802Z" fill="white"/>
<path d="M250.918 294.481C250.477 291.364 250.377 288.233 250.363 285.116C250.377 282 250.477 278.869 250.918 275.752C251.359 278.869 251.459 282 251.473 285.116C251.459 288.233 251.359 291.35 250.918 294.481Z" fill="white"/>
<path d="M297.853 213.361V221.871L196.61 261.862L194.191 254.405L275.453 214.499L297.853 213.361Z" fill="#515151"/>
<path d="M278.712 218H269.632L288.289 115.676C288.56 114.153 289.898 113.043 291.435 113.043H297.839L278.712 218Z" fill="black"/>
<path d="M278.746 217.978L274.627 208.424L190.085 244.872L194.203 254.426L278.746 217.978Z" fill="black"/>
<path d="M278.726 217.972L297.853 213.361L316.724 115.875C317.151 113.698 315.372 111.705 313.166 111.876L297.853 113.043L278.726 217.972Z" fill="#515151"/>
<path d="M137.848 163.735L124.499 160.875C121.481 153.261 120.741 144.153 120.699 137.35C120.699 137.35 139.556 146.231 139.741 149.632C139.926 153.062 137.848 163.735 137.848 163.735Z" fill="white" stroke="black" stroke-width="0.75" stroke-miterlimit="10"/>
<path d="M122.45 154.485C122.564 152.009 123.005 149.604 123.517 147.227C124.072 144.85 124.698 142.502 125.666 140.211C125.552 142.687 125.125 145.092 124.599 147.469C124.044 149.846 123.417 152.208 122.45 154.485Z" fill="black"/>
<path d="M132.284 162.241C132.554 159.466 133.152 156.776 133.835 154.101C134.546 151.44 135.329 148.807 136.454 146.245C136.183 149.02 135.585 151.71 134.902 154.385C134.191 157.047 133.408 159.68 132.284 162.241Z" fill="black"/>
<path d="M124.499 160.889C124.499 160.889 133.792 165.998 136.339 179.333C138.887 192.668 139.755 263.57 139.755 263.57L109.115 299.305L86.5718 270.372L98.8394 150.557L124.499 160.889Z" fill="#FBCE1A" stroke="black" stroke-width="0.75" stroke-miterlimit="10"/>
<path d="M123.417 171.25C118.891 171.25 89.2611 142.175 86.5571 136.226C86.5571 136.226 91.6662 104.461 91.3816 98.2135C91.097 91.9801 99.7498 98.2135 99.7498 98.2135L121.168 127.289C121.168 127.289 120.684 131.458 120.699 137.364C120.741 144.167 121.481 153.275 124.498 160.889C124.982 162.127 125.523 163.309 126.135 164.447C126.135 164.447 127.942 171.25 123.417 171.25Z" fill="white" stroke="black" stroke-width="0.75" stroke-miterlimit="10"/>
<path d="M113.37 160.42C113.37 160.42 115.163 145.291 109.684 140.752C104.205 136.212 88.6213 122.806 88.6213 122.806L89.7314 114.907C89.7314 114.907 79.0578 115.419 76.9799 119.205C74.9021 122.991 73.5786 138.93 73.5786 138.93L112.744 163.736L113.37 160.42Z" fill="white" stroke="black" stroke-miterlimit="10"/>
<path d="M82.7725 118.109C84.0106 118.55 85.021 119.262 86.003 120.031C86.9565 120.827 87.8389 121.681 88.522 122.806C87.2839 122.364 86.2592 121.653 85.3057 120.884C84.3379 120.087 83.4413 119.234 82.7725 118.109Z" fill="black"/>
<path d="M107.08 138.845C107.108 142.175 106.795 145.477 106.396 148.764C105.97 152.052 105.457 155.325 104.618 158.541C104.589 155.197 104.902 151.909 105.301 148.622C105.728 145.348 106.24 142.075 107.08 138.845Z" fill="black"/>
<path d="M96.8329 130.548C96.4629 134.02 95.7656 137.393 94.997 140.752C94.1858 144.096 93.3035 147.426 92.0796 150.699C92.4496 147.255 93.1327 143.868 93.9155 140.495C94.7267 137.137 95.6232 133.792 96.8329 130.548Z" fill="black"/>
<path d="M81.4917 144.011C81.7621 142.104 82.1463 140.225 82.5448 138.361C82.9291 136.482 83.413 134.632 83.8826 132.782C84.3807 130.932 84.8788 129.096 85.4623 127.274C86.0316 125.453 86.6293 123.631 87.3409 121.838C87.0705 123.745 86.6862 125.624 86.2877 127.488C85.9035 129.366 85.4196 131.217 84.95 133.067C84.4519 134.917 83.9538 136.753 83.356 138.574C82.7868 140.41 82.2033 142.217 81.4917 144.011Z" fill="black"/>
<path d="M85.8604 115.448C86.2304 116.359 86.2731 117.255 86.2304 118.152C86.145 119.034 85.9885 119.917 85.4904 120.771C85.1204 119.86 85.0777 118.963 85.1204 118.067C85.2058 117.184 85.3623 116.302 85.8604 115.448Z" fill="black"/>
<path d="M22.9001 357.156C22.9001 357.156 19.3279 366.734 18.3033 372.526C18.0044 374.177 19.3991 375.657 21.0784 375.487C30.6705 374.505 60.9694 369.936 78.3461 350.781C78.3461 350.781 65.4381 336.891 64.8689 337.303C64.2996 337.73 31.9655 348.788 31.3963 349.215C30.8413 349.642 22.9001 357.156 22.9001 357.156Z" fill="white" stroke="black" stroke-width="0.75" stroke-miterlimit="10"/>
<path d="M28.2659 361.412C28.4509 363.603 28.6359 365.695 29.0486 367.759C29.4187 369.837 30.0022 371.843 30.6283 373.964C29.2194 372.256 28.3798 370.136 27.967 367.972C27.5543 365.795 27.5828 363.518 28.2659 361.412Z" fill="black"/>
<path d="M41.501 359.291C42.6537 360.956 43.5788 362.678 44.5181 364.386C45.4431 366.122 46.3682 367.83 47.1367 369.694C45.6424 368.314 44.5038 366.649 43.5503 364.913C42.611 363.162 41.8425 361.298 41.501 359.291Z" fill="black"/>
<path d="M53.0283 351.834C54.3803 353.769 55.6327 355.662 57.0274 357.484C58.3936 359.32 59.8595 361.056 61.3395 362.906C59.2902 361.725 57.5682 360.031 56.145 358.153C54.7219 356.26 53.5834 354.139 53.0283 351.834Z" fill="black"/>
<path d="M61.1543 345.757C62.9759 347.593 64.6979 349.414 66.548 351.122C68.3839 352.858 70.3194 354.452 72.2691 356.132C69.8498 355.192 67.6866 353.684 65.7795 351.933C63.9152 350.154 62.2644 348.105 61.1543 345.757Z" fill="black"/>
<path d="M106.012 325.192C116.06 271.369 117.896 216.036 111.434 161.672C111.434 161.672 89.2617 137.649 73.5643 138.93C57.8669 140.211 31.7805 149.276 26.8706 174.608C21.2634 203.513 7.85729 232.332 5.26715 261.663C3.65899 279.993 7.28803 298.693 3.77284 316.753C2.37815 323.94 -0.140833 331.283 1.58118 338.399C4.12863 348.931 14.8307 355.05 24.5082 359.946C37.9285 366.72 52.3308 351.336 64.9969 343.238C77.663 335.14 91.0122 326.004 106.012 325.192Z" fill="white" stroke="black" stroke-width="0.75" stroke-miterlimit="10"/>
<path d="M262.872 204.594C263.698 200.367 262.275 195.884 259.642 192.483C257.009 189.082 253.252 186.662 249.267 185.026C240.785 181.553 230.979 181.454 222.426 184.77C213.887 188.086 204.338 195.244 200.424 203.541C204.58 207.697 206.231 211.81 208.664 215.723C211.112 219.665 216.15 221.174 220.348 219.21C224.988 217.033 231.065 214.955 233.328 213.617C236.7 211.61 240.899 210.258 244.514 211.81C245.524 212.237 246.449 212.891 247.516 213.147C248.584 213.404 249.907 213.119 250.391 212.137C250.96 210.97 250.092 209.661 249.267 208.664C251.387 209.02 253.266 209.746 255.073 210.927C256.141 211.625 257.365 212.493 258.56 212.037C259.371 211.724 259.855 210.856 259.926 209.988C259.998 209.12 259.713 208.266 259.357 207.483C260.111 208.038 261.278 207.768 261.99 207.184C262.687 206.558 263.271 205.434 262.872 204.594Z" fill="white" stroke="black" stroke-width="0.75" stroke-miterlimit="10"/>
<path d="M248.669 207.768C247.232 206.928 245.823 206.089 244.428 205.235C243.048 204.438 241.582 203.484 240.216 203.086C240.031 203.057 240.002 203.043 239.803 203.057C239.618 203.086 239.433 203.114 239.234 203.157L238.052 203.427L235.661 203.997C234.068 204.395 232.459 204.737 230.823 205.036C232.317 204.324 233.854 203.698 235.42 203.157C236.202 202.872 236.985 202.645 237.782 202.403C238.18 202.289 238.579 202.189 239.006 202.09C239.205 202.047 239.419 202.004 239.646 201.962C239.846 201.919 240.244 201.933 240.458 202.004C242.251 202.559 243.546 203.541 244.912 204.523C246.25 205.505 247.488 206.601 248.669 207.768Z" fill="black"/>
<path d="M258.745 206.587C257.137 205.334 255.6 204.011 254.063 202.687C252.512 201.392 251.003 200.012 249.438 198.816C249.011 198.503 248.797 198.332 248.299 198.261C247.829 198.162 247.331 198.091 246.833 198.005L243.845 197.521C241.838 197.194 239.831 196.881 237.839 196.454C239.874 196.411 241.909 196.525 243.944 196.667C244.955 196.724 245.965 196.838 246.99 196.952C247.502 197.009 248 197.094 248.527 197.194C248.783 197.251 249.082 197.279 249.381 197.464C249.708 197.621 249.865 197.777 250.106 197.934C251.757 199.229 253.209 200.624 254.646 202.075C256.055 203.513 257.45 205.007 258.745 206.587Z" fill="black"/>
<path d="M261.975 204.011C260.666 202.602 259.456 201.136 258.247 199.67C257.023 198.233 255.856 196.682 254.632 195.344C254.49 195.202 254.404 195.116 254.219 195.031L253.593 194.76L252.284 194.234C251.416 193.864 250.519 193.551 249.637 193.166C247.872 192.441 246.107 191.729 244.385 190.904C246.264 191.288 248.1 191.814 249.921 192.369C250.846 192.626 251.743 192.953 252.654 193.252C253.109 193.408 253.55 193.579 254.006 193.764L254.689 194.049C254.945 194.163 255.23 194.376 255.415 194.575C256.752 196.055 257.834 197.578 258.916 199.172C259.997 200.738 261.05 202.331 261.975 204.011Z" fill="black"/>
<path d="M249.679 220.107C251.629 216.264 251.487 211.568 249.864 207.569C248.256 203.57 245.296 200.225 241.909 197.564C234.694 191.914 225.287 189.153 216.164 190.007C207.042 190.875 198.304 195.344 192.284 202.26C196.937 210.586 202.26 218.328 207.995 225.956C211.197 223.479 214.883 221.757 218.797 220.719C222.583 219.708 226.994 219.552 230.054 222.028C230.908 222.725 231.62 223.593 232.587 224.134C233.541 224.675 234.893 224.76 235.633 223.935C236.501 222.967 236.017 221.459 235.491 220.277C237.44 221.188 239.049 222.398 240.457 224.034C241.297 224.988 242.236 226.155 243.503 226.055C244.371 225.984 245.083 225.273 245.382 224.461C245.68 223.65 245.638 222.754 245.51 221.885C246.079 222.626 247.274 222.682 248.128 222.312C248.968 221.928 249.836 221.017 249.679 220.107Z" fill="white" stroke="black" stroke-width="0.75" stroke-miterlimit="10"/>
<path d="M235.476 220.277C234.324 219.082 233.199 217.887 232.089 216.691C230.979 215.538 229.826 214.229 228.631 213.475C228.46 213.389 228.446 213.375 228.247 213.333C228.062 213.304 227.877 213.29 227.677 213.276L226.468 213.219L224.02 213.119C222.383 213.062 220.732 212.962 219.082 212.806C220.718 212.536 222.355 212.351 224.006 212.251C224.831 212.194 225.657 212.18 226.482 212.166C226.895 212.166 227.307 212.18 227.734 212.194C227.948 212.208 228.161 212.222 228.389 212.251C228.588 212.265 228.972 212.393 229.157 212.507C230.737 213.532 231.705 214.827 232.758 216.136C233.754 217.431 234.665 218.826 235.476 220.277Z" fill="black"/>
<path d="M245.496 221.871C244.286 220.221 243.162 218.527 242.052 216.848C240.913 215.183 239.846 213.432 238.665 211.867C238.337 211.454 238.181 211.24 237.725 211.027C237.298 210.799 236.843 210.6 236.388 210.372L233.641 209.091C231.805 208.238 229.955 207.384 228.147 206.43C230.126 206.957 232.047 207.611 233.968 208.295C234.936 208.622 235.875 209.02 236.814 209.405C237.284 209.604 237.754 209.817 238.223 210.059C238.451 210.187 238.721 210.301 238.978 210.543C239.248 210.785 239.362 210.97 239.547 211.184C240.785 212.877 241.81 214.613 242.792 216.406C243.745 218.2 244.685 220.007 245.496 221.871Z" fill="black"/>
<path d="M249.309 220.278C248.441 218.57 247.673 216.833 246.904 215.083C246.121 213.361 245.424 211.554 244.598 209.931C244.513 209.746 244.442 209.647 244.285 209.518L243.759 209.077L242.649 208.209C241.909 207.626 241.14 207.071 240.4 206.459C238.906 205.292 237.397 204.11 235.96 202.844C237.654 203.726 239.29 204.722 240.898 205.761C241.71 206.259 242.492 206.814 243.275 207.355C243.673 207.626 244.058 207.91 244.442 208.209L245.025 208.679C245.239 208.85 245.452 209.134 245.58 209.376C246.463 211.169 247.089 212.934 247.701 214.756C248.299 216.592 248.868 218.413 249.309 220.278Z" fill="black"/>
<path d="M24.6786 214.812C19.1568 246.108 23.2412 279.039 36.2346 308.029C43.7346 324.765 54.579 340.619 70.1056 350.396C85.6322 360.173 106.425 362.863 122.407 353.869C131.643 348.674 138.616 340.15 147.739 334.742C156.064 329.803 165.969 327.597 173.441 321.449C186.562 310.648 188.299 291.435 196.823 276.734C200.609 270.216 206.003 263.74 205.277 256.24C204.893 252.327 202.843 248.812 201.577 245.097C200.296 241.383 199.94 236.857 202.53 233.897C194.276 225.685 187.217 216.335 180.528 206.8C173.284 205.733 166.211 209.675 161.159 214.955C156.093 220.249 152.777 226.909 149.261 233.328C138.659 252.654 125.609 270.643 110.509 286.71C108.474 262.09 107.947 238.551 109.57 213.902C110.281 202.915 111.349 191.715 108.673 181.041C105.727 169.3 98.0279 158.655 87.3827 152.891C76.7375 147.127 63.2318 146.572 52.487 152.151C42.0126 157.587 34.9253 168.133 31.1397 179.319C27.3257 190.505 26.7279 203.185 24.6786 214.812Z" fill="white" stroke="black" stroke-width="0.75" stroke-miterlimit="10"/>
<path d="M110.553 285.828C108.176 287.678 105.216 288.731 102.199 289.058C100.676 289.201 99.1674 289.186 97.6446 288.916C96.8904 288.774 96.1076 288.518 95.4672 288.048C94.841 287.564 94.3145 286.895 94.2148 286.141C94.9122 287.521 96.3923 287.962 97.7585 288.062C99.1816 288.133 100.647 288.119 102.085 287.948C104.96 287.678 107.763 286.909 110.553 285.828Z" fill="black"/>
<path d="M75.7562 157.089C71.7002 170.296 68.8539 183.859 67.2458 197.55C65.5807 211.24 65.111 225.073 65.8653 238.835C66.6196 252.597 68.5693 266.302 71.7287 279.708C73.2942 286.426 75.2012 293.043 77.3644 299.59C78.4033 302.877 79.6984 306.065 80.8511 309.31C82.0466 312.526 83.3132 315.757 85.4052 318.375C87.4118 320.965 90.5997 322.844 93.8445 322.616C95.4527 322.517 96.9185 321.677 98.5124 320.951C99.3094 320.595 100.163 320.254 101.103 320.112C102.042 319.969 103.081 320.14 103.935 320.638C105.657 321.72 106.283 323.541 107.123 324.965C107.535 325.705 107.991 326.373 108.574 326.886C109.158 327.384 109.869 327.725 110.638 327.839C112.189 328.053 113.826 327.484 115.263 326.672C116.729 325.847 118.024 324.794 119.234 323.556C121.767 321.236 124.044 318.646 126.264 316.041C128.413 313.366 130.519 310.633 132.412 307.759C136.283 302.066 139.613 296.018 142.787 289.898C149.106 277.645 154.57 264.907 161.7 253.038C168.759 241.212 177.668 230.111 189.352 222.626C177.754 230.254 169.044 241.44 162.156 253.309C155.111 265.178 149.703 277.915 143.441 290.24C140.282 296.388 136.98 302.479 133.109 308.228C131.216 311.131 129.11 313.892 126.961 316.611C124.727 319.258 122.436 321.876 119.888 324.239C118.679 325.477 117.284 326.63 115.747 327.512C114.21 328.38 112.417 329.063 110.51 328.821C109.57 328.693 108.66 328.266 107.934 327.654C107.208 327.028 106.696 326.245 106.254 325.491C105.386 323.983 104.717 322.332 103.408 321.549C102.085 320.752 100.448 321.207 98.9394 321.933C97.4166 322.631 95.8085 323.584 93.9157 323.712C90.1728 323.983 86.7145 321.891 84.5229 319.101C82.3027 316.283 81.0361 312.953 79.8407 309.723C78.7022 306.464 77.4071 303.233 76.3824 299.931C74.2477 293.342 72.3549 286.696 70.8179 279.936C67.7154 266.459 65.8084 252.697 65.1253 238.892C64.4422 225.088 64.9545 211.212 66.705 197.493C68.5124 183.773 71.5295 170.239 75.7562 157.089Z" fill="black"/>
<path d="M180.5 206.814C180.5 206.814 186.719 197.962 189.836 197.678C192.953 197.393 211.112 226.61 210.913 228.119C210.728 229.628 203.626 233.84 202.502 233.911C201.378 233.968 186.563 218.498 180.5 206.814Z" fill="white" stroke="black" stroke-width="0.75" stroke-miterlimit="10"/>
<path d="M182.009 209.333C183.105 207.27 184.755 205.534 186.606 204.11C188.484 202.716 190.59 201.606 192.882 201.108C190.946 202.403 189.068 203.627 187.274 204.993C185.467 206.331 183.788 207.811 182.009 209.333Z" fill="black"/>
<path d="M187.161 216.478C187.901 214.158 189.324 212.08 191.032 210.344C192.768 208.622 194.831 207.199 197.151 206.444C195.258 207.967 193.465 209.461 191.814 211.127C190.149 212.777 188.669 214.585 187.161 216.478Z" fill="black"/>
<path d="M194.148 225.742C194.76 223.479 196.027 221.43 197.592 219.68C199.172 217.943 201.079 216.478 203.27 215.624C201.563 217.218 199.912 218.74 198.417 220.42C196.895 222.085 195.543 223.878 194.148 225.742Z" fill="black"/>
<path d="M199.172 230.752C199.955 228.816 201.207 227.109 202.645 225.629C204.111 224.163 205.776 222.868 207.711 222.056C206.288 223.593 204.837 224.96 203.442 226.397C202.019 227.82 200.681 229.3 199.172 230.752Z" fill="black"/>
<path d="M173.484 68.4412C173.484 68.4412 137.179 46.3254 137.179 46.7524C137.179 47.1793 110.239 58.8065 110.239 58.8065L94.3564 70.7183V96.8047C94.3564 96.8047 111.52 132.682 130.376 132.825C143.199 132.924 152.933 122.009 157.858 115.007C159.523 115.818 161.529 115.903 163.223 115.178C165.4 114.238 166.966 112.004 167.08 109.627C167.193 107.293 166.055 105.102 165.343 102.867C164.034 98.7686 164.304 94.2145 165.913 90.2439C166.624 88.5077 167.834 86.9707 169.47 86.0456C169.485 86.0456 169.485 86.0314 169.499 86.0314C179.874 80.2107 173.484 68.4412 173.484 68.4412Z" fill="white" stroke="black" stroke-miterlimit="10"/>
<path d="M158.725 98.2421C157.217 99.9783 154.954 100.135 153.702 98.5979C152.435 97.0609 152.648 94.3996 154.157 92.6633C155.666 90.9271 157.928 90.7705 159.181 92.3218C160.447 93.8446 160.234 96.5059 158.725 98.2421Z" fill="black"/>
<path d="M155.054 109.286C155.623 109.57 155.894 109.869 156.136 110.211C156.363 110.567 156.548 110.922 156.605 111.563C155.965 111.591 155.524 111.25 155.225 110.851C154.954 110.41 154.798 109.869 155.054 109.286Z" fill="black"/>
<path d="M152.051 121.61C149.333 120.842 146.984 118.849 145.476 116.416C143.967 113.982 143.227 110.993 143.754 108.204C144.124 110.979 145.006 113.541 146.429 115.818C147.824 118.123 149.717 120.045 152.051 121.61Z" fill="black"/>
<path d="M102.212 84.6083C101.671 81.7335 102.113 78.6453 103.465 75.9697C104.133 74.6462 104.987 73.3796 106.14 72.3549C107.264 71.3445 108.801 70.5617 110.481 70.7468C112.16 70.946 113.498 72.1557 114.252 73.5077C115.035 74.9024 115.291 76.4394 115.462 77.9052C115.604 79.3711 115.704 80.8796 115.504 82.4024C115.305 83.8967 114.722 85.5049 113.455 86.5722H113.441C113.242 86.743 112.929 86.7145 112.758 86.5153C112.63 86.3587 112.615 86.1595 112.687 85.9887C113.213 84.9071 112.872 83.427 111.989 82.5305C111.121 81.577 109.613 81.4773 108.46 82.1747C107.307 82.8151 106.567 84.2098 106.951 85.5475C107.293 86.8568 108.488 88.0238 109.94 88.1519C108.474 88.1946 107.094 87.0846 106.595 85.6614C106.339 84.9498 106.339 84.1244 106.624 83.3844C106.923 82.6585 107.464 82.0466 108.118 81.6196C108.773 81.2069 109.556 80.9508 110.367 80.9792C111.178 81.0077 111.975 81.3635 112.573 81.9185C113.754 83.0001 114.281 84.836 113.555 86.4014L112.8 85.8179C113.797 84.9498 114.281 83.6263 114.451 82.2601C114.622 80.8796 114.508 79.4565 114.337 78.0191C114.195 76.5959 113.967 75.187 113.313 74.0058C112.672 72.8388 111.591 71.871 110.324 71.7003C109.058 71.5295 107.734 72.1272 106.652 72.9811C105.571 73.8492 104.703 75.002 103.991 76.2401C102.639 78.7591 101.956 81.6766 102.212 84.6083Z" fill="black"/>
<path d="M151.937 73.0665C153.659 72.1557 155.723 71.928 157.701 72.2268C159.665 72.5257 161.629 73.3938 162.981 74.9308C163.451 75.4716 163.408 76.297 162.867 76.7667C162.454 77.1225 161.885 77.1794 161.43 76.9517L161.373 76.9232C159.935 76.2116 158.569 75.5143 157.061 75.0162C155.552 74.5181 153.944 74.2477 152.179 74.1481H152.165C151.852 74.1338 151.61 73.8634 151.624 73.5361C151.638 73.3369 151.766 73.1519 151.937 73.0665Z" fill="black"/>
<path d="M133.796 112.689C138.343 108.143 138.343 100.772 133.796 96.226C129.25 91.6797 121.879 91.6797 117.333 96.226C112.787 100.772 112.787 108.143 117.333 112.689C121.879 117.235 129.25 117.235 133.796 112.689Z" fill="black"/>
<path d="M97.4165 91.3967C99.1385 92.2079 100.832 92.6917 102.597 92.8056C104.361 92.9337 106.098 92.706 107.919 92.1367C106.539 93.4887 104.461 94.0437 102.511 93.9156C100.576 93.7733 98.612 92.9194 97.4165 91.3967Z" fill="black"/>
<path d="M222.341 35.0114C218.313 26.2305 208.323 20.2106 198.816 21.9326C193.294 22.9288 188.313 26.2732 182.72 26.7571C177.597 27.184 172.545 25.1489 168.232 22.3311C163.934 19.499 160.206 15.9126 156.15 12.739C144.893 4.00085 130.519 -1.3929 116.373 0.314882C102.227 2.02267 89.5177 12.2551 85.5044 25.9316C81.1923 22.6868 75.1012 22.3168 70.1486 24.4373C65.1818 26.5436 61.3678 30.87 59.2046 35.8083C57.0414 40.7467 56.4152 46.2543 56.6856 51.6338C56.9418 56.9706 58.0803 62.4071 60.9266 66.9469C63.7871 71.5152 68.1562 74.9023 72.5822 77.9621C76.7521 80.8369 81.0642 83.5836 84.6363 87.1557C86.1022 90.3151 86.9561 93.7591 87.0841 97.2458C87.1553 99.2667 87.013 101.359 87.7388 103.266C88.4646 105.159 90.4001 106.809 92.3783 106.354C93.773 106.041 94.7692 104.803 95.495 103.565C97.5301 100.149 99.4513 96.3635 99.2663 92.3929C96.3916 89.2477 95.1534 84.7506 95.7085 80.5238C96.2635 76.297 98.5405 72.3691 101.728 69.5513C104.603 67.0038 108.631 65.2818 112.302 66.4061C115.86 67.4877 118.251 71.0314 119.02 74.6746C119.802 78.3179 120.059 81.8473 119.746 85.5618C119.589 87.4546 121.624 89.0342 123.517 88.8635C125.41 88.6927 126.989 87.2411 127.886 85.5618C128.783 83.8824 129.124 81.9754 129.58 80.1253C130.803 75.1585 132.867 70.3909 135.671 66.1073C137.307 63.6025 139.328 61.1547 142.103 60.0304C145.647 58.593 149.874 59.6319 152.877 62.0228C155.865 64.3995 157.758 67.9431 158.911 71.5864C160.063 75.2297 160.547 79.0579 161.23 82.8151C161.586 84.8075 162.042 86.8568 163.308 88.4365C164.148 89.4897 165.471 90.2297 166.781 90.3293C168.93 93.261 171.961 95.5238 175.434 96.577C180.415 98.0713 186.136 96.9612 190.092 93.6026C194.063 90.2297 197.478 84.224 196.411 79.1433C205.647 76.3255 214.271 70.761 219.565 62.6775C224.831 54.5655 226.368 43.7922 222.341 35.0114Z" fill="black"/>
</svg>
