<svg width="601" height="341" viewBox="0 0 601 341" fill="none" xmlns="http://www.w3.org/2000/svg">
<path d="M0 179.48C0 175.69 0.96 171.94 2.95 168.71C3.48 167.85 4.07 167.05 4.75 166.36C8.46 162.66 13.11 162.09 17.8 164.27C22.47 166.44 25.23 170.37 25.42 175.86C25.64 182.2 25.64 188.56 25.46 194.9C25.25 202.16 20.88 207.35 14.63 208.21C8.31 209.09 3.11 205.69 0.81 199.28C0.57 198.62 0.29 197.98 0.02 197.34C0.01 197.29 0 197.23 0 197.17C0 191.28 0 185.38 0 179.48Z" fill="#FFD94B"/>
<path d="M82.0001 194.01C82.0001 162.51 81.9801 131.01 82.0101 99.5C82.0201 89.56 88.4401 82.64 97.1301 83.01C103.59 83.29 109.26 88.7 110.33 95.67C110.56 97.18 110.67 98.73 110.67 100.25C110.69 162.93 110.69 225.6 110.68 288.28C110.68 297.06 107.32 302.83 101.04 305.07C91.4001 308.5 82.3401 301.46 82.0401 290.16C81.8801 284.13 82.0101 278.09 82.0001 272.05C82.0001 246.04 82.0001 220.02 82.0001 194.01Z" fill="#FFD94B"/>
<path d="M126.39 183.52C126.39 170.06 126.32 156.6 126.41 143.15C126.47 134.59 131.73 127.88 138.7 127.08C145.62 126.29 151.73 131.25 153.52 139.08C153.85 140.54 153.97 142.06 153.97 143.58C153.99 170.34 154.03 197.1 153.96 223.87C153.93 234.95 147.12 241.98 137.99 240.61C131.23 239.59 126.48 233.23 126.41 224.59C126.3 210.9 126.39 197.21 126.39 183.52Z" fill="#FFD94B"/>
<path d="M66 189.59C66 211.86 66.02 234.14 65.99 256.41C65.98 265.66 61.69 271.74 54.31 273.2C46.81 274.69 39.79 268.94 38.65 260.32C38.43 258.68 38.33 257.01 38.33 255.36C38.31 211.48 38.31 167.6 38.32 123.72C38.32 114.58 42.17 108.35 48.88 106.49C57.83 104.01 65.93 111.48 65.97 122.45C66.05 140.72 66 159 66 177.29C66 181.39 66 185.49 66 189.59Z" fill="#FFD94B"/>
<path d="M600.02 189.18C600.03 192.97 599.08 196.73 597.1 199.96C596.57 200.82 595.99 201.63 595.31 202.31C591.61 206.02 586.96 206.6 582.27 204.44C577.59 202.29 574.82 198.36 574.61 192.87C574.37 186.53 574.35 180.17 574.51 173.83C574.69 166.57 579.05 161.37 585.3 160.48C591.62 159.58 596.83 162.97 599.14 169.37C599.38 170.03 599.66 170.66 599.93 171.31C599.95 171.37 599.96 171.42 599.96 171.48C599.98 177.39 600 183.28 600.02 189.18Z" fill="#FFD94B"/>
<path d="M517.97 174.9C518.07 206.4 518.18 237.9 518.25 269.41C518.27 279.35 511.88 286.29 503.18 285.94C496.72 285.68 491.03 280.29 489.94 273.32C489.7 271.81 489.59 270.27 489.59 268.74C489.38 206.07 489.19 143.39 489.01 80.72C488.98 71.94 492.32 66.16 498.6 63.9C508.23 60.44 517.31 67.45 517.64 78.75C517.82 84.78 517.71 90.82 517.73 96.86C517.82 122.88 517.89 148.89 517.97 174.9Z" fill="#FFD94B"/>
<path d="M473.62 185.53C473.66 198.99 473.77 212.44 473.72 225.9C473.69 234.46 468.45 241.19 461.48 242C454.56 242.81 448.43 237.87 446.62 230.05C446.28 228.59 446.16 227.07 446.16 225.56C446.06 198.8 445.94 172.04 445.92 145.27C445.91 134.19 452.7 127.14 461.83 128.48C468.59 129.47 473.36 135.83 473.46 144.46C473.62 158.15 473.58 171.84 473.62 185.53Z" fill="#FFD94B"/>
<path d="M533.99 179.28C533.92 157.01 533.83 134.73 533.8 112.46C533.79 103.21 538.06 97.12 545.43 95.63C552.93 94.12 559.96 99.85 561.12 108.47C561.34 110.11 561.45 111.78 561.45 113.43C561.6 157.31 561.74 201.19 561.86 245.07C561.89 254.21 558.06 260.45 551.35 262.33C542.41 264.84 534.29 257.39 534.21 246.42C534.08 228.14 534.08 209.85 534.02 191.57C534.01 187.48 534 183.38 533.99 179.28Z" fill="#FFD94B"/>
<path d="M312.66 0C312.69 0 312.73 0 312.76 0.01C317.83 1.22 323 2.06 327.94 3.7C354.62 12.55 375.02 38.87 377.16 66.92C377.2 67.4 377.18 67.88 377.17 68.58C377.17 68.83 376.96 69.02 376.72 69.02C374.81 69.02 372.93 69.02 371.05 69.02C361.02 69.02 350.99 68.99 340.95 69.03C334.4 69.05 329.74 73.62 329.83 79.84C329.91 85.92 334.5 90.33 340.89 90.36C352.83 90.4 364.76 90.37 376.97 90.37C377.22 90.37 377.42 90.57 377.42 90.82V114.11C377.42 114.36 377.23 114.56 376.98 114.56C376 114.56 374.96 114.56 373.91 114.56C359.43 114.56 344.95 114.55 330.48 114.56C323.56 114.57 318.88 118.9 318.89 125.24C318.9 131.58 323.57 135.89 330.51 135.9C344.87 135.92 359.24 135.91 373.6 135.91H377.05C377.3 135.91 377.5 136.11 377.5 136.36V159.65C377.5 159.9 377.3 160.1 377.05 160.1C372.9 160.1 368.86 160.1 364.81 160.1C356.72 160.1 348.62 160.05 340.53 160.12C334.43 160.17 329.9 164.71 329.83 170.65C329.76 176.75 334.34 181.4 340.63 181.43C352.54 181.49 364.44 181.45 377 181.45C377.28 181.45 377.49 181.7 377.44 181.97C376.81 185.83 376.38 189.48 375.56 193.02C367.95 225.72 339.34 249.15 306.91 249.8C291.64 250.11 276.83 248.64 263.31 240.57C241.94 227.81 229.45 208.78 226.36 183.24C226.31 182.87 226.34 182.48 226.35 181.89C226.35 181.65 226.55 181.45 226.8 181.45H230.75C241.24 181.45 251.73 181.47 262.21 181.44C269.1 181.43 273.77 177.01 273.71 170.66C273.65 164.44 269.03 160.12 262.34 160.11C251.4 160.09 240.45 160.1 229.51 160.1C228.53 160.1 227.55 160.1 226.47 160.1C226.22 160.1 226.01 159.9 226.01 159.65V136.36C226.01 136.11 226.21 135.91 226.46 135.91H229.6C244.08 135.91 258.56 135.92 273.03 135.9C279.98 135.89 284.64 131.6 284.65 125.25C284.66 118.91 279.99 114.57 273.06 114.57C258.7 114.55 244.33 114.57 229.97 114.57C228.87 114.57 227.76 114.57 226.5 114.57C226.25 114.57 226.05 114.37 226.05 114.12V90.81C226.05 90.56 226.25 90.36 226.5 90.36C230.62 90.36 234.66 90.36 238.7 90.36C246.79 90.36 254.89 90.41 262.98 90.34C269.12 90.29 273.62 85.8 273.7 79.83C273.79 73.73 269.21 69.06 262.92 69.03C251.98 68.97 241.03 69.01 230.09 69.01C229 69.01 227.92 69.01 226.66 69.01C226.39 69.01 226.18 68.78 226.2 68.52C227.62 52.64 233.09 38.88 242.7 26.98C254.79 12.02 270.18 3.14 288.88 0.6C289.51 0.51 290.12 0.22 290.74 0.02C290.79 0 290.84 0 290.89 0C298.15 0 305.4 0 312.66 0Z" fill="#022D50"/>
<path d="M292.52 323.13V285.07C292.52 284.85 292.36 284.67 292.15 284.63C286.17 283.51 280.2 282.82 274.51 281.21C231.89 269.16 205.73 242.5 196.5 201.22C195.24 195.59 195.03 189.72 194.72 183.94C194.43 178.52 198.33 174.57 203.57 174.43C208.93 174.28 212.82 178.17 213.04 183.73C214.35 217.21 230.39 242.35 261.6 257.97C314.48 284.43 380.56 252.36 389.46 196.29C390.13 192.1 390.38 187.83 390.6 183.59C390.89 178.2 394.67 174.36 399.92 174.42C405.16 174.48 408.98 178.41 409 183.78C409.19 233.14 368.89 277.02 317.35 283.57C315.47 283.81 313.59 284.06 311.58 284.33C311.36 284.36 311.19 284.55 311.19 284.78V323.13C311.19 323.38 311.4 323.58 311.64 323.58C312.61 323.58 313.54 323.58 314.48 323.58C329.69 323.58 344.9 323.54 360.1 323.6C367.21 323.63 371.79 329.88 369 335.74C367.33 339.24 364.29 340.97 360.23 340.99C354.62 341.01 349 341 343.39 341C310.22 341 277.05 341.01 243.87 340.99C236.5 340.98 231.78 334.82 234.62 328.87C236.34 325.25 239.48 323.58 243.68 323.58C258.79 323.6 273.89 323.59 289 323.59C289.97 323.59 290.94 323.59 292.06 323.59C292.31 323.58 292.52 323.38 292.52 323.13Z" fill="#022D50"/>
</svg>
