<svg width="27" height="36" viewBox="0 0 27 36" fill="none" xmlns="http://www.w3.org/2000/svg">
<path d="M23.0387 11.1708C23.0387 11.972 23.0453 12.77 23.0354 13.5712C23.0321 13.8198 23.0783 13.9277 23.3649 13.9702C25.3778 14.2678 26.9328 16.0011 26.9624 18.0222C26.9921 20.1119 27.0382 22.2082 26.9427 24.2947C26.6857 29.6646 22.6104 34.4655 17.2998 35.5545C14.338 36.1595 11.3071 36.2478 8.42118 35.1882C3.60797 33.4222 0.784614 29.9459 0.129015 24.8834C-0.0851251 23.2122 0.0334757 21.4953 0.0268867 19.798C0.0235923 18.9869 -0.00605792 18.1661 0.115837 17.3714C0.385983 15.6315 1.86849 14.2286 3.62774 13.9702C3.90777 13.9277 3.96377 13.8329 3.96377 13.5778C3.95718 12.0767 3.93742 10.5756 3.97366 9.07449C4.08237 4.52871 7.7557 0.571584 12.3087 0.0646801C17.3195 -0.49455 21.7374 2.62209 22.8345 7.49491C22.9102 7.82849 22.986 8.17188 22.9926 8.51199C23.0157 9.39826 22.9992 10.2813 22.9992 11.1675C23.0124 11.1708 23.0256 11.1708 23.0387 11.1708ZM8.12798 13.8754C11.7058 13.8754 15.2901 13.8754 18.8581 13.8754C18.8581 12.1977 18.9569 10.5331 18.835 8.88481C18.6307 6.09847 16.3444 4.12645 13.4947 4.12645C10.6449 4.12645 8.36518 6.09847 8.15104 8.88481C8.02585 10.5134 8.09833 12.1552 8.08185 13.7903C8.08515 13.81 8.10492 13.8296 8.12798 13.8754ZM12.2625 27.0287C12.2724 27.0287 12.2856 27.0287 12.2955 27.0287C12.2955 27.4702 12.2592 27.915 12.3054 28.3532C12.3614 28.8895 12.7864 29.2591 13.3233 29.3147C14.1371 29.3997 14.7004 28.9157 14.7268 28.0752C14.7466 27.4244 14.7433 26.7736 14.7268 26.1228C14.7169 25.7565 14.8487 25.5015 15.1518 25.2823C15.837 24.7885 16.1797 24.105 16.2027 23.2645C16.2357 22.0087 15.4351 20.8772 14.2755 20.5501C13.0499 20.2035 11.8013 20.694 11.1754 21.7733C10.5395 22.8721 10.6581 24.2947 11.5938 25.0436C12.1703 25.5047 12.3383 25.9986 12.2658 26.6624C12.2526 26.7834 12.2625 26.9077 12.2625 27.0287Z" fill="white"/>
</svg>
