<svg width="100" height="100" viewBox="0 0 100 100" fill="none" xmlns="http://www.w3.org/2000/svg">
<path d="M52.9298 100C50.9798 100 49.0198 100 47.0698 100C46.8198 99.94 46.5698 99.86 46.3198 99.84C38.4998 99.29 31.1798 97.05 24.5098 92.96C11.5598 85.02 3.57977 73.58 0.789768 58.61C0.439768 56.74 0.269766 54.83 0.00976562 52.94C0.00976562 50.99 0.00976562 49.03 0.00976562 47.08C0.0697656 46.73 0.139766 46.39 0.189766 46.04C0.499766 43.89 0.679767 41.71 1.13977 39.59C3.74977 27.58 9.91976 17.75 19.6998 10.34C31.8698 1.12001 45.5698 -1.92999 60.5098 1.18001C72.4698 3.67001 82.1898 9.94001 89.6298 19.61C97.6598 30.05 101 41.93 99.7398 55.01C98.7198 65.61 94.6098 74.97 87.5398 82.96C79.7998 91.72 70.1498 97.17 58.6198 99.22C56.7298 99.56 54.8298 99.74 52.9298 100ZM37.4998 49.95C37.4998 56 37.5098 62.05 37.4898 68.11C37.4898 69.1 37.6098 70.01 38.5698 70.55C39.5698 71.12 40.4298 70.7 41.2898 70.14C50.6398 64.12 59.9998 58.11 69.3498 52.1C71.3498 50.81 71.3498 49.21 69.3598 47.92C59.9798 41.89 50.5898 35.86 41.2098 29.83C40.3698 29.29 39.5398 28.93 38.5698 29.46C37.6098 29.99 37.4798 30.89 37.4798 31.89C37.5098 37.91 37.4998 43.93 37.4998 49.95Z" fill="#022D50"/>
<path d="M37.4997 49.95C37.4997 43.93 37.5097 37.91 37.4897 31.89C37.4897 30.89 37.6198 29.99 38.5798 29.46C39.5398 28.93 40.3797 29.29 41.2197 29.83C50.5997 35.87 59.9797 41.89 69.3697 47.92C71.3597 49.2 71.3597 50.81 69.3597 52.1C60.0097 58.11 50.6498 64.12 41.2998 70.14C40.4398 70.69 39.5898 71.11 38.5798 70.55C37.6198 70.01 37.4997 69.11 37.4997 68.11C37.5097 62.06 37.4997 56.01 37.4997 49.95Z" fill="white"/>
</svg>
