<svg width="137" height="137" viewBox="0 0 137 137" fill="none" xmlns="http://www.w3.org/2000/svg">
<g clip-path="url(#clip0_409_3)">
<path d="M137 4.81498C136.642 7.41014 136.346 10.0196 135.924 12.604C132.925 30.8952 126.984 48.0176 115.219 62.6412C112.023 66.6126 108.138 70.0335 104.567 73.701C104.259 74.0156 103.909 74.2908 103.662 74.5089C104.531 76.7359 105.575 78.8234 106.161 81.0325C107.863 87.4275 106.465 93.2362 102.254 98.305C97.2278 104.357 90.5682 107.863 83.1221 109.883C80.2266 110.67 77.1667 110.884 74.1747 111.284C72.9092 111.452 71.8833 110.913 71.3578 109.701C70.8395 108.5 71.1898 107.456 72.0727 106.53C75.4616 102.984 76.92 98.7161 76.7592 93.8582C76.6912 91.8636 76.1264 91.5419 74.2783 92.196C70.9253 93.3828 67.5436 94.498 64.1727 95.6419C62.1887 96.3175 60.1905 96.5892 58.2423 95.7956C58.085 95.91 57.9813 95.9458 57.9491 96.0137C54.7641 102.705 49.3842 106.762 42.3456 108.578C38.0024 109.697 33.5626 110.455 29.1407 111.234C26.9888 111.613 25.5231 110.291 25.7305 108.239C26.3596 102.012 27.5786 95.9207 30.0737 90.1263C32.1006 85.415 35.5215 82.0513 39.947 79.6134C40.3366 79.3989 40.7263 79.1952 41.2732 78.8985C40.0257 76.1246 41.0981 73.5009 41.931 70.8914C42.8354 68.0532 43.8935 65.2614 44.9158 62.4625C45.4377 61.0291 45.0731 60.3535 43.5324 60.2641C38.7852 59.9889 34.5528 61.3008 30.9495 64.4714C30.7815 64.618 30.6206 64.7753 30.4634 64.929C29.5518 65.8191 28.4901 66.1586 27.289 65.6332C26.0772 65.1041 25.659 64.0854 25.6947 62.8092C25.8055 58.627 26.667 54.5912 28.0862 50.6735C30.0058 45.3759 32.7047 40.5395 36.7083 36.5181C43.6111 29.5869 52.269 28.2643 60.9447 32.7648C61.3773 32.99 61.8027 33.2223 62.3389 33.5047C62.8393 32.9435 63.3362 32.3894 63.8259 31.8246C73.0915 21.108 84.5663 13.5513 97.6461 8.33953C108.467 4.025 119.688 1.31188 131.295 0.221625C131.595 0.193028 131.888 0.0750665 132.185 0C133.79 0 135.395 0 137 0C137 1.60499 137 3.20999 137 4.81498ZM124.689 34.7773C124.492 34.5485 124.263 34.2411 123.995 33.9694C116.999 26.9668 109.993 19.9748 103.015 12.9579C102.493 12.4324 102.079 12.3395 101.4 12.6005C92.9561 15.8641 84.9988 20.007 77.9281 25.7049C67.3363 34.2411 59.4505 44.9327 53.2627 56.9541C51.6756 60.0389 51.6827 60.0425 54.1671 62.5304C54.3566 62.7199 54.546 62.9093 54.7355 63.0988C61.8277 70.1944 68.9306 77.2756 75.9942 84.3998C76.6877 85.1004 77.2239 85.2148 78.0532 84.7251C79.0112 84.1603 80.0443 83.7349 81.0309 83.2202C101.231 72.6894 116.324 57.4902 124.303 35.8032C124.406 35.5065 124.521 35.2169 124.689 34.7773ZM47.5647 55.6493C51.2073 49.7119 54.8999 43.6994 58.5926 37.6834C53.756 34.6378 47.2322 34.4555 41.9703 38.9631C36.4688 43.6709 33.5412 49.8692 31.8503 56.7575C31.8146 56.9004 31.8897 57.0684 31.9183 57.2686C37.0873 54.9845 42.2956 54.0372 47.5647 55.6493ZM81.224 89.5115C82.804 92.65 82.4644 96.6821 79.7655 105.168C80.148 105.118 80.4947 105.104 80.8236 105.022C84.9988 103.974 88.9203 102.326 92.5057 99.9314C95.4655 97.9547 98.0071 95.574 99.8159 92.4569C102.272 88.2246 101.982 82.2765 99.2869 78.4195C93.2921 82.1013 87.3116 85.7725 81.224 89.5115ZM31.4071 105.565C36.7512 104.721 41.7308 103.681 46.3028 101.229C49.6737 99.4238 51.8043 96.4998 53.3235 93.0932C53.4808 92.7429 53.3271 92.028 53.0518 91.742C50.478 89.0861 47.8614 86.4731 45.2125 83.8958C44.948 83.6384 44.2903 83.499 43.9614 83.642C40.8907 84.986 38.1668 86.8413 36.3616 89.7295C33.3875 94.4766 32.3973 99.8635 31.4071 105.565ZM131.427 5.57637C123.387 6.41283 115.716 7.97135 108.488 10.209C114.587 16.3073 120.724 22.4449 126.798 28.5217C129.021 21.2581 130.583 13.6121 131.427 5.57637ZM49.302 65.4294C48.2582 68.7681 47.2894 71.9459 46.2635 75.1059C45.8631 76.3319 46.2134 77.2828 47.0642 78.1335C51.0035 82.0727 54.9428 86.0155 58.8821 89.9512C59.7401 90.8055 60.7052 91.1308 61.9206 90.7233C64.7875 89.7617 67.6723 88.8573 70.5464 87.9172C70.8502 87.8171 71.1219 87.6277 71.3721 87.499C64.044 80.1746 56.8017 72.9289 49.302 65.4294Z" fill="black"/>
<path d="M24.7868 116.535C24.5687 116.922 24.3114 117.722 23.7859 118.251C17.8984 124.199 11.9751 130.115 6.04113 136.021C4.78284 137.272 3.23142 137.311 2.11969 136.228C0.986516 135.123 1.02226 133.497 2.30915 132.206C8.18594 126.308 14.0806 120.428 19.9681 114.541C20.8582 113.651 21.8806 113.24 23.1139 113.751C24.1684 114.183 24.6688 115.023 24.7868 116.535Z" fill="black"/>
<path d="M25.7949 136.979C23.5 137.029 22.1559 135.009 22.9602 133.254C23.1068 132.936 23.3105 132.625 23.5572 132.378C29.5305 126.387 35.4859 120.378 41.5343 114.466C42.1205 113.89 43.3288 113.576 44.1617 113.704C45.9919 113.987 46.7283 116.128 45.706 117.683C45.6094 117.829 45.4986 117.976 45.3735 118.101C39.3287 124.146 33.2911 130.198 27.2177 136.214C26.7744 136.646 26.0809 136.828 25.7949 136.979Z" fill="black"/>
<path d="M23.8289 93.2255C23.2819 94.2086 23.0281 95.0128 22.5027 95.5455C16.6151 101.497 10.6919 107.413 4.75789 113.318C3.52105 114.552 1.92316 114.594 0.825729 113.533C-0.325321 112.421 -0.282424 110.82 1.01161 109.519C6.88483 103.617 12.7795 97.7367 18.6599 91.8422C19.5643 90.9378 20.6653 90.4517 21.7841 91.0844C22.5849 91.5312 23.1175 92.4499 23.8289 93.2255Z" fill="black"/>
<path d="M54.5996 122.888C53.9061 122.326 53.0375 121.862 52.5192 121.143C51.865 120.235 52.0437 119.109 52.8159 118.312C55.4147 115.635 58.0456 112.982 60.7374 110.398C61.7955 109.379 63.3576 109.544 64.3407 110.562C65.2522 111.51 65.4095 113.097 64.4658 114.08C61.8813 116.771 59.2253 119.395 56.5478 121.994C56.1403 122.391 55.4611 122.505 54.5996 122.888Z" fill="black"/>
<path d="M14.3523 81.7654C14.5525 81.4115 14.8099 80.6251 15.3282 80.0889C17.6768 77.6475 20.0897 75.2632 22.5026 72.8825C23.7323 71.6707 25.3516 71.6064 26.4383 72.6609C27.5644 73.7511 27.5608 75.3275 26.3275 76.5858C23.8931 79.0701 21.423 81.5187 18.9493 83.9638C18.12 84.7823 17.1298 85.0647 16.0074 84.5893C14.96 84.1425 14.4238 83.3346 14.3523 81.7654Z" fill="black"/>
<path d="M124.689 34.7773C124.521 35.2169 124.406 35.5065 124.299 35.7996C116.324 57.4903 101.232 72.6859 81.0274 83.2166C80.0408 83.7314 79.0041 84.1603 78.0497 84.7215C77.2204 85.2113 76.6842 85.0969 75.9907 84.3962C68.9271 77.2721 61.8242 70.1908 54.732 63.0952C54.5425 62.9058 54.3531 62.7163 54.1636 62.5269C51.6792 60.0389 51.6721 60.0354 53.2592 56.9505C59.447 44.9291 67.3328 34.2375 77.9246 25.7014C84.9953 20.0035 92.9526 15.8605 101.396 12.5969C102.075 12.3324 102.49 12.4289 103.012 12.9543C109.99 19.9749 116.996 26.9632 123.992 33.9658C124.263 34.2411 124.492 34.5485 124.689 34.7773ZM96.4736 53.862C103.855 53.8692 109.811 47.9497 109.861 40.5574C109.911 33.2009 103.784 27.074 96.4236 27.1312C89.0383 27.1884 83.115 33.1651 83.1329 40.5359C83.1579 47.9532 89.0633 53.8549 96.4736 53.862ZM77.2347 62.2981C78.0425 62.0193 78.6109 61.9835 78.9291 61.6833C80.5341 60.1605 82.1606 58.6413 83.6083 56.9719C84.4234 56.0318 84.0838 54.577 83.1615 53.7119C82.1999 52.8111 80.77 52.6467 79.7655 53.551C78.2499 54.913 76.7378 56.3178 75.4902 57.9156C75.0148 58.5233 74.9647 59.8352 75.2829 60.593C75.5939 61.3401 76.6127 61.7905 77.2347 62.2981ZM69.9995 69.6403C71.4687 69.6367 72.6376 68.4857 72.6555 67.0273C72.6734 65.5331 71.4186 64.2999 69.9208 64.3428C68.4624 64.3821 67.3363 65.5688 67.3542 67.038C67.3721 68.5215 68.5196 69.6475 69.9995 69.6403Z" fill="#FFD94B"/>
<path d="M47.5646 55.6494C42.2919 54.0336 37.0872 54.9845 31.9182 57.2687C31.8896 57.0649 31.8145 56.8969 31.8503 56.7575C33.5411 49.8692 36.4688 43.6709 41.9702 38.9631C47.2357 34.4556 53.756 34.6379 58.5925 37.6834C54.8999 43.6995 51.2108 49.7155 47.5646 55.6494Z" fill="#022D50"/>
<path d="M81.2241 89.5115C87.3118 85.7725 93.2923 82.0978 99.287 78.4196C101.979 82.2765 102.272 88.2211 99.8161 92.457C98.0073 95.574 95.4657 97.9547 92.5058 99.9315C88.9204 102.326 84.999 103.974 80.8237 105.022C80.4949 105.104 80.1481 105.115 79.7656 105.168C82.4645 96.6822 82.8005 92.65 81.2241 89.5115Z" fill="#022D50"/>
<path d="M31.4072 105.565C32.3974 99.8636 33.3912 94.4766 36.3582 89.7296C38.1634 86.8413 40.8873 84.9861 43.958 83.642C44.2868 83.499 44.9446 83.6385 45.2091 83.8958C47.8615 86.4731 50.4782 89.0861 53.0484 91.7421C53.3272 92.028 53.4774 92.7429 53.3201 93.0933C51.8008 96.4999 49.6703 99.4239 46.2994 101.229C41.7309 103.681 36.7478 104.721 31.4072 105.565Z" fill="#DA4133"/>
<path d="M131.427 5.57642C130.587 13.6121 129.021 21.2617 126.798 28.5218C120.721 22.4449 114.586 16.3109 108.488 10.2091C115.716 7.9714 123.384 6.41287 131.427 5.57642Z" fill="#022D50"/>
<path d="M49.302 65.4294C56.8017 72.9289 64.0476 80.1747 71.3757 87.499C71.1254 87.6277 70.8538 87.8171 70.5499 87.9172C67.6759 88.8574 64.7911 89.7617 61.9242 90.7233C60.7124 91.1308 59.7436 90.8055 58.8857 89.9512C54.9428 86.012 51.0035 82.0728 47.0678 78.1336C46.217 77.2828 45.8667 76.332 46.267 75.1059C47.2894 71.9495 48.2581 68.7681 49.302 65.4294Z" fill="#022D50"/>
<path d="M96.4737 53.862C89.0634 53.8548 83.158 47.9532 83.1365 40.5359C83.1151 33.1651 89.0383 27.1883 96.4272 27.1311C103.784 27.0739 109.915 33.2008 109.864 40.5573C109.811 47.9496 103.855 53.8691 96.4737 53.862ZM96.5416 48.5108C100.978 48.4786 104.531 44.8969 104.506 40.4858C104.481 36.0784 100.885 32.493 96.4844 32.4859C92.0232 32.4787 88.4342 36.1212 88.4843 40.6109C88.5343 45.0613 92.084 48.543 96.5416 48.5108Z" fill="black"/>
<path d="M77.2346 62.2981C76.6162 61.7905 75.5938 61.3401 75.2828 60.593C74.9647 59.8352 75.0147 58.5233 75.4902 57.9157C76.7377 56.3214 78.2498 54.913 79.7655 53.5511C80.7736 52.6467 82.1999 52.8111 83.1615 53.7119C84.0837 54.577 84.4233 56.0318 83.6083 56.972C82.1605 58.6413 80.5341 60.1605 78.929 61.6833C78.6109 61.9835 78.0389 62.0193 77.2346 62.2981Z" fill="black"/>
<path d="M69.9995 69.6403C68.5196 69.6439 67.3721 68.5179 67.3542 67.0416C67.3363 65.5688 68.4624 64.3856 69.9208 64.3463C71.4186 64.3034 72.6734 65.5366 72.6555 67.0308C72.6412 68.4857 71.4723 69.6367 69.9995 69.6403Z" fill="black"/>
<path d="M96.5415 48.5109C92.0803 48.5431 88.5342 45.065 88.4842 40.611C88.4341 36.1249 92.0231 32.4788 96.4843 32.486C100.885 32.4931 104.481 36.0784 104.506 40.4859C104.535 44.897 100.978 48.4787 96.5415 48.5109Z" fill="white"/>
</g>
<defs>
<clipPath id="clip0_409_3">
<rect width="137" height="137" fill="white"/>
</clipPath>
</defs>
</svg>
