<svg width="131" height="154" viewBox="0 0 131 154" fill="none" xmlns="http://www.w3.org/2000/svg">
<g clip-path="url(#clip0_409_22)">
<path d="M38.7191 97.9301C37.4979 97.1166 36.074 96.3207 37.088 94.6628C38.1063 92.996 39.4729 94.0305 40.8571 94.6849C43.1098 90.2283 46.1164 86.8063 51.8252 86.992C51.8252 83.2516 51.8297 79.6748 51.812 76.0981C51.812 75.8637 51.6401 75.6029 51.4814 75.4039C48.876 72.1853 48.876 72.1897 48.6292 68.666C46.0811 68.9047 43.5375 69.2054 40.9806 69.3557C39.9578 69.4176 38.8778 69.2805 37.8859 69.0109C36.3738 68.6041 35.0292 68.3875 33.5436 69.3203C32.3048 70.0985 31.4144 69.0816 30.6693 67.879C29.4306 68.5378 28.2183 69.1435 27.0368 69.8111C24.9781 70.9783 22.9414 72.1809 20.9003 73.3702C19.688 74.0776 18.4272 74.418 18.0878 76.3236C17.6954 78.5474 14.5831 78.9763 12.6698 77.1768C9.8132 74.4843 8.17327 71.0711 7.52965 67.2114C7.28718 65.7568 7.74125 64.4305 9.14753 63.701C10.5626 62.967 11.8146 63.334 12.8682 64.5985C17.2193 62.5205 21.5219 60.4646 25.9523 58.3469C25.4013 56.5872 26.3403 55.6765 27.7907 55.031C28.4916 54.7215 29.1308 54.2705 29.8097 53.9124C31.7847 52.8778 33.7111 52.0599 33.8698 49.1728C33.9889 47.0418 35.6729 45.4369 37.5641 44.3537C61.03 30.8734 83.914 16.3762 107.935 3.87742C108.605 3.52814 109.187 2.86054 109.606 2.21062C110.761 0.411179 112.529 -0.473066 114.544 0.247594C115.959 0.756034 117.453 1.45459 118.524 2.47589C125.626 9.26689 129.823 17.5832 130.943 27.3983C131.084 28.6274 130.934 29.9538 130.63 31.1652C129.942 33.9019 128.126 35.0117 125.34 34.6447C124.983 34.6005 124.564 34.5784 124.255 34.7243C119.992 36.7271 115.782 38.8581 111.48 40.7725C96.6675 47.3601 81.82 53.8726 66.9901 60.416C66.395 60.6768 65.8087 60.9642 65.1695 61.256C65.262 61.4506 65.2929 61.6274 65.3987 61.7114C69.0974 64.625 69.8203 68.4096 67.4618 72.5257C67.2502 72.8971 66.9416 73.3039 66.9372 73.6973C66.8976 78.0523 66.9152 82.4072 66.9152 86.8505C68.2818 86.9743 69.4765 87.0185 70.6491 87.2086C73.6468 87.6861 75.9568 89.2158 77.4469 91.9172C77.7378 92.4477 78.0552 92.965 78.3594 93.4912C79.9288 96.2279 79.9332 96.2367 82.9574 95.6752C84.1212 95.4586 85.1087 95.9052 85.2012 97.006C85.2585 97.7134 84.5929 98.6109 84.0198 99.1945C83.6186 99.6057 82.8251 99.6322 82.0404 99.8798C91.7169 116.707 101.327 133.419 111.017 150.273C111.524 150.273 112.181 150.251 112.833 150.277C114.006 150.322 114.729 150.954 114.72 152.125C114.711 153.301 113.97 153.938 112.807 153.956C110.827 153.987 108.848 153.947 106.869 153.978C105.656 153.996 104.642 153.748 104.435 152.333C104.272 151.223 104.827 150.631 106.525 150.109C106.304 149.667 106.11 149.234 105.877 148.827C96.9452 133.287 88.005 117.75 79.0824 102.205C78.5886 101.343 78.2139 100.698 76.9619 101.069C76.4594 101.219 75.4102 100.654 75.1324 100.132C74.8547 99.619 75.1633 98.7259 75.3617 98.045C75.4454 97.7488 75.8951 97.5543 76.164 97.3288C73.1707 90.8428 70.2039 89.459 62.4451 90.949C62.4451 93.0579 62.4451 95.1889 62.4451 97.3951C63.6133 97.6913 65.1562 97.8682 64.8609 99.4554C64.6978 100.335 63.6486 101.051 62.7272 102.17C62.7272 115.889 62.7272 130.232 62.7272 144.782C63.966 144.782 64.9446 144.738 65.9145 144.795C67.021 144.861 67.8498 145.374 67.8762 146.599C67.9071 147.903 67.0739 148.513 65.888 148.549C63.7985 148.611 61.7089 148.557 59.6193 148.58C58.3365 148.593 57.0712 148.482 56.8067 146.93C56.5555 145.436 57.7237 144.976 58.7552 144.68C58.7552 130.183 58.7552 115.774 58.7552 101.396C57.0492 100.746 54.2895 101.856 54.4747 99.0133C54.6334 96.6214 56.9522 97.5101 58.5436 97.3111C58.5436 95.1978 58.5436 93.1154 58.5436 90.5643C55.2638 90.7588 51.9751 90.6881 48.7879 91.2275C46.134 91.6785 45.3978 94.4417 43.8989 96.5551C44.9349 97.1652 45.8695 97.7046 46.7909 98.2661C47.7916 98.8718 48.4087 99.6853 47.7783 100.87C47.1215 102.099 46.0899 102.143 44.9658 101.516C44.0092 100.981 43.0613 100.424 41.9284 99.7737C31.3703 116.521 20.8342 133.229 10.1703 150.145C11.1004 150.193 11.8499 150.025 12.3436 150.308C13.0181 150.693 13.988 151.471 13.9351 151.988C13.8645 152.682 12.9784 153.792 12.3701 153.841C9.91459 154.053 7.41944 154.027 4.95955 153.85C4.38646 153.81 3.46069 152.824 3.46069 152.276C3.46069 151.613 4.21453 150.892 4.76558 150.313C5.21083 149.84 6.02197 149.65 6.3526 149.132C17.0562 132.279 27.7245 115.403 38.3973 98.5269C38.4898 98.3943 38.556 98.244 38.7191 97.9301ZM59.8 58.8155C77.0325 51.0828 94.1855 43.3855 111.061 35.8119C108.575 32.1025 105.894 28.7026 103.888 24.9401C101.891 21.1865 100.582 17.0659 98.9158 12.9719C97.6373 13.6837 96.1517 14.4839 94.6969 15.3328C80.6826 23.5121 66.6683 31.6957 52.6805 39.9192C52.2529 40.1712 51.8076 40.9494 51.8693 41.418C52.7334 47.9349 55.352 53.6736 59.8 58.8155ZM56.2292 60.3585C51.9178 55.031 49.3874 49.1949 48.1927 42.5101C44.8997 44.4554 41.7741 46.1664 38.8028 48.1073C37.0395 49.2613 36.5369 51.578 37.4847 53.5985C38.8116 56.4369 40.24 59.24 41.7785 61.9678C42.9071 63.9662 45.0363 64.7753 47.1744 64.0016C50.1545 62.9317 53.064 61.6451 56.2292 60.3585ZM127.57 28.0969C127.491 28.0659 127.416 28.035 127.337 28.004C127.288 27.3983 127.297 26.7838 127.187 26.1913C125.878 19.1616 122.911 12.9056 118.299 7.47629C117.246 6.23835 115.941 5.16399 114.605 4.23554C113.305 3.33361 112.569 3.75362 112.472 5.35853C112.397 6.55668 112.436 7.79462 112.63 8.97951C113.49 14.2275 115.602 19.0157 118.52 23.3883C120.032 25.6519 121.936 27.6769 123.832 29.6487C124.48 30.3207 125.635 30.502 126.561 30.9043C126.896 29.967 127.235 29.0297 127.57 28.0969ZM120.416 31.7886C114.089 24.9313 110.118 17.0438 108.658 7.75041C106.824 8.71423 105.065 9.59406 103.368 10.5844C103.082 10.748 102.879 11.4289 102.963 11.8047C104.77 20.0945 108.588 27.3011 114.579 33.3051C114.879 33.6057 115.584 33.7958 115.972 33.6588C117.444 33.1282 118.877 32.4474 120.416 31.7886ZM57.8912 74.3428C60.598 74.0378 62.9785 72.7247 64.2261 70.6158C66.082 67.4811 64.7374 64.5896 61.1402 64.0149C58.2306 63.5506 55.8104 64.9345 53.7649 66.6057C51.499 68.4582 51.8605 71.2878 54.316 72.8839C55.3784 73.5736 56.6921 73.8698 57.8912 74.3428ZM55.4754 77.9815C55.4754 80.7846 55.4754 83.8352 55.4754 86.8814C58.1028 86.8814 60.6068 86.8814 63.146 86.8814C63.146 83.4417 63.146 80.086 63.146 77.0531C60.5451 77.3714 58.0367 77.672 55.4754 77.9815ZM14.1599 73.5117C15.1165 72.6495 15.7734 71.8139 16.6286 71.3276C20.6579 69.0197 24.74 66.8047 28.8883 64.5145C28.377 63.4711 27.9538 62.6045 27.5394 61.7556C22.2449 64.2669 17.1135 66.6986 11.797 69.2187C12.5508 70.5848 13.4369 72.1986 14.1599 73.5117ZM30.0389 58.1302C31.1895 60.5575 32.2828 62.8565 33.4202 65.2528C35.0865 64.4658 36.5016 63.7982 38.0402 63.0732C36.7529 60.5575 35.5362 58.1921 34.271 55.7251C32.8206 56.5519 31.5025 57.299 30.0389 58.1302Z" fill="black"/>
<path d="M15.7116 49.9465C15.1826 50.4638 14.6976 51.3171 14.0937 51.41C13.4589 51.5117 12.2774 51.0518 12.0879 50.5478C10.8623 47.3071 9.77346 44.0088 8.82566 40.6752C8.67577 40.1535 9.35026 39.0173 9.90131 38.783C10.4435 38.5531 11.8013 38.92 11.9688 39.3533C13.2914 42.7311 14.4155 46.1841 15.7116 49.9465Z" fill="black"/>
<path d="M25.8509 40.8167C25.582 41.6302 25.4497 42.1033 25.269 42.5587C24.4314 44.6455 23.5674 46.7234 22.7298 48.8103C22.2448 50.0128 21.3984 50.6362 20.1597 50.0924C19.0355 49.6017 18.7931 48.6202 19.2603 47.4662C20.2126 45.1274 21.0413 42.7311 22.1567 40.4763C22.4608 39.8573 23.607 39.3489 24.3521 39.3665C24.8899 39.3798 25.4057 40.348 25.8509 40.8167Z" fill="black"/>
<path d="M0 48.859C0.290954 48.461 0.564275 47.7183 1.05361 47.5193C1.61347 47.2894 2.59214 47.2806 3.00212 47.6299C4.84042 49.1994 6.62582 50.8573 8.23489 52.6612C8.63165 53.1033 8.56552 54.4297 8.18199 54.9647C7.86899 55.4068 6.4539 55.6588 6.06596 55.336C4.08218 53.6914 2.2571 51.8477 0.409981 50.0394C0.198378 49.836 0.189561 49.4337 0 48.859Z" fill="black"/>
<path d="M59.8 58.8156C55.352 53.6737 52.7334 47.935 51.8693 41.4137C51.8076 40.945 52.2485 40.1669 52.6805 39.9149C66.6683 31.687 80.6826 23.5077 94.6969 15.3285C96.1517 14.4796 97.6373 13.6838 98.9158 12.9675C100.582 17.066 101.896 21.1866 103.888 24.9358C105.89 28.7027 108.575 32.1026 111.061 35.8076C94.1856 43.3855 77.0325 51.0829 59.8 58.8156Z" fill="#022D50"/>
<path d="M56.2291 60.3586C53.0639 61.6452 50.1543 62.9317 47.1698 64.0061C45.0318 64.7754 42.8981 63.9663 41.7739 61.9723C40.2354 59.2444 38.8071 56.4414 37.4802 53.6029C36.5324 51.5824 37.0349 49.2613 38.7983 48.1118C41.7695 46.1709 44.8951 44.4599 48.1882 42.5145C49.3872 49.195 51.9177 55.031 56.2291 60.3586Z" fill="white"/>
<path d="M127.57 28.0969C127.231 29.0298 126.896 29.9671 126.556 30.9C125.631 30.4976 124.476 30.3164 123.828 29.6443C121.932 27.6725 120.028 25.652 118.515 23.3839C115.597 19.0069 113.485 14.2231 112.626 8.97512C112.432 7.79024 112.392 6.55671 112.467 5.35414C112.569 3.74924 113.305 3.32922 114.601 4.23115C115.941 5.16403 117.246 6.23396 118.295 7.47191C122.906 12.9056 125.873 19.1572 127.182 26.1869C127.293 26.7794 127.284 27.3939 127.332 27.9996C127.416 28.035 127.495 28.066 127.57 28.0969Z" fill="#FFD94B"/>
<path d="M120.416 31.7886C118.881 32.4473 117.449 33.1282 115.963 33.6543C115.58 33.7914 114.87 33.6013 114.57 33.3006C108.579 27.2966 104.761 20.0856 102.954 11.8002C102.875 11.4288 103.077 10.748 103.359 10.58C105.057 9.58962 106.82 8.7098 108.65 7.74597C110.118 17.0438 114.089 24.9313 120.416 31.7886Z" fill="white"/>
<path d="M57.8912 74.3428C56.6921 73.8698 55.374 73.5735 54.3159 72.8838C51.8605 71.2878 51.499 68.4582 53.7649 66.6057C55.8104 64.93 58.2306 63.5462 61.1401 64.0148C64.733 64.5896 66.082 67.4811 64.226 70.6157C62.9784 72.7247 60.6023 74.0378 57.8912 74.3428ZM58.7684 70.7793C60.0336 70.7086 60.7522 70.0366 60.7478 68.803C60.7434 67.5607 59.9631 66.84 58.7596 66.8621C57.6399 66.8842 56.9125 67.5739 56.8904 68.75C56.864 70.0012 57.5561 70.6688 58.7684 70.7793Z" fill="white"/>
<path d="M55.4753 77.9816C58.0366 77.6721 60.545 77.367 63.146 77.0531C63.146 80.0905 63.146 83.4418 63.146 86.8815C60.6067 86.8815 58.1027 86.8815 55.4753 86.8815C55.4753 83.8353 55.4753 80.7846 55.4753 77.9816Z" fill="#022D50"/>
<path d="M14.1598 73.5117C13.4368 72.1986 12.5507 70.5804 11.7969 69.2142C17.1134 66.6941 22.2404 64.2625 27.5393 61.7512C27.9537 62.6001 28.3769 63.4622 28.8882 64.5101C24.7443 66.8047 20.6578 69.0153 16.6285 71.3232C15.7733 71.8183 15.1164 72.6495 14.1598 73.5117Z" fill="#FFD94B"/>
<path d="M30.0388 58.1302C31.5024 57.2991 32.8161 56.5519 34.2709 55.7251C35.5361 58.1921 36.7484 60.5575 38.0401 63.0732C36.5059 63.7983 35.0864 64.4659 33.4201 65.2528C32.2827 62.8565 31.1894 60.5575 30.0388 58.1302Z" fill="#022D50"/>
<path d="M58.7684 70.7794C57.5561 70.6688 56.864 70.0012 56.886 68.7544C56.9081 67.5784 57.6354 66.8887 58.7552 66.8666C59.9631 66.8445 60.739 67.5607 60.7434 68.8075C60.7522 70.0322 60.0336 70.7086 58.7684 70.7794Z" fill="black"/>
</g>
<defs>
<clipPath id="clip0_409_22">
<rect width="131" height="154" fill="white"/>
</clipPath>
</defs>
</svg>
